<?xml version="1.0" standalone="no"?>
<!DOCTYPE svg PUBLIC "-//W3C//DTD SVG 1.1//EN" "http://www.w3.org/Graphics/SVG/1.1/DTD/svg11.dtd" >
<svg xmlns="http://www.w3.org/2000/svg">
<metadata>Generated by IcoMoon</metadata>
<defs>
<font id="icomoon" horiz-adv-x="1024">
<font-face units-per-em="1024" ascent="960" descent="-64" />
<missing-glyph horiz-adv-x="1024" />
<glyph unicode="&#x20;" horiz-adv-x="512" d="" />
<glyph unicode="&#xe900;" glyph-name="arrow-down" horiz-adv-x="1856" d="M995.921-35.921l832.152 832.152c17.363 17.363 28.102 41.35 28.102 67.845 0 52.99-42.957 95.947-95.947 95.947-26.495 0-50.482-10.739-67.845-28.102l-764.145-764.145-764.145 764.145c-17.363 17.363-41.35 28.102-67.845 28.102-52.99 0-95.947-42.957-95.947-95.947 0-26.495 10.739-50.482 28.102-67.845l832.152-832.152c17.362-17.233 41.278-27.883 67.682-27.883s50.321 10.65 67.688 27.889l-0.006-0.006z" />
<glyph unicode="&#xe901;" glyph-name="arrow-left" d="M975.299 459.245c-0.008 0.008-0.018 0.018-0.028 0.028-3.107 3.107-7.18 4.659-11.253 4.657v0l-865.288 0.037 390.727 390.727c6.209 6.209 6.209 16.276 0 22.486s-16.276 6.209-22.486 0v0l-418.084-418.084c-6.209-6.209-6.209-16.276 0-22.486v0l417.934-417.934c6.209-6.209 16.276-6.209 22.486 0s6.209 16.276 0 22.486v0l-390.764 390.764 865.4 0.075c4.145-0.055 8.302 1.497 11.461 4.655 6.209 6.209 6.209 16.276 0 22.486-0.050 0.050-0.1 0.1-0.151 0.149l0.008-0.008z" />
<glyph unicode="&#xe902;" glyph-name="arrow-right" d="M48.754 436.755c0.008-0.008 0.018-0.018 0.028-0.028 3.107-3.107 7.18-4.659 11.253-4.657v0l865.288-0.037-390.727-390.727c-6.209-6.209-6.209-16.276 0-22.486s16.276-6.209 22.486 0v0l418.084 418.084c6.209 6.209 6.209 16.276 0 22.486v0l-417.934 417.934c-6.209 6.209-16.276 6.209-22.486 0s-6.209-16.276 0-22.486v0l390.764-390.764-865.4-0.075c-4.145 0.055-8.302-1.497-11.461-4.655-6.209-6.209-6.209-16.276 0-22.486 0.050-0.050 0.1-0.1 0.151-0.149l-0.008 0.008z" />
<glyph unicode="&#xe903;" glyph-name="download" d="M7.964-38.673c0-9.589 7.773-17.362 17.362-17.362v0h973.347c9.604 0 17.389 7.785 17.389 17.389s-7.785 17.389-17.389 17.389v0h-973.347c0 0 0 0 0 0-9.589 0-17.362-7.773-17.362-17.362 0-0.019 0-0.037 0-0.056v0.003zM494.638 934.673v-792.344l-335.351 335.298c-3.146 3.146-7.491 5.091-12.292 5.091-9.6 0-17.383-7.783-17.383-17.383 0-4.8 1.946-9.146 5.091-12.292v0l365.032-364.713c3.143-3.151 7.49-5.1 12.292-5.1s9.148 1.949 12.291 5.1v0l364.979 364.979c3.146 3.146 5.091 7.491 5.091 12.292 0 9.6-7.783 17.383-17.383 17.383-4.8 0-9.146-1.946-12.292-5.091v0l-335.351-335.298v792.079c0 9.604-7.785 17.389-17.389 17.389s-17.389-7.785-17.389-17.389v0z" />
<glyph unicode="&#xe904;" glyph-name="facebook" horiz-adv-x="1033" d="M599.916-63.96c-0.396 7.492-0.951 13.556-0.991 19.621 0 104.485 0.317 209.010-0.396 313.494 0 17.123 4.836 22.633 21.959 21.761 26.518-1.348 53.154 0 79.751-0.555 14.349-0.396 21.563 4.717 23.545 19.304q8.205 59.457 17.956 118.913c2.339 14.032-4.915 15.855-15.657 15.855-37.101 0-74.202 0-111.303 0-9.037 0-16.212 1.070-15.855 12.565 1.229 35.674 0.515 71.705 3.964 107.26 2.125 29.362 26.468 52.379 56.187 52.379 0.495 0 0.988-0.006 1.479-0.019l-0.073 0.001c22.792 1.586 45.663 2.894 68.494 2.933 12.962 0 19.422 3.33 19.145 17.639-0.674 31.71-0.396 63.064 0 94.615 0 11.891-3.409 18.749-16.41 19.819-31.433 2.101-62.826 6.699-94.219 6.738-0.164 0-0.359 0-0.553 0-25.775 0-50.81-3.165-74.739-9.129l2.121 0.447c-75.15-21.389-129.259-89.423-129.259-170.096 0-0.122 0-0.244 0-0.366v0.019c-1.229-37.061-0.436-74.202-0.515-111.303 0-6.699 0-13.398 0-23.188h-64.253c-17.322 0-34.643-0.396-51.925 0-11.891 0.317-16.608-5.193-16.569-16.687 0-39.638 0.277-79.275 0-118.913 0-13.556 5.747-18.749 19.026-18.55 32.741 0.396 65.521 0 98.301 0.238 10.345 0 15.855-2.101 15.855-14.23-0.396-111.303-0.317-222.605-0.396-333.908-0.21-1.957-0.615-3.743-1.201-5.445l0.052 0.173c-161.405 8.918-401.807 173.891-430.267 450.443-1.867 16.491-2.932 35.606-2.932 54.97 0 285.397 231.36 516.757 516.757 516.757 285.018 0 516.143-230.746 516.755-515.621v-0.058c-0.198-286.62-233.307-488.257-433.834-507.878z" />
<glyph unicode="&#xe905;" glyph-name="favicon" horiz-adv-x="2046" d="M0 210.86c250.726 169.538 504.007 240.604 795.279 149.468 240.585-75.286 543.837-295.085 819.045-191.156 137.411 51.906 232.766 203.832 208.748 351.946l0.368-2.342c-32.901 237.237-258.1 293.652-310.374 286.085 0.484 0 0.968 0.116 1.452 0.213-1.938 0.045-4.222 0.071-6.512 0.071-144.278 0-264.692-102.178-292.824-238.12l-0.335-1.936c-35.262 112.599 14.825 230.985 101.684 305.478 66.651 55.86 153.334 89.788 247.941 89.788 16.363 0 32.489-1.015 48.319-2.985l-1.891 0.192c230.345-28.783 410.176-211.984 433.541-441.465l0.173-2.1c1.461-14.717 2.294-31.811 2.294-49.1 0-266.782-198.394-487.226-455.693-521.844l-2.707-0.298c-293.478-41.61-542.25 116.489-725.199 219.857-313.258 177.066-513.722 162.029-863.307 48.249z" />
<glyph unicode="&#xe906;" glyph-name="files-empty" horiz-adv-x="841" d="M769.274 796.975h-40.756c-5.095 0-10.189 0-15.284-5.095v91.701c0 40.756-35.662 76.418-76.418 76.418h-560.398c-40.756 0-76.418-35.662-76.418-76.418v-662.289c0-40.756 35.662-76.418 76.418-76.418h560.398c40.756 0 76.418 35.662 76.418 76.418v529.831c5.095-5.095 10.189-5.095 15.284-5.095h40.756c10.189 0 15.284-10.189 15.284-15.284v-723.423c0-10.189-10.189-15.284-15.284-15.284h-555.303c-10.189 0-15.284 10.189-15.284 15.284v35.662c0 15.284-10.189 25.473-25.473 25.473s-25.473-10.189-25.473-25.473v-40.756c0-35.662 30.567-66.229 66.229-66.229h555.303c35.662 0 66.229 30.567 66.229 66.229v723.423c5.095 40.756-25.473 71.323-66.229 71.323zM662.289 221.294c0-15.284-10.189-25.473-25.473-25.473h-560.398c-15.284 0-25.473 10.189-25.473 25.473v662.289c0 15.284 10.189 25.473 25.473 25.473h560.398c15.284 0 25.473-10.189 25.473-25.473v-662.289z" />
<glyph unicode="&#xe907;" glyph-name="headphones-alt" horiz-adv-x="1365" d="M1251.556 379.733v11.378c0 62.578-51.2 113.778-113.778 113.778 0 250.311-204.8 455.111-455.111 455.111s-455.111-204.8-455.111-455.111c-62.578 0-113.778-51.2-113.778-113.778v-11.378c-56.889-17.067-96.711-68.267-108.089-125.156-11.378-45.511 0-91.022 22.756-130.844 22.756-28.444 51.2-51.2 85.333-68.267v-5.689c0-62.578 51.2-113.778 113.778-113.778s113.778 51.2 113.778 113.778v341.333c0 39.822-22.756 79.644-56.889 96.711v17.067c0 221.867 176.356 398.222 398.222 398.222s398.222-176.356 398.222-398.222v-17.067c-34.133-17.067-56.889-56.889-56.889-96.711v-341.333c0-62.578 51.2-113.778 113.778-113.778s113.778 51.2 113.778 113.778v11.378c56.889 17.067 96.711 68.267 108.089 125.156 17.067 85.333-28.444 164.978-108.089 193.422zM73.956 157.867c-17.067 22.756-22.756 56.889-17.067 85.333 5.689 34.133 28.444 56.889 56.889 73.956v-199.111c-17.067 11.378-28.444 22.756-39.822 39.822zM284.444 49.778c0-34.133-22.756-56.889-56.889-56.889s-56.889 22.756-56.889 56.889v341.333c0 34.133 22.756 56.889 56.889 56.889s56.889-22.756 56.889-56.889v-341.333zM1194.667 49.778c0-34.133-22.756-56.889-56.889-56.889s-56.889 22.756-56.889 56.889v341.333c0 34.133 22.756 56.889 56.889 56.889s56.889-22.756 56.889-56.889v-341.333zM1308.444 197.689c-5.689-34.133-28.444-56.889-56.889-73.956v199.111c17.067-11.378 28.444-22.756 39.822-34.133 17.067-28.444 22.756-62.578 17.067-91.022z" />
<glyph unicode="&#xe908;" glyph-name="link" d="M610.806 276.037c-83.692 0-162.462 39.385-216.615 108.308-9.846 9.846-4.923 24.615 4.923 34.462s24.615 4.923 34.462-4.923c73.846-98.462 211.692-118.154 305.231-44.308 9.846 4.923 14.769 14.769 24.615 19.692l147.692 147.692c39.385 39.385 64 98.462 64 152.615 0 59.077-24.615 113.231-64 152.615-83.692 83.692-226.462 83.692-310.154 0l-83.692-78.769c-9.846-9.846-24.615-9.846-34.462 0s-9.846 24.615 0 34.462l83.692 83.692c103.385 103.385 275.692 103.385 379.077 0 49.231-49.231 78.769-118.154 78.769-192s-29.538-137.846-78.769-192l-147.692-147.692c-9.846-9.846-19.692-19.692-29.538-24.615-44.308-29.538-103.385-49.231-157.538-49.231zM266.191-63.655c-68.923 0-137.846 24.615-192 78.769-49.231 49.231-78.769 118.154-78.769 192s29.538 137.846 78.769 192l147.692 147.692c9.846 9.846 19.692 19.692 29.538 24.615 118.154 88.615 285.538 64 374.154-54.154 9.846-9.846 4.923-24.615-4.923-34.462s-24.615-4.923-34.462 4.923c-73.846 98.462-211.692 118.154-305.231 44.308-9.846-4.923-14.769-14.769-24.615-19.692l-147.692-147.692c-39.385-39.385-64-98.462-64-152.615s29.538-123.077 68.923-162.462c83.692-83.692 226.462-83.692 310.154 0l83.692 83.692c9.846 9.846 24.615 9.846 34.462 0s9.846-24.615 0-34.462l-83.692-83.692c-54.154-54.154-123.077-78.769-192-78.769z" />
<glyph unicode="&#xe909;" glyph-name="mail" horiz-adv-x="1385" d="M1385.412 935.906c0 0 0 6.024 0 0 0 6.024 0 6.024 0 0 0 6.024-6.024 12.047-12.047 12.047 0 0 0 0 0 0-6.024 12.047-12.047 12.047-18.071 12.047h-1325.176c-6.024 0-12.047 0-18.071-6.024 0 0 0 0 0 0-6.024-6.024-6.024-6.024-12.047-12.047 0 0 0 0 0 0s0 0 0 0 0-6.024 0-6.024v-843.294c0-90.353 66.259-156.612 150.588-156.612h1084.235c84.329 0 150.588 66.259 150.588 150.588v843.294c0 0 0 6.024 0 6.024zM1270.965 899.765l-524.047-433.694c-30.118-24.094-72.282-24.094-102.4 0l-530.071 433.694h1156.518zM1234.824-3.765h-1084.235c-48.188 0-90.353 42.165-90.353 90.353v777.035l542.118-445.741c24.094-18.071 54.212-30.118 90.353-30.118 30.118 0 60.235 12.047 90.353 30.118l542.118 451.765v-777.035c0-54.212-42.165-96.376-90.353-96.376z" />
<glyph unicode="&#xe90a;" glyph-name="mail2" horiz-adv-x="1055" d="M1015.21 639.176c-52.738 127.451-153.82 224.137-281.27 281.27-131.845 52.738-281.27 52.738-413.116 0-127.451-57.133-224.137-153.82-281.27-281.27-52.738-131.845-52.738-281.27 0-413.116 52.738-127.451 153.82-224.137 281.27-281.27 4.395 0 4.395 0 8.79 0 8.79 0 17.579 4.395 21.974 13.185 4.395 13.185 0 21.974-13.185 30.764-114.266 48.343-206.558 140.635-254.901 254.901-48.343 118.661-48.343 254.901 0 377.957 48.343 114.266 140.635 206.558 254.901 254.901 118.661 48.343 254.901 48.343 377.957 0 114.266-48.343 206.558-140.635 254.901-254.901 26.369-61.528 39.554-123.056 39.554-188.979 4.395-65.923-8.79-127.451-35.159-184.584-26.369-48.343-96.687-109.871-145.030-101.082-43.948 8.79-57.133 74.712-65.923 127.451-13.185 127.451-17.579 303.245 26.369 439.485 4.395 13.185-4.395 21.974-13.185 26.369-13.185 4.395-21.974-4.395-26.369-13.185-4.395-17.579-13.185-35.159-17.579-57.133-30.764 39.554-109.871 70.318-184.584 70.318v0c-8.79 0-13.185 0-21.974 0-83.502-4.395-162.609-39.554-219.742-101.082s-87.897-145.030-87.897-228.532c0-92.292 43.948-180.189 123.056-237.322 48.343-35.159 105.476-57.133 162.609-57.133 21.974 0 43.948 4.395 61.528 8.79 65.923 17.579 118.661 57.133 158.215 109.871 13.185-79.107 43.948-123.056 96.687-136.24 74.712-13.185 158.215 61.528 193.373 123.056 30.764 65.923 43.948 136.24 39.554 206.558 0 74.712-13.185 145.030-39.554 210.953zM703.176 287.588c-30.764-61.528-83.502-105.476-149.425-118.661-61.528-17.579-131.845-4.395-188.979 39.554-61.528 48.343-101.082 123.056-101.082 202.163-4.395 74.712 26.369 145.030 74.712 197.768s118.661 83.502 193.373 87.897c4.395 0 13.185 0 17.579 0 83.502 0 153.82-39.554 153.82-65.923 0-8.79 8.79-17.579 17.579-21.974-13.185-105.476-13.185-215.348-4.395-307.639-4.395-4.395-8.79-8.79-13.185-13.185z" />
<glyph unicode="&#xe90b;" glyph-name="menu" horiz-adv-x="1268" d="M702.164 881.994h526.636c0.431-0.017 0.938-0.027 1.446-0.027 21.556 0 39.030 17.474 39.030 39.030s-17.474 39.030-39.030 39.030c-0.509 0-1.015-0.010-1.519-0.029l0.073 0.002h-526.636c-0.431 0.017-0.938 0.027-1.446 0.027-21.556 0-39.030-17.474-39.030-39.030s17.474-39.030 39.030-39.030c0.509 0 1.015 0.010 1.519 0.029l-0.073-0.002zM1228.8 14.060h-1189.77c-0.431 0.017-0.938 0.027-1.446 0.027-21.556 0-39.030-17.474-39.030-39.030s17.474-39.030 39.030-39.030c0.509 0 1.015 0.010 1.519 0.029l-0.073-0.002h1189.77c0.431-0.017 0.938-0.027 1.446-0.027 21.556 0 39.030 17.474 39.030 39.030s-17.474 39.030-39.030 39.030c-0.509 0-1.015-0.010-1.519-0.029l0.073 0.002zM1228.8 487.030h-897.206c-0.431 0.017-0.938 0.027-1.446 0.027-21.556 0-39.030-17.474-39.030-39.030s17.474-39.030 39.030-39.030c0.509 0 1.015 0.010 1.519 0.029l-0.073-0.002h897.206c0.431-0.017 0.938-0.027 1.446-0.027 21.556 0 39.030 17.474 39.030 39.030s-17.474 39.030-39.030 39.030c-0.509 0-1.015-0.010-1.519-0.029l0.073 0.002z" />
<glyph unicode="&#xe90c;" glyph-name="minus" horiz-adv-x="13479" d="M12966.145 32.878h-12454.63c-5.99-0.309-13.004-0.484-20.060-0.484-229.533 0-415.606 186.073-415.606 415.606s186.073 415.606 415.606 415.606c7.056 0 14.071-0.176 21.040-0.523l-0.98 0.039h12454.63c5.99 0.309 13.004 0.484 20.060 0.484 229.533 0 415.606-186.073 415.606-415.606s-186.073-415.606-415.606-415.606c-7.056 0-14.071 0.176-21.040 0.523l0.98-0.039z" />
<glyph unicode="&#xe90d;" glyph-name="plus" d="M512-49.306c-11.927 0-21.596 9.669-21.596 21.596v0 951.122c0 11.927 9.669 21.596 21.596 21.596s21.596-9.669 21.596-21.596v0-951.122c0-11.927-9.669-21.596-21.596-21.596v0zM987.561 426.404h-951.122c-11.927 0-21.596 9.669-21.596 21.596s9.669 21.596 21.596 21.596h951.122c11.927 0 21.596-9.669 21.596-21.596s-9.669-21.596-21.596-21.596v0z" />
<glyph unicode="&#xe90e;" glyph-name="search" d="M387.339 185.322c-213.921 0-387.339 173.418-387.339 387.339s173.418 387.339 387.339 387.339c213.921 0 387.339-173.418 387.339-387.339v0c-0.203-213.84-173.499-387.137-387.32-387.339h-0.019zM387.339 911.382c-187.144 0-338.855-151.711-338.855-338.855s151.711-338.855 338.855-338.855c187.144 0 338.855 151.711 338.855 338.855v0c-0.076 187.158-151.714 338.875-338.835 339.078h-0.020zM626.822 298.941l34.221 34.221 362.952-362.952-34.221-34.221-362.952 362.952z" />
<glyph unicode="&#xe90f;" glyph-name="share" horiz-adv-x="1446" d="M1433.6 472.094l-602.353 481.882c-6.024 6.024-18.071 6.024-30.118 6.024-12.047-6.024-18.071-18.071-18.071-30.118v-271.059c-379.482-12.047-638.494-204.8-783.059-560.188-6.024-12.047 0-30.118 12.047-36.141s24.094-6.024 36.141 0c234.918 192.753 475.859 252.988 734.871 180.706v-277.082c0-12.047 6.024-24.094 18.071-30.118 6.024 0 6.024 0 12.047 0s12.047 0 18.071 6.024l602.353 481.882c6.024 6.024 12.047 12.047 12.047 24.094s-6.024 18.071-12.047 24.094zM843.294 26.353v240.941c0 12.047-6.024 24.094-24.094 30.118-84.329 24.094-162.635 36.141-240.941 36.141-162.635 0-325.271-48.188-475.859-150.588 144.565 277.082 379.482 409.6 710.776 415.624 18.071 0 30.118 12.047 30.118 30.118v240.941l524.047-421.647-524.047-421.647z" />
<glyph unicode="&#xe910;" glyph-name="telegram" horiz-adv-x="997" d="M948.641 955.567c-17.732 4.433-35.463 4.433-48.762-4.433l-864.416-452.156c-31.030-17.732-44.329-57.628-26.597-88.658 4.433-8.866 13.299-17.732 22.165-26.597l279.273-177.316v-248.242c0-8.866 4.433-17.732 13.299-17.732 4.433 0 4.433-4.433 8.866-4.433s8.866 0 13.299 4.433l172.883 128.554 150.719-97.524c8.866-8.866 22.165-8.866 35.463-8.866 4.433 0 8.866 0 13.299 0 17.732 4.433 31.030 13.299 39.896 31.030 4.433 4.433 4.433 13.299 8.866 17.732 0 0 0 0 0 0l226.078 864.416c8.866 35.463-8.866 70.926-44.329 79.792zM354.632 2.494v172.883l124.121-79.792-124.121-93.091zM953.074 889.074l-226.078-864.416c0-4.433 0-4.433-4.433-4.433-4.433-4.433-8.866-8.866-13.299-8.866s-13.299 0-17.732 4.433l-328.035 212.779 429.991 474.32c8.866 8.866 8.866 22.165 0 31.030s-22.165 8.866-31.030 0l-434.424-487.619-270.407 177.316c-4.433 0-4.433 4.433-8.866 8.866s-4.433 8.866-4.433 17.732 4.433 8.866 8.866 13.299l864.416 447.723c4.433 4.433 8.866 4.433 13.299 4.433 0 0 4.433 0 4.433 0 13.299-4.433 17.732-17.732 17.732-26.597z" />
<glyph unicode="&#xe911;" glyph-name="times" horiz-adv-x="1026" d="M984.978-49.81c-0.056 0-0.121-0.001-0.187-0.001-6.778 0-12.923 2.708-17.413 7.1l0.005-0.004-943.615 943.615c-4.539 4.539-7.347 10.81-7.347 17.737 0 13.854 11.231 25.084 25.084 25.084 6.927 0 13.198-2.808 17.737-7.347l943.615-943.615c4.602-4.511 7.454-10.791 7.454-17.738 0-13.714-11.118-24.832-24.832-24.832-0.076 0-0.153 0-0.229 0.001h0.012zM41.363-49.81c-0.065-0.001-0.141-0.001-0.217-0.001-13.714 0-24.832 11.118-24.832 24.832 0 6.947 2.852 13.227 7.45 17.734l943.619 943.619c4.539 4.539 10.81 7.347 17.737 7.347 13.854 0 25.084-11.231 25.084-25.084 0-6.927-2.808-13.198-7.347-17.737l-943.615-943.615c-4.486-4.39-10.633-7.099-17.412-7.099-0.164 0-0.328 0.002-0.491 0.005h0.024z" />
<glyph unicode="&#xe912;" glyph-name="twitter" horiz-adv-x="1234" d="M1233.883 825.363c-31.707-32.559-61.521-67.011-95.737-96.873-16.518-12.021-27.132-31.289-27.132-53.036 0-1.004 0.023-2.002 0.067-2.995l-0.005 0.141c-1.607-169.128-57.939-324.793-152.103-450.476l1.423 1.985c-96.959-135.908-240.983-232.834-407.851-267.21l-4.295-0.74c-51.61-13.086-110.859-20.596-171.861-20.596-129.099 0-250.342 33.635-355.444 92.62l3.663-1.889c-7.619 4.165-14.765 9.465-22.006 14.197-0.899 0.615-0.946 2.556-2.65 7.808 11.442-0.886 24.779-1.391 38.235-1.391 124.050 0 238.072 42.93 328.022 114.743l-1.056-0.815c-109.394 1.476-202.162 71.059-237.939 168.206l-0.575 1.783 102.599 8.424 0.568 7.335c-75.143 19.311-135.944 69.426-169.213 135.742l-0.681 1.498c-14.641 24.288-23.303 53.613-23.303 84.961 0 9.1 0.73 18.029 2.134 26.732l-0.127-0.955c26.904-16.095 59.35-25.612 94.018-25.612 2.635 0 5.257 0.055 7.866 0.164l-0.373-0.012c-50.054 37.529-85.988 91.508-99.858 153.802l-0.328 1.752c-4.146 16.824-6.524 36.139-6.524 56.010 0 47.612 13.656 92.035 37.264 129.566l-0.594-1.012c126.916-155.599 315.326-256.87 527.616-266.473l1.562-0.056c0.896 4.535 1.412 9.753 1.42 15.090v0.006c-2.429 13.247-3.818 28.491-3.818 44.060 0 121.695 84.859 223.57 198.632 249.679l1.722 0.333c18.684 5.597 40.153 8.818 62.375 8.818 57.422 0 109.82-21.508 149.579-56.907l-0.226 0.197c12.051-13.504 29.506-21.966 48.938-21.966 10.454 0 20.335 2.449 29.102 6.804l-0.381-0.171c36.913 14.812 74.63 27.637 113.909 42.071-18.944-51.867-52.274-94.708-95.15-124.907l-0.823-0.55 2.461-6.152 122.286 31.092z" />
<glyph unicode="&#xe913;" glyph-name="whatsapp" d="M763.733 379.733c-8.533 4.267-17.067 8.533-25.6 12.8l-17.067 8.533c-25.6 8.533-55.467 0-76.8-21.333v-4.267c-8.533-8.533-25.6-8.533-38.4 0-68.267 38.4-123.733 98.133-157.867 170.667-4.267 8.533-12.8 29.867-4.267 38.4l4.267 4.267c17.067 21.333 25.6 51.2 12.8 81.067 0 4.267-4.267 8.533-4.267 12.8-4.267 8.533-8.533 17.067-8.533 21.333-12.8 34.133-46.933 51.2-85.333 51.2-29.867-4.267-59.733-17.067-85.333-38.4s-29.867-59.733-17.067-85.333c76.8-238.933 204.8-371.2 426.667-439.467 8.533-4.267 21.333-8.533 34.133-8.533 21.333 0 46.933 8.533 64 29.867 17.067 25.6 25.6 51.2 34.133 81.067 0 38.4-21.333 72.533-55.467 85.333zM750.933 238.933c-8.533-12.8-29.867-17.067-46.933-8.533-209.067 64-328.533 187.733-401.067 413.867-8.533 17.067-8.533 34.133 4.267 42.667 17.067 17.067 38.4 25.6 59.733 29.867 0 0 0 0 4.267 0 17.067 0 34.133-8.533 38.4-25.6 4.267-4.267 4.267-12.8 8.533-21.333 0-4.267 4.267-12.8 4.267-12.8 4.267-12.8 4.267-29.867-4.267-38.4l-4.267-4.267c-21.333-25.6-8.533-59.733 0-81.067 34.133-81.067 98.133-149.333 174.933-192 25.6-17.067 59.733-17.067 85.333 0l4.267 4.267c8.533 8.533 21.333 12.8 29.867 8.533l12.8-4.267c8.533-4.267 17.067-8.533 25.6-12.8 17.067-4.267 25.6-21.333 25.6-34.133-4.267-21.333-12.8-42.667-21.333-64zM951.467 708.267c-68.267 119.467-179.2 200.533-315.733 234.667-128 34.133-268.8 17.067-384-55.467-119.467-68.267-200.533-179.2-234.667-311.467-34.133-128-17.067-264.533 51.2-379.733l-68.267-234.667c0-8.533 0-17.067 4.267-21.333 8.533-4.267 17.067-4.267 21.333-4.267l230.4 68.267c81.067-46.933 170.667-68.267 256-68.267 89.6 0 179.2 25.6 260.267 72.533 243.2 145.067 324.267 456.533 179.2 699.733zM750.933 42.667c-149.333-89.6-332.8-89.6-477.867 0-4.267 0-8.533 4.267-12.8 4.267 0 0-4.267 0-4.267 0l-204.8-59.733 59.733 204.8c0 4.267 0 12.8-4.267 17.067-64 106.667-81.067 234.667-51.2 354.133 34.133 123.733 110.933 226.133 217.6 290.133 221.867 132.267 512 59.733 644.267-166.4 132.267-221.867 59.733-512-166.4-644.267z" />
<glyph unicode="&#xe914;" glyph-name="world" d="M512 960c-282.77 0-512-229.23-512-512s229.23-512 512-512c282.77 0 512 229.23 512 512v0c0 0.023 0 0.051 0 0.079 0 282.726-229.195 511.921-511.921 511.921-0.028 0-0.055 0-0.083 0h0.004zM910.874 646.188h-170.442c-15.302 85.167-46.496 160.949-90.573 227.449l1.388-2.228c114.374-38.783 205.93-119.152 258.452-222.67l1.174-2.552zM693.699 448c0-0.231 0-0.504 0-0.777 0-46.318-3.227-91.882-9.469-136.479l0.59 5.144h-345.641c-5.651 39.692-8.878 85.536-8.878 132.132s3.227 92.44 9.469 137.318l-0.591-5.186h345.601c5.652-39.454 8.879-85.018 8.879-131.336 0-0.287 0-0.574 0-0.86v0.044zM512 893.924c55.493 0 126.841-91.167 161.246-247.736h-322.492c34.485 156.688 105.714 247.736 161.246 247.736zM372.594 871.449c-42.673-64.277-73.865-140.056-88.633-221.553l-0.551-3.668h-170.442c53.697 106.069 145.253 186.438 256.473 224.289l3.154 0.932zM66.076 448c0 0.129 0 0.282 0 0.435 0 47.007 7.32 92.305 20.882 134.816l-0.864-3.138h186.852c-5.417-39.584-8.568-85.425-8.68-131.98v-0.132c0.001-46.585 3.155-92.432 9.262-137.34l-0.582 5.227h-186.852c-12.698 39.373-20.017 84.67-20.017 131.678 0 0.153 0 0.306 0 0.459v-0.024zM113.166 249.812h170.442c15.232-85.168 46.361-160.968 90.377-227.497l-1.39 2.236c-114.316 38.828-205.814 119.204-258.294 222.708l-1.174 2.553zM512.040 2.076c-55.493 0-126.841 91.167-161.246 247.736h322.492c-34.524-156.688-105.753-247.736-161.286-247.736zM651.406 24.59c42.673 64.277 73.865 140.056 88.633 221.553l0.551 3.668h170.442c-53.698-106.092-145.271-186.478-256.512-224.329l-3.154-0.932zM751.134 315.888c5.417 39.584 8.568 85.425 8.68 131.98v0.132c0 46.584-3.155 92.431-9.262 137.339l0.582-5.226h186.852c12.704-39.512 20.028-84.967 20.028-132.132s-7.323-92.62-20.894-135.289l0.867 3.157z" />
<glyph unicode="&#xe915;" glyph-name="youtube" horiz-adv-x="1456" d="M1425.96 799.777c-17.169 63.192-65.727 112.035-127.47 129.309l-1.288 0.308c-113.567 30.607-569.009 30.607-569.009 30.607s-455.443 0-569.009-30.652c-63.020-17.573-111.574-66.397-128.459-128.288l-0.298-1.283c-19.379-102.418-30.464-220.233-30.464-340.637 0-4.218 0.014-8.434 0.041-12.646l-0.003 0.647c-0.024-3.565-0.037-7.78-0.037-11.999 0-120.404 11.085-238.22 32.29-352.481l-1.826 11.844c17.286-62.624 65.905-110.838 127.498-127.251l1.259-0.285c113.567-30.652 569.009-30.652 569.009-30.652s455.443 0 569.009 30.652c62.853 16.698 111.472 64.913 128.458 126.27l0.299 1.267c19.379 102.418 30.464 220.233 30.464 340.637 0 4.218-0.014 8.434-0.041 12.646l0.003-0.647c0.024 3.565 0.037 7.78 0.037 11.999 0 120.404-11.085 238.22-32.29 352.481l1.826-11.844zM579.227 230.406v433.109l380.666-216.555-380.666-216.555z" />
<glyph unicode="&#xe916;" glyph-name="filter" horiz-adv-x="1069" d="M1046.23 781.915h-623.321c-0.311-0.016-0.675-0.024-1.042-0.024-12.304 0-22.279 9.975-22.279 22.279s9.975 22.279 22.279 22.279c0.366 0 0.731-0.009 1.093-0.026l-0.051 0.002h623.321c11.848-0.572 21.237-10.317 21.237-22.255s-9.389-21.683-21.186-22.253l-0.051-0.002zM200.364 781.915h-178.085c-0.311-0.016-0.675-0.024-1.042-0.024-12.304 0-22.279 9.975-22.279 22.279s9.975 22.279 22.279 22.279c0.366 0 0.731-0.009 1.093-0.026l-0.051 0.002h178.085c0.311 0.016 0.675 0.024 1.042 0.024 12.304 0 22.279-9.975 22.279-22.279s-9.975-22.279-22.279-22.279c-0.366 0-0.731 0.009-1.093 0.026l0.051-0.002zM1046.425 425.745h-133.576c-0.311-0.016-0.675-0.024-1.042-0.024-12.304 0-22.279 9.975-22.279 22.279s9.975 22.279 22.279 22.279c0.366 0 0.731-0.009 1.093-0.026l-0.051 0.002h133.576c11.848-0.572 21.237-10.317 21.237-22.255s-9.389-21.683-21.186-22.253l-0.051-0.002zM690.060 425.745h-667.879c-0.311-0.016-0.675-0.024-1.042-0.024-12.304 0-22.279 9.975-22.279 22.279s9.975 22.279 22.279 22.279c0.366 0 0.731-0.009 1.093-0.026l-0.051 0.002h667.879c0.311 0.016 0.675 0.024 1.042 0.024 12.304 0 22.279-9.975 22.279-22.279s-9.975-22.279-22.279-22.279c-0.366 0-0.731 0.009-1.093 0.026l0.051-0.002zM1046.23 69.576h-756.848c-0.311-0.016-0.675-0.024-1.042-0.024-12.304 0-22.279 9.975-22.279 22.279s9.975 22.279 22.279 22.279c0.366 0 0.731-0.009 1.093-0.026l-0.051 0.002h756.848c11.848-0.572 21.237-10.317 21.237-22.255s-9.389-21.683-21.186-22.253l-0.051-0.002zM66.788 69.576h-44.509c-0.311-0.016-0.675-0.024-1.042-0.024-12.304 0-22.279 9.975-22.279 22.279s9.975 22.279 22.279 22.279c0.366 0 0.731-0.009 1.093-0.026l-0.051 0.002h44.509c0.311 0.016 0.675 0.024 1.042 0.024 12.304 0 22.279-9.975 22.279-22.279s-9.975-22.279-22.279-22.279c-0.366 0-0.731 0.009-1.093 0.026l0.051-0.002zM267.152 648.339c-49.158 0.056-88.99 39.905-89.018 89.064v133.579c0 49.177 39.866 89.042 89.042 89.042s89.042-39.866 89.042-89.042v0-133.576c-0.028-49.179-39.888-89.039-89.064-89.067h-0.003zM267.152 915.442c-24.571-0.028-44.481-19.939-44.509-44.506v-133.579c0-24.595 19.938-44.533 44.533-44.533s44.533 19.938 44.533 44.533v0 133.576c0 24.609-19.949 44.558-44.558 44.558v0zM756.897 292.17c-49.162 0.028-89.011 39.86-89.067 89.013v133.581c-0.016 0.62-0.024 1.351-0.024 2.084 0 49.19 39.877 89.067 89.067 89.067s89.067-39.877 89.067-89.067c0-0.733-0.009-1.463-0.026-2.192l0.002 0.108v-133.576c-0.056-49.141-39.877-88.963-89.013-89.018h-0.005zM756.897 559.273c-24.571-0.028-44.481-19.939-44.509-44.506v-133.579c0-24.582 19.927-44.509 44.509-44.509s44.509 19.927 44.509 44.509v133.576c0 24.591-19.921 44.53-44.506 44.558h-0.003zM133.576-64c-49.141 0.056-88.963 39.877-89.018 89.013v133.581c0 49.177 39.866 89.042 89.042 89.042s89.042-39.866 89.042-89.042v0-133.576c-0.056-49.158-39.905-88.99-89.064-89.018h-0.003zM133.576 203.103c-24.571-0.028-44.481-19.939-44.509-44.506v-133.579c0-24.595 19.938-44.533 44.533-44.533s44.533 19.938 44.533 44.533v0 133.576c0 24.609-19.949 44.558-44.558 44.558v0z" />
<glyph unicode="&#xe917;" glyph-name="advanced-search" d="M362.674 234.652c-200.299 0-362.674 162.375-362.674 362.674s162.375 362.674 362.674 362.674c200.299 0 362.674-162.375 362.674-362.674v0c-0.228-200.208-162.466-362.446-362.652-362.674h-0.022zM362.674 917.304c-176.743 0-320.022-143.279-320.022-320.022s143.279-320.022 320.022-320.022c176.743 0 320.022 143.279 320.022 320.022v0c-0.278 176.641-143.386 319.763-319.993 320.067h-0.029zM1002.451-63.955c-5.89 0.003-11.224 2.384-15.094 6.234l-383.999 383.999c-4.32 3.925-7.021 9.565-7.021 15.837 0 11.803 9.568 21.37 21.37 21.37 6.271 0 11.911-2.701 15.821-7.004l0.016-0.018 384-384c3.867-3.861 6.259-9.197 6.259-15.093 0-11.778-9.548-21.326-21.326-21.326-0.009 0-0.019 0-0.028 0h0.001zM362.674 405.348c-11.778 0-21.326 9.548-21.326 21.326v0 341.348c0 11.778 9.548 21.326 21.326 21.326s21.326-9.548 21.326-21.326v-341.348c0-11.778-9.548-21.326-21.326-21.326v0zM533.326 576h-341.348c-11.778 0-21.326 9.548-21.326 21.326s9.548 21.326 21.326 21.326h341.348c11.778 0 21.326-9.548 21.326-21.326s-9.548-21.326-21.326-21.326v0z" />
</font>
</defs>
</svg>
