<svg xmlns="http://www.w3.org/2000/svg" width="23" height="23" viewBox="0 0 23 23">
  <g id="Raggruppa_1954" data-name="Raggruppa 1954" transform="translate(-144 -864)">
    <g id="Raggruppa_1950" data-name="Raggruppa 1950" transform="translate(144 864)">
      <path id="Tracciato_3072" data-name="Tracciato 3072" d="M152.146,880.292a8.146,8.146,0,1,1,8.146-8.146A8.155,8.155,0,0,1,152.146,880.292Zm0-15.333a7.188,7.188,0,1,0,7.188,7.188A7.2,7.2,0,0,0,152.146,864.958Z" transform="translate(-144 -864)" fill="#163567"/>
    </g>
    <g id="Raggruppa_1951" data-name="Raggruppa 1951" transform="translate(157.416 877.416)">
      <path id="Tracciato_3073" data-name="Tracciato 3073" d="M167.1,887.583a.481.481,0,0,1-.339-.14l-8.625-8.625a.48.48,0,1,1,.678-.678l8.625,8.625a.479.479,0,0,1-.339.818Z" transform="translate(-158 -878)" fill="#163567"/>
    </g>
    <g id="Raggruppa_1952" data-name="Raggruppa 1952" transform="translate(151.667 867.833)">
      <path id="Tracciato_3074" data-name="Tracciato 3074" d="M152.479,876.625a.479.479,0,0,1-.479-.479v-7.667a.479.479,0,1,1,.958,0v7.667A.479.479,0,0,1,152.479,876.625Z" transform="translate(-152 -868)" fill="#163567"/>
    </g>
    <g id="Raggruppa_1953" data-name="Raggruppa 1953" transform="translate(147.833 871.667)">
      <path id="Tracciato_3075" data-name="Tracciato 3075" d="M156.146,872.958h-7.667a.479.479,0,0,1,0-.958h7.667a.479.479,0,0,1,0,.958Z" transform="translate(-148 -872)" fill="#163567"/>
    </g>
  </g>
</svg>
