<?xml version="1.0" encoding="UTF-8"?>
<svg xmlns="http://www.w3.org/2000/svg" viewBox="0 0 1509.58 1441.94">
  <defs>
    <style>
      .cls-1 {
        fill: #ffd3c9;
      }

      .cls-2 {
        fill: #423eaf;
      }

      .cls-3 {
        fill: #f6f6fb;
      }

      .cls-4, .cls-5 {
        fill: #e9edf7;
      }

      .cls-6 {
        fill: #5652cc;
      }

      .cls-7 {
        fill: #807dfb;
      }

      .cls-8 {
        isolation: isolate;
      }

      .cls-9 {
        fill: #362e93;
      }

      .cls-10, .cls-11, .cls-5 {
        mix-blend-mode: multiply;
      }

      .cls-12 {
        fill: #dde2f8;
      }

      .cls-13 {
        fill: #ffd03e;
      }

      .cls-14 {
        fill: #1f196f;
      }

      .cls-15 {
        fill: #c4cae9;
      }

      .cls-16 {
        fill: #ed9f00;
      }

      .cls-11 {
        fill: #e7eeff;
      }

      .cls-17 {
        fill: #f7d3c9;
      }

      .cls-18 {
        fill: #362e94;
      }

      .cls-19 {
        fill: #dae0f5;
      }

      .cls-20 {
        fill: #20196f;
      }

      .cls-21 {
        fill: #ced3f8;
      }

      .cls-22 {
        fill: #fcba06;
      }

      .cls-23 {
        fill: #fcddd6;
      }

      .cls-24 {
        fill: #e8ecf7;
      }

      .cls-25 {
        fill: none;
        stroke: #dae0f5;
        stroke-linecap: round;
        stroke-linejoin: round;
        stroke-width: 5px;
      }

      .cls-26 {
        fill: #9f9cff;
      }

      .cls-27 {
        fill: #6b67e9;
      }
    </style>
  </defs>
  <g class="cls-8">
    <g id="Layer_2" data-name="Layer 2">
      <g id="Shadow">
        <path class="cls-11" d="M735.5,1423c0-10.46-94.69-18.94-211.48-18.94s-211.48,8.48-211.48,18.94,94.68,18.94,211.48,18.94,211.48-8.48,211.48-18.94Z"/>
        <path class="cls-11" d="M1219.07,1311.75c0-10.46-115.58-18.94-258.14-18.94s-258.14,8.48-258.14,18.94,115.57,18.94,258.14,18.94,258.14-8.48,258.14-18.94Z"/>
      </g>
      <g id="Plants">
        <g>
          <path class="cls-19" d="M802.38,362.13c-.8,0-1.59-.38-2.07-1.1-24.21-35.78-85.05-168.01-107.08-245.61-.38-1.33.39-2.71,1.72-3.09,1.33-.38,2.71.4,3.09,1.72,21.92,77.2,82.37,208.65,106.41,244.18.77,1.14.47,2.7-.67,3.47-.43.29-.92.43-1.4.43Z"/>
          <path class="cls-25" d="M689.65,114.92c-5.02-1.5-7.86-6.79-6.36-11.81,1.5-5.02,6.79-7.87,11.81-6.36,5.02,1.51,7.86,6.79,6.36,11.81-1.5,5.02-6.79,7.87-11.81,6.36Z"/>
          <path class="cls-25" d="M677.76,199.46c-4.86-1.45-7.61-6.58-6.16-11.43,1.45-4.86,6.58-7.62,11.43-6.16,4.86,1.46,7.62,6.58,6.16,11.43-1.46,4.86-6.58,7.62-11.44,6.16Z"/>
          <path class="cls-25" d="M767.63,228.85c-5.51-1.65-8.64-7.47-6.99-12.98,1.65-5.51,7.46-8.64,12.97-6.99,5.51,1.65,8.64,7.46,6.99,12.98-1.65,5.51-7.46,8.64-12.98,6.99Z"/>
          <path class="cls-25" d="M723.56,295.02c-6.38-1.91-10-8.64-8.09-15.02,1.91-6.38,8.64-10,15.02-8.09,6.38,1.91,10,8.64,8.09,15.02-1.91,6.38-8.64,10-15.02,8.09Z"/>
          <path class="cls-25" d="M721.43,121.56c-4.16-1.25-6.53-5.64-5.28-9.8,1.25-4.16,5.64-6.53,9.8-5.28,4.16,1.25,6.53,5.64,5.28,9.8-1.25,4.16-5.64,6.53-9.8,5.28Z"/>
          <path class="cls-19" d="M709.53,159.87c-1.31,0-2.41-1.02-2.49-2.34-.43-6.92,4.64-20.72,9.43-33.11.64-1.66,1.19-3.07,1.57-4.12.48-1.3,1.92-1.96,3.21-1.49,1.3.48,1.96,1.91,1.49,3.21-.39,1.07-.95,2.51-1.6,4.2-3.08,7.98-9.5,24.59-9.11,30.99.09,1.38-.96,2.56-2.34,2.65-.05,0-.1,0-.16,0Z"/>
          <path class="cls-19" d="M731.72,216.85c-.55,0-1.11-.18-1.57-.56-13.2-10.68-36.23-18.97-41.67-20.6-1.32-.4-2.07-1.79-1.68-3.11.4-1.32,1.79-2.07,3.11-1.68,6.93,2.08,29.78,10.5,43.38,21.5,1.07.87,1.24,2.44.37,3.52-.49.61-1.22.93-1.94.93Z"/>
          <path class="cls-19" d="M754.55,269.29c-1.32,0-2.42-1.03-2.49-2.37-.53-9.86,9.46-34.58,13.64-39.66.88-1.07,2.45-1.22,3.52-.34,1.07.88,1.22,2.45.34,3.52-3.54,4.3-12.96,27.91-12.51,36.22.07,1.38-.98,2.56-2.36,2.63-.05,0-.09,0-.14,0Z"/>
          <path class="cls-19" d="M776.82,316c-.57,0-1.14-.19-1.61-.59-4.39-3.72-31.72-18.57-39.59-22.61-1.23-.63-1.71-2.14-1.09-3.37.63-1.23,2.14-1.71,3.37-1.09,4.92,2.52,35.21,18.72,40.55,23.25,1.05.89,1.18,2.47.29,3.52-.49.58-1.2.88-1.91.88Z"/>
        </g>
        <path class="cls-2" d="M283.1,1232.89c-67.68,11.05-90.22,71.14-66.29,148.29,59.1-22.18,108.51-86.33,66.29-148.29Z"/>
        <g>
          <path class="cls-27" d="M269.95,1222.82c-74.18-59.02-156.59-26.2-213.28,70.07,77.59,39.87,189.12,30.79,213.28-70.07Z"/>
          <path class="cls-6" d="M82.39,1285.58c-1,0-1.95-.61-2.33-1.59-.5-1.29.14-2.74,1.43-3.24,30.97-12.02,73.44-24.67,110.9-35.83,30.81-9.17,59.91-17.84,76.65-24.42,1.29-.5,2.74.13,3.24,1.41.51,1.29-.13,2.74-1.41,3.24-16.94,6.66-46.14,15.36-77.05,24.56-37.37,11.13-79.73,23.75-110.52,35.7-.3.11-.6.17-.9.17Z"/>
        </g>
        <path class="cls-18" d="M1255.95,670.63c-25.15,93.05,38.68,156.78,151.32,170.94,5.92-88.52-47.5-189.01-151.32-170.94Z"/>
        <g>
          <path class="cls-18" d="M1220.45,603.17c-30.26-12.63-57.12-60.19-48.37-91.21,8.75-31.02,39.37-30.9,39.44-49.01.07-18.12-27.2-45.5-16.55-67.79,18.92-39.61,77.63,2.68,94.57-25.07,16.93-27.75-17.27-49.24-5.51-77.66,11.76-28.42,58.19,9.29,84.83-17.13,26.63-26.42,93.39-72.19,115.18-30.49,17.23,32.96-29.78,36.34-32.45,52.17-3.04,18.06,19.4,24.66,11.69,43.83-10.9,27.08-49.04,20.73-54.31,44.43-5.27,23.7,24.01,36.76,1.27,59.32-28.15,27.92-70.02-18.61-86.18,30.93-16.16,49.54,50.65,42.81,44.99,74.8-6.18,34.91-67.65,17.05-66.16,41.14,2.03,32.79-35.5,31.35-82.44,11.75Z"/>
          <path class="cls-6" d="M1212.7,601.64c-.21,0-.42-.03-.63-.08-1.34-.34-2.14-1.71-1.8-3.04.59-2.28.54-6.07.48-10.45-.13-10.5-.32-24.89,8.55-33.68,4.53-4.49,9.78-8.32,14.85-12.03,8.23-6.01,16.75-12.22,22.44-21.44,11.77-19.04,11.25-37.07,10.79-52.97-.35-12.19-.69-23.7,4.73-33.48,5.06-9.14,12.29-10.38,19.93-11.69,7.04-1.21,14.32-2.45,21.85-9.93,7.22-7.16,7.9-12.2,8.68-18.03.91-6.76,1.94-14.42,13.06-25.45,9.52-9.44,17.25-10.69,24.72-11.9,7.12-1.15,13.85-2.24,22.84-10.36,17.53-15.82,20.85-32.77,23.28-45.15,1.59-8.09,2.84-14.48,7.23-18.42,9.97-8.93,19.61-4.73,20.02-4.54,1.26.57,1.82,2.05,1.25,3.31-.57,1.26-2.05,1.81-3.31,1.25-.27-.12-7.16-2.98-14.62,3.71-3.14,2.81-4.26,8.48-5.66,15.65-2.56,13.07-6.07,30.96-24.83,47.9-10.09,9.11-18.22,10.42-25.39,11.59-7.31,1.18-13.62,2.2-22,10.52-9.91,9.83-10.74,16.02-11.62,22.56-.83,6.17-1.69,12.56-10.12,20.92-8.65,8.59-17.46,10.09-24.53,11.3-7.26,1.24-12.5,2.14-16.4,9.18-4.75,8.58-4.45,18.93-4.11,30.92.48,16.6,1.02,35.42-11.54,55.74-6.21,10.05-15.13,16.56-23.75,22.85-5.15,3.76-10.02,7.31-14.28,11.54-7.36,7.3-7.2,19.93-7.07,30.07.06,4.74.11,8.84-.64,11.77-.29,1.13-1.31,1.88-2.42,1.88Z"/>
        </g>
        <g>
          <path class="cls-2" d="M1218.46,613.91c43.49,118.53,159.96,138.39,291.12,68.33-60.63-99.13-193.77-166.18-291.12-68.33Z"/>
          <path class="cls-6" d="M1473.54,678.04c-.15,0-.3-.01-.44-.04-43.53-7.81-100.56-22.89-150.89-36.2-41.42-10.95-80.53-21.29-104.18-25.43-1.36-.24-2.27-1.53-2.03-2.89.24-1.36,1.51-2.28,2.9-2.03,23.85,4.18,63.07,14.55,104.59,25.52,50.23,13.28,107.17,28.34,150.49,36.11,1.36.24,2.26,1.54,2.02,2.9-.22,1.21-1.27,2.06-2.46,2.06Z"/>
        </g>
      </g>
      <g id="Paper_documents" data-name="Paper documents">
        <g>
          <path class="cls-4" d="M460.75,1225.25c-16.32,12.59-114.69,88.44-130.16,100.36-36.99-28.32-75.82-71.98-99.84-173.4,21.05-16.23,109.8-84.67,130.16-100.36,4.43,97.62,54.81,145.58,99.84,173.4Z"/>
          <path class="cls-12" d="M260.59,1178.97l71.73-55.31c-1.42-7.25-2.56-14.83-3.37-22.78l-74.32,57.31c1.91,7.23,3.89,14.17,5.96,20.78Z"/>
          <path class="cls-12" d="M386.08,1187.56l-89.56,69.06c1.21,1.82,2.43,3.6,3.66,5.34l89.96-69.37c-1.37-1.64-2.73-3.31-4.07-5.02ZM377.53,1175.62l-88.82,68.49c1.11,1.9,2.23,3.75,3.36,5.57l89.12-68.72c-1.24-1.74-2.46-3.52-3.66-5.34ZM405.92,1209.29l-91.59,70.62c1.44,1.65,2.89,3.25,4.34,4.81l92.1-71.02c-1.63-1.44-3.25-2.9-4.85-4.42ZM417.16,1219.14l-92.78,71.54c1.56,1.56,3.13,3.06,4.69,4.54l93.29-71.94c-1.74-1.34-3.48-2.73-5.21-4.14ZM395.57,1198.76l-90.51,69.79c1.32,1.74,2.66,3.43,3.99,5.08l90.98-70.15c-1.5-1.54-2.99-3.11-4.46-4.72ZM369.91,1162.99l-88.35,68.13c1.02,1.97,2.04,3.9,3.07,5.79l88.53-68.26c-1.1-1.85-2.19-3.74-3.24-5.66ZM352.76,1120.65l-89.13,68.73c.77,2.16,1.55,4.27,2.34,6.36l88.77-68.45c-.68-2.18-1.34-4.39-1.97-6.64ZM357.49,1135.52l-88.43,68.19c.85,2.1,1.7,4.15,2.56,6.18l88.27-68.07c-.83-2.07-1.63-4.17-2.4-6.31ZM363.21,1149.63l-88.2,68.01c.93,2.04,1.86,4.03,2.81,5.99l88.21-68.02c-.97-1.96-1.91-3.95-2.82-5.98Z"/>
        </g>
        <g>
          <path class="cls-4" d="M1302.01,156.59c-9.52,14.72-66.89,103.44-75.91,117.39-51.15-7.27-128.73-25.23-183.69-99.54,12.28-18.98,64.04-99.03,75.91-117.39,51.81,75.92,134.36,94.16,183.69,99.54Z"/>
          <path class="cls-12" d="M1153.86,107.29l-66.88,103.42c2.04,1.66,4.1,3.27,6.16,4.84l66.85-103.37c-2.06-1.58-4.1-3.21-6.13-4.89ZM1140.04,94.81l-67,103.61c1.92,1.84,3.86,3.64,5.81,5.38l66.94-103.51c-1.94-1.78-3.85-3.6-5.75-5.48ZM1168.54,118.43l-66.82,103.33c2.16,1.48,4.32,2.93,6.5,4.32l66.81-103.31c-2.17-1.39-4.34-2.84-6.49-4.33ZM1200.4,136.86l-66.84,103.35c2.39,1.15,4.77,2.24,7.15,3.3l66.85-103.38c-2.39-1.05-4.78-2.13-7.17-3.28ZM1184.07,128.25l-66.81,103.31c2.27,1.31,4.55,2.58,6.83,3.8l66.82-103.32c-2.28-1.22-4.56-2.48-6.84-3.79ZM1235.36,150.48l-66.97,103.56c2.6.83,5.18,1.64,7.75,2.39l67.01-103.63c-2.58-.72-5.18-1.5-7.79-2.32ZM1253.93,155.61l-67.09,103.74c2.71.69,5.38,1.33,8.03,1.94l67.15-103.83c-2.66-.57-5.36-1.19-8.09-1.85ZM1217.51,144.24l-66.89,103.44c2.49.99,4.97,1.95,7.45,2.85l66.92-103.49c-2.48-.88-4.98-1.82-7.48-2.8Z"/>
        </g>
        <g>
          <path class="cls-4" d="M1254.46,892.93c15,5.31,105.41,37.33,119.62,42.37,4.33,46.7,4.78,118.99-49.3,183.15-19.34-6.85-100.91-35.74-119.62-42.37,56.16-61.71,54.92-138.45,49.3-183.15Z"/>
          <path class="cls-12" d="M1242.06,1034.13l105.39,37.33c1.04-2.15,2.03-4.31,2.98-6.46l-105.34-37.31c-.96,2.15-1.97,4.3-3.03,6.44ZM1233.94,1048.96l105.59,37.4c1.22-2.08,2.4-4.17,3.53-6.26l-105.49-37.36c-1.16,2.08-2.37,4.16-3.63,6.23ZM1248.81,1018.82l105.3,37.29c.86-2.22,1.68-4.43,2.45-6.64l-105.28-37.29c-.77,2.21-1.6,4.43-2.46,6.64ZM1258.39,986.82l105.32,37.3c.51-2.35.98-4.68,1.41-7.01l-105.35-37.31c-.42,2.33-.88,4.67-1.39,7.02ZM1254.22,1003.04l105.28,37.29c.68-2.28,1.32-4.56,1.92-6.83l-105.29-37.29c-.6,2.27-1.23,4.55-1.91,6.83ZM1263.07,953.08l105.53,37.38c.19-2.47.36-4.92.48-7.34l-105.6-37.4c-.1,2.43-.24,4.89-.41,7.37ZM1263.7,935.6l105.72,37.44c.04-2.54.05-5.04.02-7.5l-105.81-37.48c.06,2.47.08,4.99.07,7.54ZM1261.31,970.15l105.41,37.33c.35-2.41.67-4.8.95-7.18l-105.46-37.35c-.26,2.38-.56,4.78-.9,7.19Z"/>
        </g>
        <g>
          <path class="cls-4" d="M375.4,558.41c-29.89-10.45-210.05-73.39-238.37-83.29,61.36-51.81,170.94-179.05,185.37-266.53,38.55,13.47,201.09,70.26,238.37,83.29-22.54,90.03-134.53,222.07-185.37,266.53Z"/>
          <path class="cls-26" d="M367.96,259.16c-4.25,11.83-9.71,24.07-16.14,36.51l130.08,45.45c6.67-12.28,12.53-24.37,17.37-36.08l-131.31-45.88Z"/>
          <path class="cls-21" d="M237.16,397.73l200.23,69.96c1.45-1.78,2.89-3.56,4.34-5.37l-200.15-69.94c-1.47,1.79-2.95,3.58-4.42,5.34ZM223.97,413.07l200.6,70.09c1.49-1.76,2.97-3.53,4.47-5.33l-200.47-70.05c-1.54,1.78-3.07,3.53-4.6,5.28ZM196.15,443.25l201.52,70.41c1.58-1.71,3.17-3.45,4.78-5.22l-201.32-70.35c-1.67,1.75-3.32,3.45-4.97,5.15ZM181.39,458.04l202.04,70.6c1.64-1.68,3.29-3.39,4.98-5.15l-201.85-70.53c-1.74,1.73-3.46,3.41-5.18,5.08ZM249.85,382.21l199.96,69.87c1.4-1.8,2.8-3.6,4.2-5.42l-199.89-69.84c-1.42,1.81-2.84,3.61-4.27,5.4ZM210.32,428.25l201.03,70.24c1.53-1.73,3.07-3.5,4.61-5.28l-200.86-70.18c-1.6,1.77-3.19,3.49-4.79,5.22ZM262.06,366.53l199.76,69.8c1.35-1.81,2.69-3.65,4.03-5.48l-199.68-69.77c-1.36,1.83-2.74,3.64-4.12,5.45ZM308.9,296.21c-1.07,1.91-2.2,3.82-3.31,5.73l199.78,69.81c1.14-1.91,2.26-3.81,3.36-5.71l-199.83-69.82ZM273.8,350.68l199.61,69.75c1.31-1.84,2.61-3.68,3.9-5.52l-199.58-69.74c-1.3,1.84-2.61,3.68-3.93,5.51ZM295.62,318.41l199.63,69.75c1.2-1.88,2.37-3.77,3.54-5.65l-199.65-69.76c-1.16,1.89-2.34,3.77-3.53,5.66ZM285.01,334.65l199.55,69.73c1.26-1.86,2.52-3.71,3.76-5.58l-199.59-69.74c-1.23,1.86-2.46,3.73-3.72,5.59Z"/>
        </g>
      </g>
      <g id="Calcuator">
        <g>
          <path class="cls-6" d="M1189.69,307.56c-16.01-7.75-23.28-10.78-35.07-13.45l101.8,664.38c14.25-8.34,15.68-10.71,28.69-22.84,8.91-8.31,13.43-21.72,11.2-36.44l-85.1-560.19c-2.23-14.71-10.53-26.15-21.51-31.47Z"/>
          <path class="cls-7" d="M1241.16,963.5l-468.69,71.2c-23.07,3.5-44.23-9.85-47.27-29.83l-90.71-597.12c-3.03-19.98,13.21-39.02,36.28-42.52l468.69-71.2c23.07-3.5,44.24,9.85,47.27,29.83l90.71,597.12c3.04,19.98-13.21,39.02-36.28,42.52Z"/>
          <rect class="cls-3" x="643.1" y="379.6" width="558.58" height="127.51" transform="translate(-56.13 143.56) rotate(-8.64)"/>
          <path class="cls-24" d="M846.45,986.11l-67.76,10.29c-6.08.93-11.76-3.26-12.69-9.34l-10.29-67.76c-.92-6.08,3.26-11.76,9.34-12.69l67.76-10.29c6.08-.92,11.76,3.26,12.69,9.34l10.29,67.76c.92,6.08-3.26,11.76-9.34,12.69Z"/>
          <path class="cls-24" d="M973.76,966.77l-67.76,10.29c-6.08.93-11.76-3.26-12.69-9.34l-10.29-67.76c-.92-6.08,3.26-11.76,9.34-12.69l67.76-10.29c6.08-.92,11.76,3.26,12.69,9.34l10.29,67.76c.92,6.08-3.26,11.76-9.34,12.69Z"/>
          <path class="cls-24" d="M1101.08,947.43l-67.76,10.29c-6.08.92-11.76-3.26-12.69-9.34l-10.29-67.76c-.93-6.08,3.26-11.76,9.34-12.69l67.76-10.29c6.08-.92,11.76,3.26,12.69,9.34l10.29,67.76c.92,6.08-3.26,11.76-9.34,12.69Z"/>
          <path class="cls-24" d="M1228.39,928.08l-67.76,10.29c-6.08.92-11.76-3.26-12.69-9.34l-10.29-67.76c-.92-6.08,3.26-11.76,9.34-12.69l67.76-10.29c6.08-.92,11.76,3.26,12.69,9.34l10.29,67.76c.92,6.08-3.26,11.76-9.34,12.69Z"/>
          <path class="cls-24" d="M827.66,862.43l-67.76,10.29c-6.08.92-11.76-3.26-12.69-9.34l-10.29-67.76c-.93-6.08,3.26-11.76,9.34-12.69l67.76-10.29c6.08-.92,11.76,3.26,12.69,9.34l10.29,67.76c.92,6.08-3.26,11.76-9.34,12.69Z"/>
          <path class="cls-24" d="M954.97,843.09l-67.76,10.29c-6.08.92-11.76-3.26-12.69-9.34l-10.29-67.75c-.92-6.08,3.26-11.76,9.34-12.69l67.76-10.29c6.08-.92,11.76,3.26,12.69,9.34l10.29,67.76c.93,6.08-3.26,11.76-9.34,12.69Z"/>
          <path class="cls-24" d="M1082.29,823.75l-67.76,10.29c-6.08.92-11.76-3.26-12.69-9.34l-10.29-67.76c-.92-6.08,3.26-11.76,9.34-12.69l67.76-10.29c6.08-.92,11.76,3.26,12.69,9.34l10.29,67.76c.92,6.08-3.26,11.76-9.34,12.69Z"/>
          <path class="cls-24" d="M1209.61,804.41l-67.76,10.29c-6.08.92-11.76-3.26-12.69-9.34l-10.29-67.76c-.92-6.08,3.26-11.76,9.34-12.69l67.76-10.29c6.08-.92,11.76,3.26,12.69,9.34l10.29,67.76c.92,6.08-3.26,11.76-9.34,12.69Z"/>
          <path class="cls-24" d="M808.87,738.76l-67.76,10.29c-6.08.92-11.76-3.26-12.69-9.34l-10.29-67.76c-.92-6.08,3.26-11.76,9.34-12.69l67.76-10.29c6.08-.92,11.76,3.26,12.69,9.34l10.29,67.76c.92,6.08-3.26,11.76-9.34,12.69Z"/>
          <path class="cls-24" d="M936.19,719.42l-67.76,10.29c-6.08.92-11.76-3.26-12.69-9.34l-10.29-67.76c-.92-6.08,3.26-11.76,9.34-12.69l67.76-10.29c6.08-.92,11.76,3.26,12.69,9.34l10.29,67.76c.92,6.08-3.26,11.76-9.34,12.69Z"/>
          <path class="cls-24" d="M1063.5,700.08l-67.76,10.29c-6.08.92-11.76-3.26-12.69-9.34l-10.29-67.76c-.92-6.08,3.26-11.76,9.34-12.69l67.76-10.29c6.08-.92,11.76,3.26,12.69,9.34l10.29,67.76c.92,6.08-3.26,11.76-9.34,12.69Z"/>
          <path class="cls-13" d="M1190.82,680.73l-67.76,10.29c-6.08.92-11.76-3.26-12.69-9.34l-10.29-67.76c-.92-6.08,3.26-11.76,9.34-12.69l67.76-10.29c6.08-.92,11.76,3.26,12.69,9.34l10.29,67.76c.92,6.08-3.26,11.76-9.34,12.69Z"/>
          <path class="cls-24" d="M790.37,616.98l-67.76,10.29c-6.08.92-11.76-3.26-12.69-9.34l-5.37-35.38c-.93-6.08,3.26-11.76,9.34-12.69l67.76-10.29c6.08-.92,11.76,3.26,12.69,9.34l5.38,35.38c.92,6.08-3.26,11.76-9.34,12.69Z"/>
          <path class="cls-24" d="M917.69,597.64l-67.76,10.29c-6.08.92-11.76-3.26-12.69-9.34l-5.37-35.38c-.93-6.08,3.26-11.76,9.34-12.69l67.76-10.29c6.08-.93,11.76,3.26,12.69,9.34l5.37,35.38c.92,6.08-3.26,11.76-9.34,12.69Z"/>
          <path class="cls-24" d="M1045,578.3l-67.76,10.29c-6.08.92-11.76-3.26-12.69-9.34l-5.37-35.38c-.92-6.08,3.26-11.76,9.34-12.69l67.76-10.29c6.08-.92,11.76,3.26,12.69,9.34l5.37,35.38c.92,6.08-3.26,11.76-9.34,12.69Z"/>
          <path class="cls-24" d="M1172.32,558.96l-67.76,10.29c-6.08.92-11.76-3.26-12.69-9.34l-5.37-35.38c-.92-6.08,3.26-11.76,9.34-12.69l67.76-10.29c6.08-.92,11.76,3.26,12.69,9.34l5.37,35.38c.92,6.08-3.26,11.76-9.34,12.69Z"/>
        </g>
        <g>
          <polygon class="cls-21" points="983.19 395.46 977.95 402.58 982 429.28 989.12 434.52 994.36 427.4 990.31 400.7 983.19 395.46"/>
          <polygon class="cls-21" points="941.18 401.84 948.3 407.08 952.35 433.78 947.11 440.9 939.99 435.66 935.94 408.96 941.18 401.84"/>
          <polygon class="cls-21" points="989.57 437.47 984.33 444.59 988.38 471.28 995.5 476.53 1000.74 469.41 996.69 442.71 989.57 437.47"/>
          <polygon class="cls-21" points="981.32 394.08 974.2 388.84 947.5 392.9 942.26 400.02 949.38 405.26 976.07 401.2 981.32 394.08"/>
          <polygon class="cls-21" points="987.7 436.09 980.58 430.85 953.88 434.9 948.64 442.02 955.76 447.26 982.45 443.21 987.7 436.09"/>
        </g>
        <g>
          <polygon class="cls-21" points="1061.91 383.5 1056.66 390.62 1060.72 417.32 1067.84 422.56 1073.08 415.44 1069.03 388.74 1061.91 383.5"/>
          <polygon class="cls-21" points="1019.9 389.88 1027.02 395.13 1031.07 421.82 1025.83 428.94 1018.71 423.7 1014.66 397 1019.9 389.88"/>
          <polygon class="cls-21" points="1068.29 425.51 1063.05 432.63 1067.1 459.33 1074.22 464.57 1079.46 457.45 1075.41 430.75 1068.29 425.51"/>
          <polygon class="cls-21" points="1026.28 431.89 1021.04 439.01 1025.1 465.71 1032.21 470.95 1037.46 463.83 1033.4 437.13 1026.28 431.89"/>
          <polygon class="cls-21" points="1060.03 382.12 1052.92 376.88 1026.22 380.94 1020.98 388.06 1028.1 393.3 1054.79 389.24 1060.03 382.12"/>
          <polygon class="cls-21" points="1072.8 466.14 1067.56 473.26 1040.86 477.31 1033.74 472.07 1038.98 464.95 1065.68 460.9 1072.8 466.14"/>
          <polygon class="cls-21" points="1066.42 424.13 1059.3 418.89 1032.6 422.95 1027.36 430.06 1034.48 435.31 1061.17 431.25 1066.42 424.13"/>
        </g>
        <g>
          <polygon class="cls-21" points="1133.58 372.61 1128.33 379.73 1132.39 406.43 1139.51 411.67 1144.75 404.55 1140.7 377.86 1133.58 372.61"/>
          <polygon class="cls-21" points="1139.96 414.62 1134.72 421.74 1138.77 448.44 1145.89 453.68 1151.13 446.56 1147.08 419.86 1139.96 414.62"/>
          <polygon class="cls-21" points="1131.7 371.24 1124.58 365.99 1097.89 370.05 1092.65 377.17 1099.77 382.41 1126.46 378.36 1131.7 371.24"/>
        </g>
        <g class="cls-10">
          <path class="cls-19" d="M772.16,673.78l7.75,50.98-7.21,1.1-6.78-44.65-11.51,1.75-.96-6.33,18.72-2.84Z"/>
          <path class="cls-19" d="M916.1,697.88l.96,6.33-36.63,5.57-.75-4.95,17.71-23.18c2.16-2.81,3.53-5.17,4.14-7.07.6-1.9.77-3.75.5-5.55-.41-2.67-1.66-4.6-3.75-5.8-2.09-1.2-4.89-1.53-8.39-1-5.63.86-9.69,3.36-12.19,7.51l-5.61-3.54c1.62-2.73,3.94-5.02,6.97-6.87,3.02-1.85,6.52-3.08,10.51-3.68,5.34-.81,9.78-.18,13.32,1.89,3.55,2.07,5.65,5.29,6.31,9.66.41,2.72.22,5.38-.58,7.99-.8,2.61-2.59,5.7-5.36,9.31l-13.31,17.37,26.15-3.97Z"/>
          <path class="cls-19" d="M1036.42,659.97c3.02,2.2,4.83,5.32,5.45,9.35.44,2.91.11,5.66-.99,8.23-1.1,2.57-2.98,4.78-5.67,6.6-2.68,1.83-6.1,3.05-10.28,3.68-3.64.55-7.22.54-10.73-.04-3.51-.58-6.49-1.68-8.92-3.3l2.48-6.26c2,1.39,4.43,2.37,7.3,2.95,2.87.58,5.83.64,8.89.18,3.79-.57,6.62-1.82,8.48-3.75,1.87-1.92,2.59-4.29,2.16-7.11-.43-2.81-1.8-4.84-4.12-6.08-2.33-1.23-5.6-1.53-9.82-.89l-4.08.62-.77-5.1,10.43-17.68-24.54,3.73-.96-6.34,33.65-5.11.75,4.95-10.83,18.48c5.08-.27,9.12.69,12.13,2.89Z"/>
          <path class="cls-19" d="M809.97,833.9l-9.68,1.47,1.9,12.53-7.06,1.07-1.9-12.53-28.33,4.3-.78-5.1,21-37.32,7.87-1.2-20.09,35.99,19.59-2.98-1.68-11.07,6.85-1.04,1.68,11.07,9.68-1.47.95,6.26Z"/>
          <path class="cls-19" d="M926.44,801.57c3.84,2.22,6.12,5.72,6.84,10.48.46,3.01.15,5.82-.91,8.45-1.07,2.62-2.94,4.84-5.62,6.66-2.68,1.82-6.13,3.05-10.35,3.69-3.59.54-7.15.53-10.66-.05-3.52-.58-6.51-1.68-9-3.29l2.48-6.26c2,1.39,4.43,2.37,7.31,2.95,2.86.58,5.81.65,8.82.19,3.83-.58,6.69-1.85,8.55-3.8,1.86-1.94,2.58-4.33,2.15-7.14-.46-3.06-1.98-5.21-4.55-6.43-2.57-1.22-6.67-1.4-12.31-.55l-11.57,1.76-1.36-27.07,28.77-4.37.96,6.33-22.65,3.44.74,14.2,5.68-.86c7.28-1.11,12.84-.55,16.69,1.67Z"/>
          <path class="cls-19" d="M1050.8,780.4c2.84.86,5.19,2.35,7.05,4.48,1.86,2.12,3.03,4.72,3.49,7.78.49,3.2.13,6.14-1.08,8.81-1.21,2.67-3.08,4.88-5.63,6.63-2.54,1.76-5.51,2.89-8.91,3.4-6.84,1.04-12.45-.36-16.84-4.22-4.39-3.85-7.19-9.83-8.42-17.94-.86-5.68-.59-10.68.81-14.99,1.41-4.31,3.76-7.77,7.06-10.39,3.3-2.61,7.36-4.28,12.17-5.01,2.48-.38,4.84-.48,7.11-.3,2.26.18,4.27.63,6.01,1.36l-1.91,6.1c-2.67-1.23-6.04-1.54-10.12-.92-5.29.8-9.2,3.07-11.71,6.81-2.51,3.73-3.29,8.73-2.34,15,.12.78.23,1.38.35,1.81,1.13-2.41,2.88-4.37,5.25-5.9,2.38-1.53,5.16-2.53,8.37-3.02,3.35-.51,6.44-.34,9.28.52ZM1052.29,801.71c1.81-2.11,2.49-4.67,2.03-7.68-.46-3.01-1.88-5.24-4.26-6.69-2.38-1.45-5.34-1.91-8.88-1.37-2.28.35-4.24,1.09-5.88,2.23-1.64,1.15-2.85,2.54-3.61,4.2-.77,1.66-1,3.41-.72,5.25.27,1.8.99,3.37,2.16,4.7,1.17,1.34,2.73,2.31,4.7,2.94,1.96.62,4.19.74,6.72.36,3.35-.51,5.93-1.82,7.75-3.94Z"/>
          <path class="cls-19" d="M819.6,919.63l.75,4.95-13.62,49.16-7.72,1.17,13.39-47.71-23.3,3.54,1.38,9.1-6.99,1.06-2.35-15.44,38.45-5.84Z"/>
          <path class="cls-19" d="M950.02,929.54c1.87,1.86,3.03,4.23,3.47,7.15.46,3.06.04,5.85-1.27,8.35-1.31,2.5-3.4,4.6-6.27,6.28-2.87,1.68-6.37,2.83-10.5,3.46-4.08.62-7.73.56-10.95-.2-3.22-.75-5.82-2.13-7.82-4.14-1.99-2.01-3.22-4.54-3.68-7.6-.44-2.92-.06-5.53,1.15-7.85,1.21-2.32,3.19-4.26,5.93-5.82-2.5-.76-4.5-1.97-5.99-3.63-1.5-1.66-2.43-3.75-2.81-6.28-.43-2.81-.04-5.39,1.18-7.7,1.21-2.32,3.11-4.25,5.71-5.78,2.6-1.54,5.72-2.59,9.36-3.14,3.69-.56,7.02-.5,9.98.2,2.96.69,5.36,1.97,7.21,3.82,1.85,1.85,2.98,4.19,3.41,7.01.38,2.48.08,4.74-.87,6.8-.96,2.06-2.51,3.82-4.67,5.29,3.09.68,5.56,1.94,7.43,3.79ZM943.71,944.92c2.07-2.03,2.9-4.47,2.46-7.34-.43-2.81-1.93-4.86-4.51-6.13-2.58-1.27-5.88-1.6-9.91-.99-4.03.61-7.06,1.9-9.09,3.88-2.04,1.97-2.84,4.37-2.41,7.18.44,2.87,1.92,4.96,4.46,6.29,2.54,1.33,5.82,1.69,9.85,1.07,4.03-.61,7.09-1.93,9.16-3.96ZM920.6,911.99c-1.77,1.78-2.46,3.94-2.07,6.46.38,2.53,1.67,4.37,3.86,5.53,2.19,1.15,5.03,1.47,8.52.94,3.54-.54,6.21-1.69,8.01-3.45,1.79-1.76,2.5-3.91,2.11-6.43-.38-2.52-1.72-4.37-4.01-5.54-2.29-1.17-5.16-1.49-8.61-.97-3.44.52-6.05,1.68-7.82,3.46Z"/>
          <path class="cls-19" d="M1070.05,887.76c4.39,3.86,7.19,9.84,8.43,17.95.86,5.68.59,10.67-.82,14.99-1.41,4.31-3.76,7.77-7.06,10.39-3.31,2.61-7.36,4.28-12.17,5.01-2.48.38-4.85.48-7.11.3-2.26-.18-4.27-.63-6.02-1.36l1.91-6.1c2.72,1.22,6.12,1.53,10.2.91,5.29-.8,9.19-3.07,11.67-6.8,2.49-3.73,3.26-8.73,2.31-14.99l-.28-1.83c-1.13,2.41-2.89,4.38-5.29,5.91-2.4,1.53-5.2,2.54-8.4,3.03-3.35.51-6.44.33-9.28-.53-2.84-.86-5.17-2.35-7.01-4.48-1.84-2.13-2.99-4.72-3.46-7.78-.49-3.21-.13-6.14,1.08-8.81,1.21-2.66,3.07-4.87,5.59-6.62,2.52-1.75,5.47-2.88,8.87-3.4,6.85-1.04,12.46.37,16.85,4.22ZM1063.68,906.84c1.66-1.14,2.88-2.55,3.65-4.2.76-1.66,1-3.4.72-5.25-.27-1.8-.99-3.36-2.16-4.7-1.17-1.34-2.73-2.32-4.7-2.94-1.96-.62-4.22-.74-6.8-.35-3.35.51-5.92,1.82-7.71,3.93-1.79,2.11-2.46,4.67-2,7.68.46,3.01,1.86,5.24,4.22,6.7,2.36,1.45,5.31,1.91,8.86,1.37,2.28-.35,4.25-1.09,5.92-2.24Z"/>
          <path class="cls-19" d="M1178.98,914.62c-3.45-1.59-6.37-4.21-8.76-7.87-2.39-3.66-4-8.18-4.81-13.57-.82-5.39-.63-10.19.57-14.39,1.2-4.21,3.21-7.58,6.03-10.12,2.82-2.54,6.24-4.11,10.27-4.73,3.98-.6,7.7-.11,11.14,1.47,3.45,1.59,6.36,4.21,8.76,7.87,2.39,3.66,4,8.18,4.81,13.57.82,5.39.63,10.19-.57,14.39-1.2,4.21-3.21,7.58-6.03,10.12-2.82,2.54-6.22,4.11-10.2,4.71-4.03.61-7.77.13-11.21-1.46ZM1198.24,903.09c1.94-3.72,2.43-8.77,1.46-15.13-.97-6.36-2.93-11.03-5.89-14-2.96-2.98-6.48-4.16-10.56-3.54-4.12.63-7.16,2.8-9.1,6.52-1.95,3.72-2.43,8.76-1.46,15.12.97,6.36,2.93,11.03,5.89,14.01,2.96,2.98,6.51,4.15,10.63,3.53,4.08-.62,7.09-2.79,9.03-6.51Z"/>
          <path class="cls-19" d="M766.04,596.37l-12.08,1.83,1.8,11.88-5.57.85-1.81-11.88-12.08,1.84-.8-5.24,12.08-1.84-1.82-11.95,5.57-.85,1.82,11.95,12.08-1.84.8,5.24Z"/>
          <path class="cls-19" d="M1015.91,568.37l-9.84-7.24-7.12,9.67-4.54-3.34,7.12-9.67-9.84-7.25,3.15-4.27,9.84,7.25,7.17-9.73,4.54,3.34-7.17,9.73,9.84,7.24-3.15,4.27Z"/>
          <path class="cls-19" d="M866.02,574.83l23.03-3.5,1.08,7.1-23.03,3.5-1.08-7.11Z"/>
          <path class="cls-15" d="M1127.39,632.05l38.35-5.82,1.03,6.76-38.35,5.83-1.03-6.76ZM1130.47,652.34l38.35-5.82,1.03,6.76-38.35,5.83-1.03-6.76Z"/>
          <path class="cls-19" d="M1115.18,536.98l1.08,7.11,33.98-5.16-1.08-7.11-33.98,5.16ZM1131.38,529.2c2.68-.41,4.52-2.91,4.11-5.59-.41-2.68-2.91-4.52-5.59-4.11-2.68.41-4.52,2.91-4.11,5.59.41,2.68,2.91,4.52,5.59,4.11ZM1134.08,546.99c-2.68.41-4.52,2.91-4.11,5.59.41,2.68,2.91,4.52,5.59,4.11,2.68-.41,4.52-2.91,4.11-5.59-.41-2.68-2.91-4.52-5.59-4.11Z"/>
          <path class="cls-19" d="M1174.3,775.13c-3.07,5.04-6.61,8.85-10.62,11.46l-1.93-2.86c4.5-3.52,7.45-7.03,8.83-10.56,1.38-3.51,1.91-6.35,1.58-8.5-.11-.72-.41-1.15-.9-1.28-.5-.14-1-.16-1.51-.09l-5.08,1.32c-2.15.33-4.23-.07-6.25-1.21-2.01-1.14-3.22-3.04-3.62-5.71-.31-2.05.13-4.17,1.32-6.34,1.19-2.17,3.48-3.52,6.86-4.03,3.24-.49,6.33.34,9.28,2.49,2.95,2.15,4.77,5.49,5.46,10,.79,5.18-.35,10.29-3.42,15.32Z"/>
        </g>
      </g>
      <g id="Man">
        <path class="cls-23" d="M676,654.87c1.37-5.47-1.01-19.4,1.3-27.33,2.31-7.93,17.55-33.76,22.06-32.73,4.1.93-7.51,18.13-7.86,22.23,3.91,1.85,17.97,9.39,14.83,17.11-3.14,7.71-5.28,13.09-9.23,16.09-3.21,2.44-4.53,9.75-4.53,9.75l-16.57-5.11Z"/>
        <g>
          <path class="cls-18" d="M427.99,993.07c1.28,103.49,2.12,118.57-3.87,218.87-4.88,81.77-16.46,143.75-18.75,173.38h21.39c13.82-36.63,88.08-196.13,94.83-392.25h-93.6Z"/>
          <path class="cls-1" d="M403.59,1392.2c1.84-2.4,1.79-6.87,1.79-6.87h21.39c-1.84,5.32-2.95,9.84-2.22,12.5-4.89,1.87-12.04-2.96-20.95-5.63Z"/>
          <path class="cls-20" d="M403.59,1392.2c8.91,2.67,16.06,7.5,20.95,5.63,2.59,1.87,40.7,15.59,44.59,18.24,3.97,2.72,3.39,6.93-.82,6.93-6.14,0-56.76-2.22-56.76-2.22-1.02,1.11-1.86,2.22-1.86,2.22h-11.57c-3.45-5.97-2.52-23.92,5.46-30.8Z"/>
        </g>
        <g>
          <path class="cls-2" d="M427.99,993.07c0,94.32,61.57,98.58,102.94,190.15,28.4,62.85,34.04,185.5,35.32,202.1h18.79c10.22-44.72,40.01-215.43-18.79-392.25h-138.26Z"/>
          <path class="cls-1" d="M566.31,1392.2c-.05-3.12-.05-6.87-.05-6.87h18.79c-.7,5.32,1.49,9.84,2.21,12.5-4.88,1.87-12.04-2.96-20.95-5.63Z"/>
          <path class="cls-20" d="M566.31,1392.2c8.91,2.67,16.07,7.5,20.95,5.63,2.59,1.87,40.7,15.59,44.59,18.24,3.97,2.72,3.39,6.93-.82,6.93-6.15,0-56.76-2.22-56.76-2.22-1.02,1.11-1.86,2.22-1.86,2.22h-11.57c-3.45-5.97-2.51-23.92,5.47-30.8Z"/>
        </g>
        <g>
          <g>
            <rect class="cls-14" x="300.57" y="939.6" width="9.12" height="10.65" transform="translate(945.35 185.92) rotate(58.04)"/>
            <path class="cls-9" d="M352.15,1000.97l-35.95-57.58-8.65,5.4,41.35,66.24c4.78-2.98,6.23-9.28,3.25-14.06Z"/>
            <path class="cls-14" d="M298.89,954.19l35.95,57.58c2.98,4.78,9.28,6.23,14.06,3.25l-41.35-66.24-8.65,5.4Z"/>
          </g>
          <path class="cls-9" d="M284.68,828.6c-33.68-7.79-67.29,13.2-75.08,46.88-7.79,33.68,13.2,67.29,46.87,75.08,33.68,7.79,67.29-13.2,75.08-46.88,7.79-33.68-13.2-67.29-46.87-75.08ZM301.03,937.74c-26.6,16.82-61.79,8.89-78.61-17.71-16.82-26.6-8.89-61.79,17.71-78.61,26.6-16.82,61.8-8.89,78.61,17.71,16.82,26.6,8.89,61.8-17.71,78.61Z"/>
          <path class="cls-5" d="M277.65,833.04c12.11,3.99,22.96,12.04,30.31,23.66,16.82,26.6,8.89,61.79-17.71,78.61-11.62,7.35-24.88,9.97-37.53,8.38,15.62,5.14,33.33,3.52,48.31-5.95,26.6-16.82,34.53-52.01,17.71-78.61-9.47-14.98-24.78-24.04-41.09-26.09Z"/>
        </g>
        <path class="cls-17" d="M331.43,990.84c-3.48,1.74-10.38,5.73-15.14-3.95-4.76-9.67-13.58-14.25-7.17-16.33,6.41-2.08,13.89-13.09,14.43-15.41,1.43-.89,3.02-.73,4.66.11,1.35.7,6.72-4.51,8.03-3.09,4.01,4.34,9.17,11.75,9.8,14.96.5,2.58-5.8,6.69-6.86,12.07-1.04,5.33-5.33,10.42-7.75,11.63Z"/>
        <path class="cls-16" d="M329.28,951.45c66.56-37.47,79.53-120.2,114.32-167.44,8.96,21.59,17.29,69.51,17.29,69.51-11.46,48.75-42.14,88.19-115.05,123.67-13.33-.46-16.56-25.74-16.56-25.74Z"/>
        <path class="cls-22" d="M671.91,652.93s-26.28,66.36-42.16,88.91c-13.4,11.6-56.8,23.96-94.37,21.43-4.38-.46-12.51-1.27-13.22-1.33-20-1.57-50.63.63-50.63.63-27.02,9.6-33.07,21.85-40.18,71.56-7.11,49.72-3.36,158.94-3.36,158.94h138.26c4.75-28.96,1.36-116.14-7.93-164.11,26.11-9.57,85.55-33.49,102.31-58.34,16.79-31.63,29.32-67.15,36.96-112.22,0,0-11.65-2.41-25.68-5.48Z"/>
        <g>
          <path class="cls-1" d="M508.91,679.69c3.78,11,18.53,42.76,14.38,56.19-3.39,11.02-14.23,14.98-33.49,12.57-19.28-2.41-26.72-34.97-31.03-43.92-6.81-14.18,42.19-47.98,50.14-24.83Z"/>
          <path class="cls-1" d="M506.75,746.94c1.02,5.87,3.6,14.48,3.6,14.48-2.54,3.43-39.93,7.77-36.28,1.66,1.3-10.77.43-35.75.43-35.75l32.25,19.62Z"/>
          <path class="cls-20" d="M458.69,677.47c16.87-12.18,37.49-35.07,40.63-33.3.57.33-.35,1.84.33,2.24,1.1.64,7-14.03,15.55-10.44,8.55,3.59,9.15,29.11-6.29,43.72-15.44,14.62,3.54,22.83-3.11,30.59-6.64,7.76-1.55,29.72-14.7,32.64-13.15,2.91-19.19,12.58-20.49,4.21-1.31-8.37-12.19-23.28-14.29-37.51-2.1-14.23-6.98-25.39,2.38-32.15Z"/>
          <path class="cls-17" d="M500.62,706.73c-.83-3.29.2-6.39,2.31-6.93,2.11-.53,4.51,1.69,5.34,4.98.84,3.28-.19,6.38-2.31,6.92-2.11.54-4.5-1.69-5.34-4.97Z"/>
        </g>
        <path class="cls-16" d="M566.26,993.07c4.75-28.96,1.36-116.14-7.93-164.11,25.26-9.26,81.72-31.95,100.54-55.92h0c-5.45,7.84-73.32,44.57-111.47,47.24-38.16,2.67-.53,15.69,3.2,36.66,3.74,20.97,7.29,80.41,1.96,136.12h13.71Z"/>
      </g>
      <g id="Secondary_shapes" data-name="Secondary shapes">
        <path class="cls-27" d="M1429.03,1202.54l-22.89-9.09c-1.79-.71-3.82-.42-5.33.78l-19.32,15.27c-1.51,1.2-2.27,3.11-1.99,5.01l3.57,24.37c.28,1.9,1.55,3.52,3.34,4.23l22.88,9.1c1.79.71,3.82.41,5.33-.78l19.32-15.27c1.51-1.19,2.27-3.1,1.99-5.01l-3.57-24.37c-.28-1.9-1.55-3.52-3.34-4.23Z"/>
        <path class="cls-21" d="M1.3,1004.03l27.05,35.35c2.93,3.83,8.9,3.05,10.75-1.4l17.09-41.09c1.85-4.45-1.81-9.24-6.59-8.61l-44.14,5.75c-4.78.62-7.09,6.18-4.16,10.01Z"/>
        <path class="cls-22" d="M933.35.82l-38.74,21.91c-4.2,2.37-4.25,8.4-.1,10.84l38.34,22.59c4.16,2.45,9.4-.52,9.44-5.34l.39-44.5c.04-4.82-5.15-7.88-9.34-5.51Z"/>
      </g>
    </g>
  </g>
</svg>