<?xml version="1.0" encoding="UTF-8"?>
<svg id="Layer_2" xmlns="http://www.w3.org/2000/svg" version="1.1" viewBox="0 0 561.3 528.1">
  <!-- Generator: Adobe Illustrator 29.0.1, SVG Export Plug-In . SVG Version: 2.1.0 Build 192)  -->
  <defs>
    <style>
      .st0 {
        fill: #6a6ae2;
      }

      .st1 {
        fill: #5555c6;
      }

      .st2 {
        fill: #f7f7fc;
      }

      .st3 {
        fill: #1b1748;
      }

      .st4 {
        fill: #f7d25c;
      }

      .st5 {
        fill: #bdc1e4;
      }

      .st6 {
        fill: #4141aa;
      }

      .st7 {
        fill: #34318f;
      }

      .st8 {
        fill: #ebcec3;
      }

      .st9 {
        fill: #1e1c6b;
      }

      .st10 {
        fill: none;
        stroke: #f2bd42;
        stroke-linecap: round;
        stroke-linejoin: round;
        stroke-width: 2px;
      }

      .st11 {
        fill: #d6952d;
      }

      .st12 {
        fill: #fff;
      }

      .st13 {
        fill: #e2a334;
      }

      .st14 {
        fill: #d18f2f;
      }

      .st15 {
        fill: #ebeef7;
      }

      .st16 {
        fill: #f2bd42;
      }

      .st17 {
        fill: #d0d4f6;
      }

      .st18 {
        fill: #dfe3f7;
      }

      .st19 {
        fill: #7f7ff4;
      }
    </style>
  </defs>
  <g id="Shadow">
    <ellipse class="st15" cx="229.9" cy="463.5" rx="221.5" ry="14.2"/>
  </g>
  <g id="Plants">
    <g>
      <path class="st6" d="M334.8,163c8.1-8.7,20.8-36.9,1.7-54.6-8.7-8-11.4-9.6-16.1-9.2-3.1.3-5.5,2.1-7.6.3-3.9-3.2,8.3-17.7-4.6-30.8s-24.3-6.2-27.7-9.8c-3.4-3.6.3-10.4-7.7-14.2-8-3.7-14.3,9.2-25.2,5.8-11.3-3.5-31.4-5.2-34.7,5.5-3.4,10.7,5.5,13,8.1,20.3,2.6,7.2-4.5,28.3,12.2,33.5,16.6,5.2,23.5,4.7,24.8,26.4,1.2,21.7,20.1,32.7,30.7,31.1,10.5-1.6,7.7,3.9,2.1,6.8-5.5,2.9,2.8,7.8,10.5,7.1,7.8-.7,23.5-7.3,33.6-18.2h0Z"/>
      <path class="st1" d="M337.8,169.2c-.4,0-.7-.2-.9-.6-25.7-53.1-71.6-88.3-105.9-103.6-.5-.2-.7-.8-.5-1.3.2-.5.8-.7,1.3-.5,34.7,15.4,81,51,106.9,104.6.2.5,0,1.1-.5,1.3-.1,0-.3.1-.4.1h0Z"/>
      <path class="st1" d="M260.1,81.1h0c-.5,0-1-.5-1-1,0-2.9,1.9-14.7,5.7-20.9.3-.5.9-.6,1.4-.3s.6.9.3,1.4c-3.5,5.8-5.4,17.2-5.4,19.9,0,.5-.5,1-1,1h0Z"/>
      <path class="st1" d="M237,83.9c-.3,0-.6-.1-.8-.4-.3-.4-.2-1.1.2-1.4,2.5-1.9,11.8-6.7,16.1-7.7.5-.1,1.1.2,1.2.8.1.5-.2,1.1-.8,1.2-4,.9-13,5.5-15.4,7.3-.2.1-.4.2-.6.2h0Z"/>
      <path class="st1" d="M288.9,103.9c-.5,0-1-.4-1-.9-.2-3.1-.7-12.4,6.5-23.9.3-.5.9-.6,1.4-.3s.6.9.3,1.4c-6.1,9.9-6.5,17.7-6.2,22.8,0,.6-.4,1-1,1.1h0Z"/>
      <path class="st1" d="M256.7,102.2c-.4,0-.7-.2-.9-.5-.3-.5,0-1.1.4-1.4,5.3-2.8,17.5-7.8,21.8-7.8h.1c.5,0,1,.5,1,1,0,.6-.5,1-1,1h-.1c-3.8,0-15.8,4.9-20.9,7.5-.1,0-.3.1-.5.1Z"/>
      <path class="st1" d="M292.5,131.2c-.4,0-.7-.2-.9-.5-.3-.5,0-1.1.4-1.4.7-.4,1.5-.8,2.2-1.2,4.1-2.3,9.3-5.1,14.4-5.4.5,0,1,.4,1,.9s-.4,1-.9,1.1c-4.6.3-9.6,3-13.5,5.2-.8.4-1.6.9-2.3,1.2-.1,0-.3.1-.5.1h0Z"/>
      <path class="st1" d="M318.7,137.5c-.5,0-.9-.3-1-.8-1-5.5.8-16.2,4.2-23.7.2-.5.8-.7,1.3-.5.5.2.7.8.5,1.3-3.1,7.1-5,17.4-4,22.5.1.5-.2,1.1-.8,1.2,0,0-.1,0-.2,0h0Z"/>
    </g>
    <path class="st19" d="M336.6,165.5c3.7,1.1,32.8-20,29.2-25.9-2.9-4.6-7.7-1.6-9.4-.4-2.7,1.9-8.8,6.9-9.9,4.7-2-4,15.1-14.6,19.1-17.4s11-9.4,10.7-14.9c-.3-5.4-1-7.6-7.7-2.2-6.7,5.4-18.6,17.6-18.4,11.3.3-6.3,11.7-13.6,16.8-20.2,5-6.6,12.3-20.9,6.1-21.2-5.6-.2-17.5,21.2-20,17.7-2-2.8,3.5-7.4,9.2-16.6,5.8-9.3,11.2-18.1,6-22-4.2-3.2-6.6,3.5-9.8,8.5s-7.9,11.7-9.1,8.6c-1.2-3.1,16.8-25.8,11.2-32.5-3.7-4.4-6,1.7-10,7.2-4,5.6-5.9,7.2-6.7,6-.8-1.2,3.4-9.5,5.8-14.1s4.4-11.9.2-14.3c-4.1-2.4-7.3,5.2-7.8,8.4s-2.3,5.8-3.2,5.7c-.9-.2,0-10.5-5.4-10.2-5.4.3-5.4,10.3-2.2,14.8,3.1,4.4,7.2,10.5,5.6,11.7-1.6,1.2-5.2-4-8.1-8s-4.9-5-6-4.2c-3.6,2.6-2.9,9.9-.8,12.9,2.1,2.9,16,17.9,13.6,19.6s-7-4.5-9.3-7.7c-2.3-3.3-7.7-10.9-11.7-8-4,2.8,1.1,14.6,5.9,20.5,4.8,5.9,13.3,15,11.4,16.3-1.8,1.3-9.9-4.8-12.7-8.7-2.8-4-5.8-12.4-10.8-8.9-4.9,3.5-1.6,10.2,3.9,18,2.3,3.2,8.1,11.2,13.9,13.6,6.6,2.8,9.5,5.2,8.9,6.8-1.1,3.1-6.6,0-10.1-3.2-3.4-3.2-13.4-13.7-17.4-7.6-4,6.1,6.2,12.5,10.1,15.5,3.9,3,18.3,12.3,16.3,15.5-2,3.2-8.3-3.8-10.5-5.7s-8-4.5-8.5-1.8c-.5,2.7,14.8,30.7,21.3,32.6h0Z"/>
    <g>
      <path class="st6" d="M395.8,432.3c-9.1-10.3-10.5-33.2-1.5-43.4s20.6-4.4,23.9-11.3c3.4-6.8-1.9-22.2,6.2-28.7,14.4-11.5,28.8,15.3,40.3,7.9,11.5-7.4,2.5-21.8,12.2-30.4,9.7-8.6,20.3,14.2,35.2,9.1s48.6-10.1,49.1,9.7c.5,15.6-17.9,8.2-21.8,13.8-4.5,6.3,2.8,12.9-3.6,18.7-9.1,8.2-22.3-1.2-28.7,6.8s2.3,18.3-10.4,22.6c-15.8,5.4-23-19.9-38.2-4.2-15.2,15.8,11.3,25.5,3.2,36.5-8.8,12.1-28.7-6-32.6,3.4-5.3,12.8-19.2,5.3-33.3-10.7h0Z"/>
      <path class="st1" d="M393.7,430.4c-.2,0-.5,0-.6-.2-.4-.4-.5-1-.1-1.4.6-.8,1.3-2.2,2.1-3.9,1.9-4,4.5-9.4,9.4-11.1,2.5-.9,5.2-1.4,7.8-1.8,4.2-.8,8.6-1.5,12.4-4,8-5,11.1-12,13.8-18,2.1-4.7,4.1-9.1,7.9-11.8,3.6-2.5,6.5-1.6,9.6-.8,2.9.8,5.9,1.7,10.1.3,4.1-1.4,5.2-3.2,6.6-5.2,1.6-2.4,3.4-5.1,9.6-7.2,5.3-1.8,8.5-.9,11.5,0,2.9.9,5.7,1.7,10.6.3,9.5-2.8,13.9-8.6,17.1-12.8,2.1-2.8,3.7-4.9,6.1-5.6,5.4-1.5,8.2,1.8,8.3,2,.3.4.3,1.1-.1,1.4s-1.1.3-1.4-.1c0-.1-2.2-2.5-6.3-1.3-1.7.5-3.2,2.4-5,4.9-3.4,4.5-8,10.6-18.2,13.5-5.5,1.6-8.8.6-11.7-.3-2.9-.9-5.6-1.7-10.3,0-5.6,1.9-7,4.1-8.6,6.4-1.4,2.2-2.9,4.4-7.6,6-4.8,1.6-8.4.6-11.3-.2-3-.9-5.1-1.5-7.9.5-3.4,2.4-5.2,6.4-7.2,11-2.9,6.4-6.1,13.6-14.6,18.9-4.2,2.6-8.8,3.5-13.2,4.3-2.6.5-5.1.9-7.5,1.7-4.1,1.4-6.4,6.2-8.2,10.1-.9,1.8-1.6,3.4-2.4,4.3-.2.2-.5.4-.8.4h0Z"/>
    </g>
    <g>
      <path class="st19" d="M400.7,455.9c-2.3-1.9,39.1-18.1,65-20.4,23.3-2,55.9-1.4,74,3.9-16.6,2.3-64.5,9.4-73.8,10.1-9.3.8-62.8,8.3-65.1,6.4h0Z"/>
      <path class="st19" d="M400.6,455.9c-2.3-.9,25.2-24.8,44.5-33.6,17.4-8,42.8-16.4,58.1-17.4-12.2,6.3-47.2,25-54.2,28.2-7,3.2-46.2,23.7-48.5,22.9Z"/>
      <path class="st19" d="M400.6,455.8c-1.3-2.1,35-4.3,55.8.4,18.7,4.2,43.9,13,56.7,21.6-13.5-2.4-52.7-8.9-60.1-10.6-7.5-1.7-51.1-9.3-52.4-11.4Z"/>
      <path class="st19" d="M400.6,455.9c-2.1,0,12.7-27.4,25.5-40.3,11.5-11.6,29.3-26,41.3-31.4-7.9,8.8-30.3,34.2-34.9,38.9-4.6,4.6-29.8,32.9-31.9,32.9h0Z"/>
      <path class="st19" d="M400.6,455.9c-.4-2.1,29.4,7.1,44.6,17.1,13.7,9,31.3,23.6,39,34.3-10.1-6-39.5-22.9-45-26.5-5.5-3.6-38.1-22.8-38.5-24.8h0Z"/>
    </g>
    <g>
      <path class="st0" d="M387.8,167.8c-.1,0-.3,0-.4,0-.5-.2-.7-.8-.5-1.3,7.8-16.8,25.9-56.1,70.7-84.2.5-.3,1.1-.2,1.4.3.3.5.2,1.1-.3,1.4-44.3,27.8-62.3,66.8-70,83.4-.2.4-.5.6-.9.6h0Z"/>
      <path class="st0" d="M451.7,106.5c-.2,0-.4,0-.5-.2-7.2-4.6-14.1-5.2-16-5-.5,0-1-.4-1.1-.9,0-.6.4-1,.9-1.1,2.2-.2,9.5.4,17.3,5.3.5.3.6.9.3,1.4-.2.3-.5.5-.8.5h0Z"/>
      <path class="st0" d="M439.6,97.5s0,0-.2,0c-.5,0-.9-.6-.8-1.1.8-5.4,1.4-12.9.8-16.8,0-.5.3-1.1.8-1.2.5,0,1.1.3,1.2.8.8,4.6-.2,13.1-.8,17.4,0,.5-.5.9-1,.9h0Z"/>
      <path class="st0" d="M421.2,115.2s-.1,0-.2,0c-.5,0-.9-.6-.8-1.1.7-4.1.6-13.4-.6-16-.2-.5,0-1.1.5-1.3s1.1,0,1.3.5c1.5,3.2,1.4,13.2.7,17.1,0,.5-.5.8-1,.8h0Z"/>
      <path class="st0" d="M434,123.3c-.2,0-.3,0-.5-.1-7.7-4.3-13.7-2.2-17.3-.9-.4.1-.7.2-1,.4-.5.2-1.1-.1-1.3-.6-.2-.5.1-1.1.6-1.3.3-.1.6-.2,1-.3,3.7-1.3,10.5-3.7,18.9,1.1.5.3.7.9.4,1.4-.2.3-.5.5-.9.5h0Z"/>
      <path class="st0" d="M405.2,135.9h-.1c-.5,0-.9-.6-.9-1.1v-1.1c.8-4.7,1.6-11.1-2.3-13.9-.4-.3-.5-1-.2-1.4.3-.4,1-.5,1.4-.2,4.8,3.6,3.9,10.6,3.2,15.8v1.1c-.2.5-.6.9-1.1.9h0Z"/>
      <path class="st0" d="M401.3,142.2c-.4,0-.7-.2-.9-.6-.2-.5,0-1.1.5-1.3,4.1-2,9.2-4.6,17.8-1.7.5.2.8.7.6,1.3-.2.5-.7.8-1.3.6-7.8-2.6-12.3-.4-16.3,1.6-.1,0-.3.1-.4.1h0Z"/>
      <path class="st0" d="M396.2,150.9c-.5,0-1-.4-1-.9-.4-6.2-2.4-11.7-5-13.7-.4-.3-.5-1-.2-1.4.3-.4,1-.5,1.4-.2,3.8,2.8,5.5,9.7,5.8,15.2,0,.6-.4,1-.9,1.1h0Z"/>
      <path class="st0" d="M389.3,164.6c-.3,0-.6-.1-.8-.4-.3-.4-.2-1.1.2-1.4,3.2-2.2,11.5-7.1,19.3-3.9.5.2.8.8.5,1.3s-.8.8-1.3.5c-6.9-2.9-14.5,1.6-17.4,3.6-.2.1-.4.2-.6.2h0Z"/>
      <path class="st16" d="M466.3,82.3c1-2.6-.2-5.5-2.8-6.5s-5.5.2-6.5,2.8.2,5.5,2.8,6.5,5.5-.2,6.5-2.8Z"/>
      <path class="st16" d="M444.1,80.1c.8-2-.2-4.2-2.2-5-2-.8-4.2.2-5,2.2-.8,2,.2,4.2,2.2,5,2,.8,4.2-.2,5-2.2Z"/>
      <path class="st16" d="M457.2,108.1c.8-2-.2-4.2-2.2-5-2-.8-4.2.2-5,2.1-.8,2,.2,4.2,2.2,5,2,.8,4.2-.2,5-2.1Z"/>
      <path class="st16" d="M422.8,97.1c.8-2-.2-4.2-2.1-5s-4.2.2-5,2.1.2,4.2,2.1,5,4.2-.2,5-2.1Z"/>
      <path class="st16" d="M423.2,140.5c.8-2-.2-4.2-2.1-5s-4.2.2-5,2.1.2,4.2,2.1,5,4.2-.2,5-2.1Z"/>
      <path class="st16" d="M393,135.4c.8-2-.2-4.2-2.1-5s-4.2.2-5,2.1.2,4.2,2.1,5,4.2-.2,5-2.1Z"/>
      <path class="st16" d="M438.2,124.5c.9-2.2-.2-4.7-2.4-5.6-2.2-.9-4.7.2-5.6,2.4-.9,2.2.2,4.7,2.4,5.6,2.2.9,4.7-.2,5.6-2.4h0Z"/>
      <path class="st16" d="M405.9,119.2c.9-2.2-.2-4.7-2.4-5.6-2.2-.9-4.7.2-5.6,2.4-.9,2.2.2,4.7,2.4,5.6,2.2.9,4.7-.2,5.6-2.4Z"/>
      <path class="st16" d="M413.5,162.5c.9-2.2-.2-4.7-2.4-5.6-2.2-.9-4.7.2-5.6,2.4-.9,2.2.2,4.7,2.4,5.6,2.2.9,4.7-.2,5.6-2.4Z"/>
    </g>
    <path class="st0" d="M-13,456.9c.2.5-.1,1.1-.6,1.3,0,0-.2,0-.3,0h0c-.4,0-.8-.3-.9-.7"/>
    <g>
      <path class="st17" d="M86.3,116.7c-3.8-.5-7.5-2.2-7-4.6.4-2.2,4.2-2.4,7.9-1.7-1.7-2.9-2.3-6-.5-7.1,3.5-2.1,9.5,8.4,8.8,11.6-.2,4.4-9.8,11.1-12.2,7.7-1.1-1.6.6-4,3-6h0Z"/>
      <path class="st0" d="M119,140c-.4,0-.7-.2-.9-.6-6.4-13.3-18.4-22.8-22.8-23.5-.5,0-.9-.6-.8-1.1s.6-.9,1.1-.8c5.4.9,17.9,11.2,24.3,24.6.2.5,0,1.1-.5,1.3-.1,0-.3.1-.4.1h0Z"/>
      <path class="st0" d="M91.9,117.4c0-.7.5-1.3,1.1-1.8-1-.3-2.3-1.3-1.8-2.3.3-.8,1.6-.3,2.7.3-.1-.4-.2-.8-.3-1.2-.2-3.4,3,1,2.4,2.8-.1.4-.5,1.1-.9,1.8-.9,1.4-3.1,1.9-3.1.6Z"/>
    </g>
  </g>
  <g id="Books">
    <g>
      <path class="st12" d="M314.2,380.8h-144.6c-21.9,0-39.6,17.7-39.6,39.6s17.7,39.6,39.6,39.6h144.6v-79.2h0Z"/>
      <rect class="st15" x="314.2" y="380.8" width="98" height="79.2"/>
      <g>
        <rect class="st17" x="145.6" y="388.4" width="266.6" height="1"/>
        <rect class="st17" x="134" y="402.4" width="278.2" height="1"/>
        <rect class="st17" x="132.5" y="405.9" width="279.7" height="1"/>
        <rect class="st17" x="131.4" y="428.4" width="280.7" height="1"/>
        <rect class="st17" x="129.7" y="422.9" width="282.5" height="2"/>
        <rect class="st17" x="146.2" y="451.4" width="266" height="2"/>
        <rect class="st17" x="140.6" y="392.4" width="271.6" height="2"/>
        <rect class="st17" x="141.1" y="447.5" width="271.1" height="1"/>
        <rect class="st17" x="138.6" y="444.6" width="273.6" height="1"/>
      </g>
      <path class="st14" d="M422.3,462h-252.8c-22.9,0-41.6-18.7-41.6-41.6s18.7-41.6,41.6-41.6h252.8v4h-252.8c-20.7,0-37.6,16.9-37.6,37.6s16.9,37.6,37.6,37.6h252.8v4Z"/>
    </g>
    <g>
      <g>
        <path class="st1" d="M360.8,378.8h-147.5c-7.8,0-14.1-6.3-14.1-14.1v-42.2c0-7.8,6.3-14.1,14.1-14.1h147.5v70.3h0Z"/>
        <path class="st15" d="M445.3,310.5h-84.5c-6.7,0-12.1,5.4-12.1,12.1v42.2c0,6.7,5.4,12.1,12.1,12.1h84.5v-66.3h0Z"/>
        <g>
          <rect class="st17" x="348.8" y="360.9" width="96.6" height="2"/>
          <rect class="st17" x="348.8" y="337.3" width="96.6" height="2"/>
          <rect class="st17" x="348.8" y="356.9" width="96.6" height="1"/>
          <rect class="st17" x="348.8" y="354" width="96.6" height="1"/>
          <rect class="st17" x="348.8" y="367.6" width="96.6" height="1"/>
          <rect class="st17" x="348.8" y="343.2" width="96.6" height="1"/>
          <rect class="st17" x="348.8" y="331" width="96.6" height="1"/>
          <rect class="st17" x="348.8" y="322.9" width="96.6" height="1"/>
          <rect class="st17" x="348.8" y="319.5" width="96.6" height="1"/>
        </g>
        <path class="st9" d="M454.3,378.8h-93.5c-7.8,0-14.1-6.3-14.1-14.1v-42.2c0-7.8,6.3-14.1,14.1-14.1h93.5v4h-93.5c-5.6,0-10.1,4.5-10.1,10.1v42.2c0,5.6,4.5,10.1,10.1,10.1h93.5v4Z"/>
      </g>
      <rect class="st0" x="265.9" y="329.4" width="14.2" height="28.5"/>
      <path class="st6" d="M326.6,308.5h2.6c-7.8,0-14.1,6.3-14.1,14.1v42.2c0,7.8,6.3,14.1,14.1,14.1h-2.6c-7.8,0-14.1-6.3-14.1-14.1v-42.2c0-7.8,6.3-14.1,14.1-14.1Z"/>
      <path class="st6" d="M245.2,308.5h2.6c-7.8,0-14.1,6.3-14.1,14.1v42.2c0,7.8,6.3,14.1,14.1,14.1h-2.6c-7.8,0-14.1-6.3-14.1-14.1v-42.2c0-7.8,6.3-14.1,14.1-14.1Z"/>
    </g>
    <g>
      <path class="st0" d="M287,226.2h130.3c7.8,0,14.1-6.3,14.1-14.1v-42.2c0-7.8-6.3-14.1-14.1-14.1h-130.3v70.3h0Z"/>
      <path class="st1" d="M408.3,155.9h-20c7.8,0,14.1,6.3,14.1,14.1v42.2c0,7.8-6.3,14.1-14.1,14.1h20c7.8,0,14.1-6.3,14.1-14.1v-42.2c0-7.8-6.3-14.1-14.1-14.1Z"/>
      <path class="st1" d="M315.5,155.9h-20c7.8,0,14.1,6.3,14.1,14.1v42.2c0,7.8-6.3,14.1-14.1,14.1h20c7.8,0,14.1-6.3,14.1-14.1v-42.2c0-7.8-6.3-14.1-14.1-14.1Z"/>
      <path class="st1" d="M360.9,155.9h-2.6c7.8,0,14.1,6.3,14.1,14.1v42.2c0,7.8-6.3,14.1-14.1,14.1h2.6c7.8,0,14.1-6.3,14.1-14.1v-42.2c0-7.8-6.3-14.1-14.1-14.1Z"/>
      <path class="st1" d="M354.7,155.9h-2.6c7.8,0,14.1,6.3,14.1,14.1v42.2c0,7.8-6.3,14.1-14.1,14.1h2.6c7.8,0,14.1-6.3,14.1-14.1v-42.2c0-7.8-6.3-14.1-14.1-14.1Z"/>
      <path class="st12" d="M181.9,157.9h105.1c6.7,0,12.1,5.4,12.1,12.1v42.2c0,6.7-5.4,12.1-12.1,12.1h-105.1v-66.3h0Z"/>
      <g>
        <rect class="st17" x="181.9" y="190.9" width="117.1" height="2"/>
        <rect class="st17" x="181.9" y="196.7" width="117.1" height="1"/>
        <rect class="st17" x="181.9" y="187.8" width="117.1" height="1"/>
        <rect class="st17" x="181.9" y="184.3" width="117.1" height="1"/>
        <rect class="st17" x="181.9" y="173.3" width="117.1" height="2"/>
        <rect class="st17" x="181.9" y="169.6" width="117.1" height="2"/>
        <rect class="st17" x="181.9" y="165.4" width="117.1" height="1"/>
        <rect class="st17" x="181.9" y="200.9" width="117.1" height="1"/>
        <rect class="st17" x="181.9" y="216.8" width="117.1" height="1"/>
        <rect class="st17" x="181.9" y="208.9" width="117.1" height="1"/>
      </g>
      <path class="st6" d="M172.9,226.2h114.1c7.8,0,14.1-6.3,14.1-14.1v-42.2c0-7.8-6.3-14.1-14.1-14.1h-114.1v4h114.1c5.6,0,10.1,4.5,10.1,10.1v42.2c0,5.6-4.5,10.1-10.1,10.1h-114.1v4Z"/>
    </g>
    <g>
      <path class="st16" d="M368.6,281c0-15.1,12.3-27.5,27.5-27.5h-160.4c-15.1,0-27.5,12.3-27.5,27.5s12.3,27.5,27.5,27.5h160.4c-15.1,0-27.5-12.3-27.5-27.5Z"/>
      <path class="st13" d="M298.4,281c0-15.1,12.3-27.5,27.5-27.5h-20c-15.1,0-27.5,12.3-27.5,27.5s12.3,27.5,27.5,27.5h20c-15.1,0-27.5-12.3-27.5-27.5Z"/>
      <path class="st15" d="M481.7,306.5h-85.6c-14.1,0-25.5-11.4-25.5-25.5s11.4-25.5,25.5-25.5h85.6v50.9Z"/>
      <g>
        <rect class="st17" x="372.9" y="269.4" width="108.8" height="2"/>
        <rect class="st17" x="370.6" y="275.3" width="111.1" height="1"/>
        <rect class="st17" x="375" y="265.9" width="106.7" height="1"/>
        <rect class="st17" x="370.6" y="286.2" width="111.1" height="1"/>
        <rect class="st17" x="372.9" y="289.7" width="108.8" height="1"/>
        <rect class="st17" x="376.1" y="296.3" width="105.6" height="1"/>
        <rect class="st17" x="377.8" y="262.8" width="103.9" height="1"/>
      </g>
      <path class="st11" d="M491.7,308.5h-95.6c-15.1,0-27.5-12.3-27.5-27.5s12.3-27.5,27.5-27.5h95.6v4h-95.6c-12.9,0-23.5,10.5-23.5,23.5s10.5,23.5,23.5,23.5h95.6v4Z"/>
      <ellipse class="st12" cx="334.3" cy="281" rx="5.4" ry="7.3"/>
      <ellipse class="st12" cx="245.9" cy="281" rx="5.4" ry="7.3"/>
    </g>
    <g>
      <path class="st18" d="M450.4,228.2h-101.6v23.3h101.6c2.3,0,4.2-1.9,4.2-4.2v-14.8c0-2.4-1.9-4.2-4.2-4.2h0Z"/>
      <rect class="st2" x="201.2" y="228.2" width="147.5" height="23.3"/>
      <g>
        <rect class="st17" x="201.2" y="239.3" width="253.1" height="2"/>
        <rect class="st17" x="201.2" y="245.2" width="253.1" height="1"/>
        <rect class="st17" x="201.2" y="236.3" width="253.1" height="1"/>
        <rect class="st17" x="201.2" y="232.8" width="253.1" height="1"/>
      </g>
      <path class="st7" d="M450.4,253.5h-256v-4h256c1.2,0,2.2-1,2.2-2.2v-14.8c0-1.2-1-2.2-2.2-2.2h-256v-4h256c3.4,0,6.2,2.8,6.2,6.2v14.8c0,3.4-2.8,6.2-6.2,6.2Z"/>
    </g>
  </g>
  <g id="Man">
    <g>
      <path class="st8" d="M71.7,452.7c.6-.9,1.5-2.4,1.5-2.4h-6.9c-.7,1.6-1.1,3-1.8,4.4,1.7.7,4.2-1,7.3-2h0Z"/>
      <path class="st6" d="M71.7,452.7c-3.1.9-5.6,2.6-7.3,2-.9.7-14.3,5.5-15.6,6.4-1.4,1-1.2,2.4.3,2.4,2.1,0,19.9-.8,19.9-.8.4.4.6.8.6.8h4.1c1.2-2.1.9-8.4-1.9-10.8h0Z"/>
      <path class="st7" d="M89.1,374.9c-6,11.4-18.1,61.5-22.9,75.4h6.9c8.3-16,23.9-31.7,35.8-63.9,0,0,41.7,4.6,58.1-10.2,7.8-7,11.6-15.3,13.6-25h-29.4s-56.1,12.4-62.1,23.8h0Z"/>
    </g>
    <path class="st8" d="M144.9,251.8c.3,1.7,2.9,19.6,5.6,20.1,2.7.5,8.1-4,9.5-1.1s2,6.9,2,6.9c2.8-.5,12.5-5.3,12.5-5.3-1.7-3.3-4-7.5-4-14.8s.2-19-16.1-16.1c-10.5,1.9-10.2,5.8-9.5,10.3h0Z"/>
    <path class="st3" d="M144.7,250.7c-1.7.7-2.8.3-4.7-1.7s-7.8-8.5,4.6-9.7,21.9-4.9,26.1,4.1c4.1,9.1.9,16.9,0,17.9s-.3-14.1-3.9-13.6c-2.2.3,1,13.4,1.1,20.2-1.2,1.6-4.5,2.9-9.7,4.9s-6.8,3.5-8.7-1.8l-1.9-5.3c7.2-2.2,4.6,1.6,9.1,0,4.5-1.6,5.4-2.3,5.8-3.7.4-1.4-1.7-15.7-3.3-15.9s-9.9,2.7-14.4,4.6h0Z"/>
    <g>
      <path class="st8" d="M126.5,452.7v-2.4h-6.6c0,2.2-.5,3.5-.8,4.4,1.7.7,4.2-1,7.3-2Z"/>
      <path class="st6" d="M126.5,452.7c-3.1.9-5.6,2.6-7.3,2-.9.7-14.3,5.5-15.6,6.4-1.4,1-1.2,2.4.3,2.4,2.1,0,19.9-.8,19.9-.8.4.4.6.8.6.8h4.1c1.2-2.1.9-8.4-1.9-10.8h0Z"/>
      <path class="st6" d="M100.2,374.9c-6,11.4,15.9,64.3,19.7,75.4h6.6c3.2-17.1,2.4-54.2-6.5-63.9,0,0,41.7,4.6,58.1-10.2,7.8-7,11.6-15.3,13.6-25h-40.5s-45,12.4-51,23.8h0Z"/>
    </g>
    <path class="st0" d="M174.5,272.5s-7.7,3.6-12.5,5.3c-17.9,21.6-10.8,63.4-10.8,73.3h40.5c2.2-11,2-23.7,2.3-38.7.5-28.3-10.1-36.5-19.5-39.9Z"/>
    <g>
      <path class="st5" d="M96.3,364.5l45.2-14,.6,1.8c.3.8-.2,1.7-1,1.9l-42.3,13.1c-.8.3-1.7-.2-1.9-1l-.6-1.8h0Z"/>
      <path class="st5" d="M67.2,327.2l29.2,37.3-1.5,1.2c-.7.5-1.6.4-2.1-.3l-27.3-34.9c-.5-.7-.4-1.6.3-2.1l1.5-1.2h0Z"/>
      <rect class="st19" x="98.9" y="362.6" width="2.9" height=".6" transform="translate(-103.2 46.1) rotate(-17.3)"/>
      <rect class="st19" x="103.4" y="361.2" width="2.9" height=".6" transform="translate(-102.6 47.4) rotate(-17.3)"/>
      <rect class="st19" x="107.8" y="359.8" width="2.9" height=".6" transform="translate(-102 48.7) rotate(-17.3)"/>
      <rect class="st19" x="112.3" y="358.5" width="2.9" height=".6" transform="translate(-101.4 49.9) rotate(-17.3)"/>
      <rect class="st19" x="116.8" y="357.1" width="2.9" height=".6" transform="translate(-100.8 51.2) rotate(-17.3)"/>
      <rect class="st19" x="121.2" y="355.7" width="2.9" height=".6" transform="translate(-100.2 52.5) rotate(-17.3)"/>
    </g>
    <path class="st19" d="M177.3,280.2c4.3-1.8,13.6,1.4,16.6,16.4,2.4,11.8,5.5,42.6-.8,43.3-6.4.6-62.4,9.5-62.4,9.5-.3-1.3-1.3-5.7-1.3-5.7,4.9-.8,48.8-18.7,50.1-19.5-1.7-1.4-20.3-36.5-2.2-44h0Z"/>
    <path class="st8" d="M130.6,348.9c-.6-2.5-1-4.7-1-4.7-2.6.4-10.2,2.5-11.4,3.2-2.5,1.7-6.1,6.4-5.5,7.2.2.3,1.3-.4,2.6-1.4-1,2.7-1.6,5.2-.8,5,1-.3,2.3-2.3,3.5-4.1-.3,1.4-.4,2.6.6,2.6.6,0,2.3-3.2,2.8-5.1,1.6.5,3.9.7,9.3-2.6h0Z"/>
  </g>
  <g id="Secondary_shapes">
    <path class="st4" d="M64.2,26.1l-11.2,2.3c-.9.2-1.6.8-1.9,1.7l-3.6,10.9c-.3.9,0,1.8.5,2.4l7.6,8.6c.6.7,1.5,1,2.4.8l11.2-2.3c.9-.2,1.6-.8,1.9-1.7l3.6-10.9c.3-.9,0-1.8-.5-2.4l-7.6-8.6c-.6-.7-1.5-1-2.4-.8Z"/>
    <path class="st0" d="M546,24.4l-2.5,17.6c-.3,1.9-2.5,2.8-4,1.6l-14-11c-1.5-1.2-1.2-3.6.6-4.3l16.5-6.6c1.8-.7,3.7.8,3.4,2.7h0Z"/>
    <path class="st6" d="M261.1,507.8l-4.7,17.2c-.5,1.9,1.2,3.6,3,3.1l17.2-4.5c1.9-.5,2.5-2.8,1.1-4.2l-12.5-12.7c-1.4-1.4-3.7-.8-4.2,1.1h0Z"/>
  </g>
  <g id="Clouds">
    <path class="st18" d="M113.7,160.1c-8.7,0-21.2-2.7-17.7-16.9,2.7-10.9,15.7-10.8,23-6.1-11.5-10.5,8-40.7,32-16.3,0-13.7,19.6-42.6,41.7-29,18,11.1,11.7,28.7,3.7,37.3,10.3-5.7,26.5-5.5,31.7,7.7s-2.7,23.3-15,23.3h-99.3Z"/>
    <path class="st18" d="M467.4,43.1c7.1,0,16.5-3.7,13.9-13.1-2.4-8.5-11.4-9.8-18.8-5.2,2.7-6,2.6-20.6-6.7-23.9-9.3-3.3-22.2,2.3-23.9,14.1-4.6-13.6-31.1-11.5-15.3,10.9-10.4-7.1-23.8-2.2-23.8,6.3s7.6,10.9,12.3,10.9h62.2,0Z"/>
    <path class="st18" d="M544.5,221.5c8.7,0,11.7-10.1,0-10.1,4.3-3.5,3-10.5-3.7-10.5h-16.1c7.9-5.9,3.9-19.7-10-21.9-14.1-2.2-22.9,7.7-18.6,17.8-8-1.9-25-1.7-17.2,11.5-6.3-.5-11.4.4-12.3,6.7-.8,6.2,6,6.6,9.8,6.6h68,0Z"/>
  </g>
  <g id="Cursour">
    <g>
      <polygon class="st17" points="440.1 188.3 448.4 205.4 457.2 196.6 440.1 188.3"/>
      <rect class="st5" x="454.9" y="199.4" width="3.2" height="10.5" transform="translate(-11 382.7) rotate(-45)"/>
    </g>
    <g>
      <path class="st16" d="M438.3,180.2c-.5,0-1-.4-1-1v-4.9c0-.6.5-1,1-1s1,.4,1,1v4.9c0,.6-.5,1-1,1Z"/>
      <path class="st16" d="M444.5,182.8c-.3,0-.5-.1-.7-.3-.4-.4-.4-1,0-1.4l3.5-3.5c.4-.4,1-.4,1.4,0,.4.4.4,1,0,1.4l-3.5,3.5c-.2.2-.5.3-.7.3h0Z"/>
      <path class="st16" d="M438.3,202.6c-.5,0-1-.4-1-1v-4.9c0-.6.5-1,1-1s1,.4,1,1v4.9c0,.6-.5,1-1,1Z"/>
    </g>
  </g>
  <g id="Wifi_sygnal">
    <g>
      <path class="st10" d="M56.6,274c-2.5-2.5-2.5-6.6,0-9.1s6.6-2.5,9.1,0c2.5,2.5,2.5,6.6,0,9.1s-6.6,2.5-9.1,0Z"/>
      <path class="st16" d="M72.1,259.6c-.3,0-.5-.1-.7-.3-2.7-2.7-6.4-4.2-10.2-4.2s-7.5,1.5-10.2,4.2c-.4.4-1,.4-1.4,0s-.4-1,0-1.4c3.1-3.1,7.2-4.8,11.6-4.8h0c4.4,0,8.5,1.7,11.6,4.8.4.4.4,1,0,1.4-.2.2-.4.3-.7.3h0Z"/>
      <path class="st16" d="M78.4,253.2c-.3,0-.5-.1-.7-.3-9.1-9.1-24-9.1-33.1,0-.4.4-1,.4-1.4,0-.4-.4-.4-1,0-1.4,9.9-9.9,26-9.9,35.9,0,.4.4.4,1,0,1.4-.2.2-.4.3-.7.3h0Z"/>
      <path class="st16" d="M84.8,246.9c-.3,0-.5-.1-.7-.3-12.6-12.6-33.2-12.6-45.8,0-.4.4-1,.4-1.4,0-.4-.4-.4-1,0-1.4,13.4-13.4,35.2-13.4,48.6,0,.4.4.4,1,0,1.4-.2.2-.4.3-.7.3h0Z"/>
      <path class="st16" d="M91.1,240.6c-.3,0-.5-.1-.7-.3-7.8-7.8-18.2-12.1-29.2-12.1s-21.4,4.3-29.2,12.1c-.4.4-1,.4-1.4,0-.4-.4-.4-1,0-1.4,8.2-8.2,19.1-12.7,30.7-12.7h0c11.6,0,22.5,4.5,30.7,12.7.4.4.4,1,0,1.4-.2.2-.4.3-.7.3h0Z"/>
    </g>
  </g>
</svg>