<svg xmlns="http://www.w3.org/2000/svg" width="19.286" height="19.286" viewBox="0 0 19.286 19.286">
  <g id="Raggruppa_1843" data-name="Raggruppa 1843" transform="translate(-423.35 541.636) rotate(-90)">
    <path id="Tracciato_3052" data-name="Tracciato 3052" d="M522.827,423.5a.327.327,0,0,0-.327.327v18.332a.327.327,0,1,0,.655,0V423.827A.327.327,0,0,0,522.827,423.5Z" transform="translate(0 0)" fill="#0e1114" stroke="#0e1114" stroke-width="0.3"/>
    <path id="Tracciato_3053" data-name="Tracciato 3053" d="M546.54,437.374H531.617l6.315-6.316a.327.327,0,0,0-.463-.463L530.6,437.47a.327.327,0,0,0,0,.463l6.874,6.874a.327.327,0,0,0,.463-.463l-6.315-6.316H546.54a.327.327,0,0,0,0-.655Z" transform="translate(-5.381 -4.708)" fill="#0e1114" stroke="#0e1114" stroke-width="0.3"/>
  </g>
</svg>
