<svg id="Raggruppa_1627" data-name="Raggruppa 1627" xmlns="http://www.w3.org/2000/svg" width="26.072" height="25.834" viewBox="0 0 26.072 25.834">
  <path id="Tracciato_3" data-name="Tracciato 3" d="M548.5,259.612c-.01-.189-.024-.342-.025-.495,0-2.636.008-5.273-.01-7.909,0-.432.122-.571.554-.549.669.034,1.341,0,2.012.014.362.01.544-.119.594-.487q.207-1.5.453-3c.059-.354-.124-.4-.395-.4-.936,0-1.872,0-2.808,0-.228,0-.409-.027-.4-.317.031-.9.013-1.809.1-2.706a1.421,1.421,0,0,1,1.453-1.321c.575-.04,1.152-.073,1.728-.074.327,0,.49-.084.483-.445-.017-.8-.01-1.591,0-2.387,0-.3-.086-.473-.414-.5-.793-.053-1.585-.169-2.377-.17a7.772,7.772,0,0,0-1.846.219,4.454,4.454,0,0,0-3.261,4.3c-.031.935-.011,1.872-.013,2.808,0,.169,0,.338,0,.585h-1.621c-.437,0-.874.01-1.31,0-.3-.008-.419.131-.418.421,0,1,.007,2,0,3,0,.342.145.473.48.468.826-.01,1.653,0,2.48-.006.261,0,.4.053.4.359-.01,2.808-.008,5.616-.01,8.424a.622.622,0,0,1-.029.133c-4.072-.225-10.137-4.387-10.855-11.364a13.037,13.037,0,1,1,26-1.414C559.44,254.03,553.559,259.117,548.5,259.612Z" transform="translate(-533.365 -233.779)" fill="#212121"/>
</svg>
