<?xml version="1.0" encoding="utf-8"?>
<!-- Generator: Adobe Illustrator 22.0.0, SVG Export Plug-In . SVG Version: 6.00 Build 0)  -->
<svg version="1.1" id="Livello_1" xmlns="http://www.w3.org/2000/svg" xmlns:xlink="http://www.w3.org/1999/xlink" x="0px" y="0px"
	 viewBox="0 0 16.5 20.1" style="enable-background:new 0 0 16.5 20.1;" xml:space="preserve">
<style type="text/css">
	.st0{fill:#212121;}
</style>
<path class="st0" d="M15.1,3.2h-0.8c-0.1,0-0.2,0-0.3,0.1V1.5C14,0.7,13.3,0,12.5,0h-11C0.7,0,0,0.7,0,1.5v13C0,15.3,0.7,16,1.5,16
	h11c0.8,0,1.5-0.7,1.5-1.5V4.1c0.1,0.1,0.2,0.1,0.3,0.1h0.8c0.2,0,0.3,0.2,0.3,0.3v14.2c0,0.2-0.2,0.3-0.3,0.3H4.2
	c-0.2,0-0.3-0.2-0.3-0.3V18c0-0.3-0.2-0.5-0.5-0.5S2.9,17.7,2.9,18v0.8c0,0.7,0.6,1.3,1.3,1.3h10.9c0.7,0,1.3-0.6,1.3-1.3V4.6
	C16.5,3.8,15.9,3.2,15.1,3.2z M13,14.5c0,0.3-0.2,0.5-0.5,0.5h-11C1.2,15,1,14.8,1,14.5v-13C1,1.2,1.2,1,1.5,1h11
	C12.8,1,13,1.2,13,1.5V14.5z"/>
</svg>
