<svg xmlns="http://www.w3.org/2000/svg" width="21.918" height="21.005" viewBox="0 0 21.918 21.005">
  <g id="Raggruppa_1949" data-name="Raggruppa 1949" transform="translate(-1128 -1009)">
    <g id="Raggruppa_1940" data-name="Raggruppa 1940" transform="translate(1136.219 1011.74)">
      <path id="Tracciato_3063" data-name="Tracciato 3063" d="M1150.242,1012.913h-12.786a.457.457,0,1,1,0-.913h12.786a.457.457,0,0,1,0,.913Z" transform="translate(-1137 -1012)" fill="#163567"/>
    </g>
    <g id="Raggruppa_1941" data-name="Raggruppa 1941" transform="translate(1128 1011.74)">
      <path id="Tracciato_3064" data-name="Tracciato 3064" d="M1132.11,1012.913h-3.653a.457.457,0,1,1,0-.913h3.653a.457.457,0,1,1,0,.913Z" transform="translate(-1128 -1012)" fill="#163567"/>
    </g>
    <g id="Raggruppa_1942" data-name="Raggruppa 1942" transform="translate(1146.265 1019.046)">
      <path id="Tracciato_3065" data-name="Tracciato 3065" d="M1151.2,1020.913h-2.74a.457.457,0,1,1,0-.913h2.74a.457.457,0,0,1,0,.913Z" transform="translate(-1148 -1020)" fill="#163567"/>
    </g>
    <g id="Raggruppa_1943" data-name="Raggruppa 1943" transform="translate(1128 1019.046)">
      <path id="Tracciato_3066" data-name="Tracciato 3066" d="M1142.155,1020.913h-13.7a.457.457,0,1,1,0-.913h13.7a.457.457,0,1,1,0,.913Z" transform="translate(-1128 -1020)" fill="#163567"/>
    </g>
    <g id="Raggruppa_1944" data-name="Raggruppa 1944" transform="translate(1133.479 1026.352)">
      <path id="Tracciato_3067" data-name="Tracciato 3067" d="M1149.982,1028.913h-15.525a.457.457,0,1,1,0-.913h15.525a.457.457,0,0,1,0,.913Z" transform="translate(-1134 -1028)" fill="#163567"/>
    </g>
    <g id="Raggruppa_1945" data-name="Raggruppa 1945" transform="translate(1128 1026.352)">
      <path id="Tracciato_3068" data-name="Tracciato 3068" d="M1129.37,1028.913h-.913a.457.457,0,1,1,0-.913h.913a.457.457,0,1,1,0,.913Z" transform="translate(-1128 -1028)" fill="#163567"/>
    </g>
    <g id="Raggruppa_1946" data-name="Raggruppa 1946" transform="translate(1131.653 1009)">
      <path id="Tracciato_3069" data-name="Tracciato 3069" d="M1133.827,1015.393a1.828,1.828,0,0,1-1.826-1.827v-2.74a1.826,1.826,0,1,1,3.653,0v2.74A1.828,1.828,0,0,1,1133.827,1015.393Zm0-5.479a.914.914,0,0,0-.913.913v2.74a.913.913,0,1,0,1.827,0v-2.74A.914.914,0,0,0,1133.827,1009.913Z" transform="translate(-1132 -1009)" fill="#163567"/>
    </g>
    <g id="Raggruppa_1947" data-name="Raggruppa 1947" transform="translate(1141.699 1016.306)">
      <path id="Tracciato_3070" data-name="Tracciato 3070" d="M1144.827,1023.393a1.828,1.828,0,0,1-1.827-1.826v-2.74a1.827,1.827,0,1,1,3.653,0v2.74A1.828,1.828,0,0,1,1144.827,1023.393Zm0-5.479a.914.914,0,0,0-.913.913v2.74a.913.913,0,1,0,1.826,0v-2.74A.914.914,0,0,0,1144.827,1017.913Z" transform="translate(-1143 -1017)" fill="#163567"/>
    </g>
    <g id="Raggruppa_1948" data-name="Raggruppa 1948" transform="translate(1128.913 1023.612)">
      <path id="Tracciato_3071" data-name="Tracciato 3071" d="M1130.827,1031.393a1.828,1.828,0,0,1-1.826-1.826v-2.74a1.826,1.826,0,1,1,3.653,0v2.74A1.828,1.828,0,0,1,1130.827,1031.393Zm0-5.479a.914.914,0,0,0-.913.913v2.74a.913.913,0,0,0,1.827,0v-2.74A.914.914,0,0,0,1130.827,1025.913Z" transform="translate(-1129 -1025)" fill="#163567"/>
    </g>
  </g>
</svg>
