<?xml version="1.0" encoding="UTF-8"?>
<svg id="Layer_2" data-name="Layer 2" xmlns="http://www.w3.org/2000/svg" viewBox="0 0 1453.08 193.48">
  <defs>
    <style>
      .cls-1 {
        fill: #61c680;
      }

      .cls-2 {
        fill: #3a3a3a;
      }
    </style>
  </defs>
  <g id="Layer_1-2" data-name="Layer 1">
    <g id="Layer_2-2" data-name="Layer 2">
      <path class="cls-2" d="M348.12,20.79h-185.36c-.76-.08-2.84-.18-5.03,1.03-1.97,1.09-2.97,2.65-3.36,3.34-24.22,54.74-48.45,109.48-72.67,164.22-.37.47-3.15,3.95-7.99,4.1-5.21.16-8.3-3.71-8.61-4.1-11.12-23.36-22.24-46.71-33.37-70.06-.27-.69-.87-1.92-2.12-3.01-1.83-1.58-3.86-1.83-4.58-1.88H7.98c-5.09-1.58-8.37-6.42-7.94-11.43.38-4.39,3.53-8.2,7.94-9.53h29.35c1.49.57,3.74,1.64,5.97,3.62,2.74,2.44,4.16,5.1,4.86,6.68,7.68,15.96,15.37,31.92,23.06,47.87.04.07.56.89,1.55.94.71.04,1.39-.32,1.77-.94,20.96-46.82,41.92-93.64,62.89-140.46.79-1.63,2.57-4.74,6.08-7.36,3.82-2.84,7.65-3.58,9.47-3.82h195.14c4.57,1.23,7.83,5.21,8.09,9.78.29,4.99-3.08,9.64-8.09,11.01Z"/>
      <path class="cls-1" d="M207.02,95.9l30.03,27.6c.14.13.82.75,1.87.75s1.73-.62,1.87-.75c10.35-9.51,20.7-19.02,31.06-28.53,3.25-1.79,7.25-1.05,9.45,1.59,1.86,2.24,2.17,5.5.75,8.23-12.91,12.29-25.82,24.57-38.73,36.86-.34.32-1.92,1.76-4.4,1.78-2.53.02-4.16-1.47-4.49-1.78-13.16-12.41-26.32-24.82-39.48-37.23-1.38-3.19-.46-6.9,2.15-8.98,2.86-2.28,7.11-2.12,9.92.47h0Z"/>
      <path class="cls-2" d="M171.66,169.52h127.01c2.16.04,3.9,1.84,3.87,3.97-.03,2.1-1.75,3.84-3.87,3.87h-127.01c-1.98-.22-3.51-1.9-3.53-3.87-.02-2.01,1.51-3.75,3.53-3.97h0Z"/>
      <g>
        <path class="cls-2" d="M447.76,152.67c-4.93-2.24-8.45-5.17-10.56-8.8l6.51-4.16c1.99,2.99,4.78,5.28,8.36,6.88s7.71,2.4,12.41,2.4c5.75,0,10.44-1.54,14.08-4.64,3.64-3.09,5.46-7.04,5.46-11.84,0-3.84-1.47-7.09-4.4-9.76-2.93-2.67-7.92-5.22-14.96-7.68-9.62-3.31-16.34-6.69-20.15-10.16-3.81-3.46-5.72-7.71-5.72-12.72,0-5.86,2.46-10.56,7.39-14.08,4.93-3.52,11.44-5.28,19.54-5.28,5.28,0,10.15,1.12,14.61,3.36s7.74,5.23,9.86,8.96l-6.34,4c-4.11-6.19-10.15-9.28-18.13-9.28-5.16,0-9.39,1.12-12.67,3.36-3.29,2.24-4.93,5.12-4.93,8.64,0,3.31,1.55,6.13,4.66,8.48,3.11,2.35,8.83,5.02,17.16,8,8.45,2.99,14.49,6.35,18.13,10.08,3.64,3.74,5.46,8.43,5.46,14.08,0,7.15-2.7,12.86-8.1,17.12-5.4,4.27-12.56,6.4-21.47,6.4-5.87,0-11.26-1.12-16.19-3.36h0Z"/>
        <path class="cls-2" d="M544.65,150.91c-6.16-3.41-10.91-8.27-14.26-14.56-3.34-6.29-5.02-13.6-5.02-21.92s1.67-15.62,5.02-21.92c3.34-6.29,8.1-11.15,14.26-14.56,6.16-3.41,13.29-5.12,21.38-5.12s15.22,1.71,21.38,5.12c6.16,3.42,10.94,8.27,14.34,14.56,3.4,6.29,5.1,13.6,5.1,21.92s-1.7,15.63-5.1,21.92c-3.4,6.29-8.18,11.15-14.34,14.56-6.16,3.42-13.29,5.12-21.38,5.12s-15.22-1.71-21.38-5.12ZM582.49,144.67c4.75-2.88,8.42-6.93,11-12.16,2.58-5.22,3.87-11.25,3.87-18.08s-1.29-12.85-3.87-18.08-6.25-9.28-11-12.16c-4.75-2.88-10.24-4.32-16.46-4.32s-11.53,1.44-16.28,4.32-8.42,6.94-11,12.16c-2.58,5.23-3.87,11.25-3.87,18.08s1.29,12.86,3.87,18.08c2.58,5.23,6.25,9.28,11,12.16s10.18,4.32,16.28,4.32,11.7-1.44,16.46-4.32Z"/>
        <path class="cls-2" d="M654.56,149.87c-3.76-4.11-5.63-10.05-5.63-17.84v-50.4h-15.84v-7.2h15.84v-21.76l8.8-2.72h.7v24.48h24.82v7.2h-24.82v48.64c0,6.4,1.11,11.04,3.34,13.92,2.23,2.88,5.75,4.32,10.56,4.32s8.62-.64,11.44-1.92l1.06,6.88c-3.76,1.71-8.33,2.56-13.73,2.56-7.28,0-12.79-2.05-16.54-6.16h0Z"/>
        <path class="cls-2" d="M733.58,149.87c-3.76-4.11-5.63-10.05-5.63-17.84v-50.4h-15.84v-7.2h15.84v-21.76l8.8-2.72h.7v24.48h24.82v7.2h-24.82v48.64c0,6.4,1.11,11.04,3.34,13.92,2.23,2.88,5.75,4.32,10.56,4.32s8.62-.64,11.44-1.92l1.06,6.88c-3.76,1.71-8.33,2.56-13.73,2.56-7.28,0-12.79-2.05-16.54-6.16h0Z"/>
        <path class="cls-2" d="M810.58,150.91c-6.16-3.41-10.91-8.27-14.26-14.56-3.34-6.29-5.02-13.6-5.02-21.92s1.67-15.62,5.02-21.92c3.34-6.29,8.1-11.15,14.26-14.56,6.16-3.41,13.29-5.12,21.38-5.12s15.22,1.71,21.38,5.12c6.16,3.42,10.94,8.27,14.34,14.56,3.4,6.29,5.1,13.6,5.1,21.92s-1.7,15.63-5.1,21.92c-3.4,6.29-8.18,11.15-14.34,14.56-6.16,3.42-13.29,5.12-21.38,5.12s-15.22-1.71-21.38-5.12ZM848.42,144.67c4.75-2.88,8.42-6.93,11-12.16,2.58-5.22,3.87-11.25,3.87-18.08s-1.29-12.85-3.87-18.08-6.25-9.28-11-12.16c-4.75-2.88-10.24-4.32-16.46-4.32s-11.53,1.44-16.28,4.32-8.42,6.94-11,12.16c-2.58,5.23-3.87,11.25-3.87,18.08s1.29,12.86,3.87,18.08c2.58,5.23,6.25,9.28,11,12.16s10.18,4.32,16.28,4.32,11.7-1.44,16.46-4.32Z"/>
        <path class="cls-2" d="M908.53,93.95c0-9.06-.18-15.57-.53-19.52h16.37c.47,4.27.7,8.96.7,14.08v1.6h.53c2.35-5.44,6.07-9.68,11.18-12.72,5.1-3.04,11.12-4.56,18.04-4.56,1.88,0,3.58.16,5.1.48v12.8c-.82-.21-2.64-.32-5.46-.32-5.17,0-9.94,1.36-14.34,4.08s-7.86,6.4-10.38,11.04-3.78,9.73-3.78,15.28v38.24h-17.42v-60.48h0Z"/>
        <path class="cls-2" d="M1000.31,152.83c-4.52-2.13-8.04-5.09-10.56-8.88-2.52-3.79-3.78-8.08-3.78-12.88,0-8.11,3.4-14.32,10.21-18.64,6.8-4.32,16.48-6.48,29.04-6.48h16.54v-4c0-5.33-1.58-9.44-4.75-12.32s-7.8-4.32-13.9-4.32c-5.28,0-10.21.94-14.78,2.8-4.58,1.87-8.33,4.56-11.26,8.08l-8.27-9.44c4.22-4.48,9.36-7.92,15.4-10.32,6.04-2.4,12.58-3.6,19.62-3.6,11.26,0,20,2.48,26.22,7.44s9.33,11.98,9.33,21.04v37.12c0,4.8.7,10.13,2.11,16h-15.31c-1.17-2.56-2-6.13-2.46-10.72h-.35c-6.69,8.21-15.9,12.32-27.63,12.32-5.75,0-10.88-1.07-15.4-3.2h-.02ZM1035.16,138.99c4.4-3.15,6.6-6.96,6.6-11.44v-10.56h-17.25c-6.92,0-12.23,1.2-15.93,3.6s-5.54,5.9-5.54,10.48c0,3.95,1.44,7.04,4.31,9.28s6.78,3.36,11.7,3.36c6.34,0,11.7-1.57,16.1-4.72h.01Z"/>
        <path class="cls-2" d="M1103.89,144.51c-6.57-7.68-9.86-18.18-9.86-31.52,0-8.11,1.52-15.17,4.58-21.2,3.05-6.02,7.39-10.69,13.02-14,5.63-3.3,12.2-4.96,19.71-4.96,10.56,0,19.01,3.84,25.34,11.52h.35v-48.64h17.42v98.24c0,10.24.18,17.07.53,20.48h-16.19c-.24-2.34-.35-6.34-.35-12h-.35c-2.7,4.06-6.51,7.33-11.44,9.84-4.93,2.51-10.15,3.76-15.66,3.76-11.5,0-20.53-3.84-27.1-11.52h0ZM1150.7,137.87c4.22-3.79,6.34-8.93,6.34-15.44v-15.2c0-6.61-2.14-12-6.42-16.16s-9.89-6.24-16.81-6.24-12.53,2.48-16.46,7.44c-3.93,4.96-5.9,11.98-5.9,21.04s1.96,16.91,5.9,22.24c3.93,5.33,9.42,8,16.46,8s12.67-1.89,16.9-5.68h0Z"/>
        <path class="cls-2" d="M1216,59.39c-2.11-1.81-3.17-4.27-3.17-7.36s1.06-5.54,3.17-7.36c2.11-1.81,4.99-2.72,8.62-2.72s6.54.91,8.71,2.72c2.17,1.81,3.26,4.27,3.26,7.36s-1.09,5.55-3.26,7.36-5.08,2.72-8.71,2.72-6.51-.91-8.62-2.72ZM1216,74.43h17.42v80h-17.42s0-80,0-80Z"/>
        <path class="cls-2" d="M1281.29,144.99c-7.39-7.36-11.09-17.54-11.09-30.56s3.7-23.33,11.09-30.64c7.39-7.3,17.72-10.96,30.98-10.96,7.62,0,14.34,1.33,20.15,4s10.35,6.51,13.64,11.52l-10.38,8.48c-2.46-3.62-5.69-6.45-9.68-8.48-3.99-2.02-8.33-3.04-13.02-3.04-7.98,0-14.2,2.56-18.66,7.68-4.46,5.12-6.69,12.27-6.69,21.44s2.23,16.19,6.69,21.36,10.68,7.76,18.66,7.76c4.69,0,9.03-1.01,13.02-3.04,3.99-2.02,7.22-4.85,9.68-8.48l10.38,8.48c-3.29,5.02-7.83,8.86-13.64,11.52-5.81,2.67-12.53,4-20.15,4-13.26,0-23.58-3.68-30.98-11.04h0Z"/>
        <path class="cls-2" d="M1453.07,120.51h-62.66c.94,7.25,3.49,12.75,7.66,16.48,4.16,3.73,9.88,5.6,17.16,5.6,10.32,0,18.66-3.68,24.99-11.04l9.68,8.48c-3.4,5.01-8.27,8.93-14.61,11.76s-13.32,4.24-20.94,4.24c-13.14,0-23.38-3.65-30.71-10.96-7.33-7.31-11-17.47-11-30.48s3.7-23.22,11.09-30.64c7.39-7.41,17.54-11.12,30.45-11.12,12.2,0,21.74,3.66,28.6,10.96,6.86,7.31,10.3,17.52,10.3,30.64v6.08h-.01ZM1436.52,108.03c0-6.93-2.05-12.37-6.16-16.32-4.11-3.94-9.74-5.92-16.9-5.92-6.69,0-12.03,2.03-16.02,6.08-3.99,4.06-6.4,9.81-7.22,17.28h46.29v-1.12h.01Z"/>
      </g>
    </g>
  </g>
</svg>