<?xml version="1.0" encoding="utf-8"?>
<!-- Generator: Adobe Illustrator 22.0.0, SVG Export Plug-In . SVG Version: 6.00 Build 0)  -->
<svg version="1.1" id="Livello_1" xmlns="http://www.w3.org/2000/svg" xmlns:xlink="http://www.w3.org/1999/xlink" x="0px" y="0px"
	 viewBox="0 0 24 18" style="enable-background:new 0 0 24 18;" xml:space="preserve">
<style type="text/css">
	.st0{fill:#212121;}
</style>
<path class="st0" d="M22,10.2V10c0-1.1-0.9-2-2-2c0-4.4-3.6-8-8-8S4,3.6,4,8c-1.1,0-2,0.9-2,2v0.2c-1,0.3-1.7,1.2-1.9,2.2
	c-0.2,0.8,0,1.6,0.4,2.3c0.4,0.5,0.9,0.9,1.5,1.2V16c0,1.1,0.9,2,2,2s2-0.9,2-2v-6c0-0.7-0.4-1.4-1-1.7V8c0-3.9,3.1-7,7-7
	c3.9,0,7,3.1,7,7v0.3c-0.6,0.3-1,1-1,1.7v6c0,1.1,0.9,2,2,2s2-0.9,2-2v-0.2c1-0.3,1.7-1.2,1.9-2.2C24.2,12.1,23.4,10.7,22,10.2z
	 M1.3,14.1c-0.3-0.4-0.4-1-0.3-1.5c0.1-0.6,0.5-1,1-1.3v3.5C1.7,14.6,1.5,14.4,1.3,14.1z M5,16c0,0.6-0.4,1-1,1s-1-0.4-1-1v-6
	c0-0.6,0.4-1,1-1s1,0.4,1,1V16z M21,16c0,0.6-0.4,1-1,1s-1-0.4-1-1v-6c0-0.6,0.4-1,1-1s1,0.4,1,1V16z M23,13.4c-0.1,0.6-0.5,1-1,1.3
	v-3.5c0.3,0.2,0.5,0.4,0.7,0.6C23,12.3,23.1,12.9,23,13.4z"/>
</svg>
