<?xml version="1.0" encoding="UTF-8"?>
<svg id="Layer_2" data-name="Layer 2" xmlns="http://www.w3.org/2000/svg" xmlns:xlink="http://www.w3.org/1999/xlink" viewBox="0 0 1972.19 1806.26">
  <defs>
    <style>
      .cls-1 {
        fill: #423eaf;
      }

      .cls-2 {
        fill: #bbc0e6;
      }

      .cls-3 {
        fill: #e9edf7;
      }

      .cls-4 {
        fill: url(#linear-gradient);
      }

      .cls-5 {
        fill: #5652cc;
      }

      .cls-6 {
        fill: #807dfb;
      }

      .cls-7 {
        fill: #dde2f8;
      }

      .cls-8 {
        fill: #ffd03e;
      }

      .cls-9 {
        fill: #fff;
      }

      .cls-10 {
        fill: #ed9f00;
      }

      .cls-11 {
        fill: #a0a9d0;
      }

      .cls-12 {
        fill: #f7d3c9;
      }

      .cls-13 {
        fill: #362e94;
      }

      .cls-14 {
        fill: #20196f;
      }

      .cls-15 {
        fill: #ced3f8;
      }

      .cls-16 {
        fill: #fcba06;
      }

      .cls-17 {
        fill: #6b67e9;
      }
    </style>
    <linearGradient id="linear-gradient" x1="1554.34" y1="648.02" x2="1423.47" y2="530.98" gradientUnits="userSpaceOnUse">
      <stop offset="0" stop-color="#362e94"/>
      <stop offset=".65" stop-color="#4c47bb"/>
      <stop offset="1" stop-color="#5652cc"/>
    </linearGradient>
  </defs>
  <g id="Shadow">
    <path class="cls-3" d="M80.17,1586.04c0-19.27,357.95-34.89,799.5-34.89s799.51,15.62,799.51,34.89-357.95,34.9-799.51,34.9-799.5-15.62-799.5-34.9Z"/>
    <path class="cls-3" d="M1624.23,1660.35c0-9.4,43.77-17.03,97.75-17.03s97.75,7.62,97.75,17.03-43.77,17.03-97.75,17.03-97.75-7.62-97.75-17.03Z"/>
  </g>
  <g id="Plants">
    <g>
      <path class="cls-7" d="M1803.37,624.9c.53-35.17,31.81-46.27,50.88-51.28-.97,10.75-7.48,54-50.88,51.28Z"/>
      <path class="cls-7" d="M1551.64,810.17c-1.22,0-2.38-.76-2.82-1.98-.57-1.56.23-3.28,1.79-3.85,67.56-24.58,169.58-85.99,253.25-184.62,1.07-1.26,2.97-1.42,4.23-.35,1.27,1.07,1.42,2.96.35,4.23-84.44,99.52-187.49,161.54-255.78,186.38-.34.12-.69.18-1.03.18Z"/>
      <path class="cls-7" d="M1602.41,802.41c70.96,3.19,80.69,54.46,89.66,93.27-21.64-2.62-97.77-5.83-89.66-93.27Z"/>
      <path class="cls-7" d="M1663.17,771.73c55.81-11.69,73.61,26.23,88.34,54.61-17.35,2.28-77.18,15-88.34-54.61Z"/>
      <path class="cls-7" d="M1721.39,725.87c44.28-21,66.78,7.1,84.8,27.86-14.03,5.4-61.47,28.06-84.8-27.86Z"/>
      <path class="cls-7" d="M1773.91,677.1c22.79-20.2,41.09-7.32,55.44,1.95-7.44,5.65-31.83,27.39-55.44-1.95Z"/>
      <path class="cls-7" d="M1591.52,766.98c42.18-46.36,16.17-84.36-2.51-114.13-11.84,15.17-57.22,64.76,2.51,114.13Z"/>
      <path class="cls-7" d="M1656.98,732.37c42.16-33.84,25.1-69.71,13.18-97.59-12.11,11.33-57.45,47.5-13.18,97.59Z"/>
      <path class="cls-7" d="M1727.85,680.02c21.29-30.19,3.31-50.52-9.79-66.57-5.81,9.73-28.74,42.04,9.79,66.57Z"/>
      <path class="cls-7" d="M1773.12,641.39c15.42-15.02,7.29-28.58,1.5-39.17-4.37,4.96-20.96,21.01-1.5,39.17Z"/>
    </g>
    <g>
      <path class="cls-3" d="M557.89,1519.3c39.68-26.06,137.45-218.16,60.59-255.4-72.86-35.29-95.97,114.98-100.31,134.49-15.18-73.74-35.05-145.3-83.67-132.29-48.62,13.01,0,117.11,0,117.11-44.28-56.39-154.63-143.17-204.86-117.12-50.23,26.05,102.03,119.48,102.03,119.48-69.19-39.25-275.96-92.1-69.46,7.66-94.54-30.58-278.93-45.59-73.97,18.2-123.36-10.71-185.97,6.08-188.14,23.44-2.17,17.35,34.01,41.89,193.44,45.92-78.74,13.01-118.23,31.44-97.95,38.49h462.31Z"/>
      <path class="cls-9" d="M293.71,1426.58c0-3.54-2.87-6.4-6.4-6.4s-6.4,2.87-6.4,6.4,2.87,6.4,6.4,6.4,6.4-2.87,6.4-6.4Z"/>
      <path class="cls-9" d="M513.56,1464.27c0-5.44-4.41-9.86-9.86-9.86s-9.86,4.41-9.86,9.86,4.41,9.86,9.86,9.86,9.86-4.42,9.86-9.86Z"/>
      <path class="cls-9" d="M385.24,1391.25c0-4.65-3.77-8.41-8.41-8.41s-8.41,3.76-8.41,8.41,3.77,8.42,8.41,8.42,8.41-3.77,8.41-8.42Z"/>
    </g>
    <g>
      <path class="cls-6" d="M276.95,956.23c-16.21-88.58-95.66-116.65-196.34-83.29,30.6,77.02,116.06,140.28,196.34,83.29Z"/>
      <path class="cls-17" d="M276.95,959.23c-.34,0-.68-.06-1.01-.18-16.31-5.84-42.65-17.9-70.54-30.66-33.67-15.41-71.83-32.87-101.29-43.57-1.56-.57-2.36-2.29-1.8-3.84.57-1.56,2.29-2.36,3.84-1.79,29.69,10.78,67.96,28.3,101.73,43.75,27.77,12.71,53.99,24.71,70.06,30.47,1.56.56,2.37,2.28,1.81,3.83-.44,1.23-1.59,1.99-2.82,1.99Z"/>
    </g>
    <g>
      <path class="cls-3" d="M310.35,956.99c-128.69-27.31-166.42-144.48-113.57-290.12,111.22,47.85,200.08,175.24,113.57,290.12Z"/>
      <path class="cls-7" d="M310.35,959.99c-1.26,0-2.44-.8-2.85-2.07-7.76-23.76-24.22-62.57-41.65-103.66-21.18-49.93-45.18-106.53-59.68-150.27-.52-1.57.33-3.27,1.9-3.79,1.58-.52,3.27.33,3.79,1.9,14.43,43.51,38.38,99.99,59.51,149.82,17.48,41.21,33.98,80.14,41.83,104.14.51,1.57-.35,3.27-1.92,3.78-.31.1-.62.15-.93.15Z"/>
      <path class="cls-7" d="M264.57,846.58c-.59,0-1.2-.18-1.72-.54-1.36-.95-1.68-2.82-.73-4.18l37.26-53.12c.95-1.36,2.82-1.69,4.18-.73,1.36.95,1.68,2.82.73,4.18l-37.26,53.12c-.58.83-1.51,1.28-2.46,1.28Z"/>
      <path class="cls-7" d="M249.34,811.43c-.35,0-.71-.06-1.05-.19l-51.51-19.31c-1.55-.58-2.34-2.31-1.76-3.86.58-1.55,2.32-2.33,3.86-1.76l51.51,19.31c1.55.58,2.34,2.31,1.76,3.86-.45,1.2-1.6,1.95-2.81,1.95Z"/>
      <path class="cls-7" d="M225.76,748.7c-.38,0-.77-.07-1.15-.23-1.53-.63-2.26-2.39-1.62-3.92l9.15-22.09c.63-1.53,2.39-2.26,3.92-1.62,1.53.63,2.26,2.39,1.62,3.92l-9.15,22.09c-.48,1.16-1.6,1.85-2.77,1.85Z"/>
      <path class="cls-7" d="M284.39,893.45c-.23,0-.45-.02-.68-.08l-68.82-15.97c-1.61-.37-2.62-1.99-2.24-3.6.37-1.62,1.99-2.62,3.6-2.25l68.82,15.97c1.61.37,2.62,1.99,2.24,3.6-.32,1.39-1.56,2.32-2.92,2.32Z"/>
    </g>
  </g>
  <g id="Back_table_s_leg" data-name="Back table&amp;apos;s leg">
    <polygon class="cls-14" points="584.27 1586.04 541.3 1586.04 679.82 972.15 722.79 972.15 584.27 1586.04"/>
  </g>
  <g id="Office_chair" data-name="Office chair">
    <g>
      <g>
        <polygon class="cls-14" points="1334.31 1272.75 1350.9 1330.97 1413.38 1330.97 1429.96 1272.75 1334.31 1272.75"/>
        <rect class="cls-13" x="1363.51" y="1330.97" width="37.25" height="31.51"/>
        <rect class="cls-15" x="1371.03" y="1362.49" width="22.23" height="73.39"/>
        <path class="cls-5" d="M1208.8,1559.42c0-11.15,9.04-20.19,20.19-20.19s20.19,9.04,20.19,20.19-9.04,20.19-20.19,20.19-20.19-9.04-20.19-20.19Z"/>
        <path class="cls-13" d="M1220.03,1559.42c0-4.95,4.01-8.96,8.96-8.96s8.96,4.01,8.96,8.96-4.01,8.96-8.96,8.96-8.96-4.01-8.96-8.96Z"/>
        <path class="cls-2" d="M1371.03,1483.48c0,2.52-1.43,4.82-3.68,5.94l-130.48,46.16c-7.95,4.09-23.86,6.77-22.81-2.11h0c1.3-10.95,14.7-19.11,49.34-34.66l97.89-44.45c4.42-2.33,9.73.87,9.73,5.87v23.25Z"/>
        <path class="cls-5" d="M1555.47,1559.42c0-11.15-9.04-20.19-20.19-20.19s-20.19,9.04-20.19,20.19,9.04,20.19,20.19,20.19,20.19-9.04,20.19-20.19Z"/>
        <path class="cls-13" d="M1544.25,1559.42c0-4.95-4.01-8.96-8.96-8.96s-8.96,4.01-8.96,8.96,4.01,8.96,8.96,8.96,8.96-4.01,8.96-8.96Z"/>
        <path class="cls-2" d="M1393.25,1483.48c0,2.52,1.43,4.82,3.68,5.94l130.48,46.16c7.95,4.09,23.86,6.77,22.81-2.11h0c-1.3-10.95-14.7-19.11-49.34-34.66l-97.89-44.45c-4.42-2.33-9.73.87-9.73,5.87v23.25Z"/>
      </g>
      <g>
        <path class="cls-13" d="M1425.18,1272.75h-125.12v-16.59h125.12c40.18,0,59.71-18.72,59.71-57.22v-76.85h16.59v76.85c0,47.59-27.1,73.81-76.3,73.81Z"/>
        <path class="cls-5" d="M1566.11,1122.09h12.41c13.05,0,23.8-10.21,24.45-23.24,2.48-49.29,12.62-162.03,53.9-189.13,30.72-20.17,1.88-70.62-47.31-29.37-46.4,38.9-45.8,108.84-60.47,219.41-1.44,10.87,6.16,20.84,17.02,22.33Z"/>
        <path class="cls-17" d="M1549.09,1099.75c14.68-110.57,14.08-180.51,60.47-219.41,13.97-11.71,26.29-16.02,36.08-15.73v-.03h-175.81v.23c-10.19-1.25-23.52,2.69-38.84,15.53-46.4,38.9-45.8,108.84-60.47,219.41-1.44,10.87,6.16,20.84,17.02,22.33h178.58c-10.86-1.49-18.46-11.47-17.02-22.33Z"/>
      </g>
      <rect class="cls-17" x="1198.31" y="1210.44" width="365.05" height="62.31" rx="25.86" ry="25.86"/>
      <polygon class="cls-13" points="1352.13 1435.88 1412.14 1435.88 1399.21 1506.28 1365.06 1506.28 1352.13 1435.88"/>
    </g>
  </g>
  <g id="Laptop">
    <g>
      <path class="cls-15" d="M842.64,917.48h265.86v3.87c0,6.54-5.3,11.85-11.85,11.85h-242.17c-6.54,0-11.85-5.3-11.85-11.85v-3.87Z"/>
      <path class="cls-7" d="M745.35,726.4l113.4,189.43-2.56,1.53c-6.04,3.62-13.87,1.65-17.49-4.39l-100.31-167.55c-3.61-6.04-1.65-13.86,4.38-17.48l2.57-1.54Z"/>
      <rect class="cls-11" x="872.22" y="922.33" width="14.92" height="4.42"/>
      <rect class="cls-11" x="892.49" y="922.33" width="14.92" height="4.42"/>
    </g>
  </g>
  <g id="Man">
    <g>
      <path class="cls-12" d="M748.51,1545.13c2.83-7.73,6.94-11.63,6.94-11.63l-20.52-27.4c-7.3,6.49-12.19,14.07-19.41,21.28,2.6,9.17,19.38,7.65,32.99,17.74Z"/>
      <path class="cls-13" d="M1282.74,1000.91c-99.71,24.3-194.43,54.37-277.51,89.24-46.98,21.81-34.21,74.51-32.55,85.84,25.35,174.01,36.08,239.01,51.21,326.21h34.21c16.34-130.79,29.17-209.26,14.26-317.53,125.15-9.18,301.1-27.14,375.33-80.31,0,0-128.06-89.01-164.94-103.46Z"/>
      <path class="cls-14" d="M754.74,1522.68c-16.76,2.49-30.9,9.36-39.22,4.71-5.15,2.72-77.41,17.57-85.08,21.35-7.86,3.86-7.9,11.61-.33,12.7,11.07,1.59,102.87,10.68,102.87,10.68,1.57,2.27,2.78,4.5,2.78,4.5l20.84,2.99c7.77-9.88,10.72-42.47-1.87-56.93Z"/>
      <path class="cls-1" d="M1010.28,1236.49c-21.02,13.49-36.83,24.99-44.91,33.11-124.1,124.58-169.69,172.14-230.43,236.51,0,0,12.64,17.36,19.06,25.94,123.51-70.47,211.19-118.51,296.64-208.69l-40.35-86.87Z"/>
      <path class="cls-1" d="M1294.4,1216.81c94.83,0,146.01-51.14,163.87-101.85,0,0-130.72-87.73-175.53-114.05-94.45,70.19-206.24,174.48-272.46,235.58l40.35,86.87c67.71-29.91,152.14-66.28,243.76-106.56Z"/>
      <path class="cls-12" d="M1063.24,1514.73c-4.49-6.9-5.15-12.52-5.15-12.52h-34.21c4.81,9.67,2.53,17.93,1.21,22.77,8.9,3.42,21.92-5.41,38.15-10.25Z"/>
      <path class="cls-14" d="M1063.24,1514.73c-16.23,4.84-29.24,13.66-38.15,10.25-4.71,3.42-74.12,28.39-81.18,33.22-7.23,4.95-6.18,12.62,1.48,12.62,11.19,0,103.34-4.06,103.34-4.06,1.88,2.03,3.39,4.06,3.39,4.06h21.06c6.29-10.89,4.58-43.56-9.95-56.09Z"/>
    </g>
    <g>
      <path class="cls-10" d="M1472.57,697.76c-99.92,25.71-196.01,148.62-401.36,180.88,18.96,18.96,198.66-20.74,256.62-44.17,57.97-23.43,144.73-136.71,144.73-136.71Z"/>
      <path class="cls-16" d="M1491.39,689.6c-65.61,26.47-75.58,47.82-103.3,81.97-55.39,68.24-105.35,229.35-105.35,229.35,96.05,58.68,175.53,114.05,175.53,114.05,27.87-45.35,116.28-211.24,130.82-293.41,14.54-82.16-16.34-111.71-23.5-128.8-35.51-14.52-74.2-3.16-74.2-3.16Z"/>
      <path class="cls-10" d="M1358.37,817.06c-19.31,34.9-36.73,76.18-49.97,110.79,168.39-17.96,279.8-151.53,256.17-203.9-29.22-64.74-127.89,38.14-206.2,93.11Z"/>
      <path class="cls-8" d="M1564.57,723.95c20.22,53.79-99.58,179.92-268.8,186.99-109.76,4.58-166.1,11.31-246.68,6.55v-36.39c29.42-.03,191.13-37.44,251.56-52.85,80.3-20.48,233.09-186.33,263.92-104.29Z"/>
      <path class="cls-12" d="M1049.09,881.1c-14.8,0-57.54-12.99-72.34-12.99s-50.98,48.68-40.29,48.68c6.4,0,18.09-10.66,27.51-19.23-3.11,9.09-5.47,19.23-2.03,19.23,3.11,0,9.83-10.36,14.92-19.03,1.58,9.79,4.44,20.74,7.59,19.03,2.16-1.17,3.21-9.12,3.72-17.37,6.07,8.17,14.15,18.07,24.1,18.07h36.82v-36.39Z"/>
    </g>
    <g>
      <path class="cls-12" d="M1495.56,626.03c1.35,20.35-8.75,65.45-8.75,65.45,13.7,0,34.26.33,70.91-1.51-2.48-20.49-5.58-45.18-3.35-66.4,1.04-9.86-58.8,2.47-58.8,2.47Z"/>
      <path class="cls-12" d="M1448.71,551.18c-.64,21.71-4.24,86.86,11.81,107.57,13.19,17.01,34.71,16.77,66.78-.07,40.21-21.13,35.99-79.72,33.64-98.1-4.66-36.47-111.31-40.88-112.23-9.39Z"/>
      <path class="cls-4" d="M1557.34,540.93c-13.06-33.04-39.05-40.51-76.57-34.53-28.37,4.52-69.02,19.67-32.13,46.83,12.03,8.86,59.41-20.04,70.67-10.55,7.95,6.7,10.97,18.3,11.71,30.74,1.16-.84,2.44-1.35,3.81-1.35,4.77,0,8.63,5.66,8.63,12.64s-3.86,12.64-8.63,12.64c-1.61,0-3.1-.69-4.38-1.81-.94,10.17-2.44,19.3-3,24.93h-77.97c0,17.62,1.58,54.37,2.87,55.65,1.57,1.57,45.79-2.31,76.58-15.84,13.84-6.08,9.11-23.55,12.07-39.82h-.18c2.25-14.21,11.46,11.15,14.3,5.73,12.71-24.23,10.46-64.47,2.23-85.28Z"/>
    </g>
  </g>
  <g id="Table">
    <rect class="cls-1" x="259.34" y="933.2" width="1028.54" height="38.95"/>
    <polygon class="cls-6" points="288.56 1586.04 245.59 1586.04 384.11 972.15 427.08 972.15 288.56 1586.04"/>
    <polygon class="cls-6" points="1262.89 1586.04 1305.87 1586.04 1167.34 972.15 1124.37 972.15 1262.89 1586.04"/>
  </g>
  <g id="Lamp">
    <g>
      <path class="cls-15" d="M559.44,901.8c-3.58,0-6.97-2.15-8.37-5.69l-77.25-195.03c-1.43-3.62-.38-7.74,2.61-10.23l291.43-242.85c3.82-3.18,9.49-2.67,12.68,1.15,3.18,3.82,2.67,9.49-1.15,12.68l-286.42,238.68,74.85,188.98c1.83,4.62-.43,9.85-5.05,11.68-1.09.43-2.21.64-3.31.64Z"/>
      <circle class="cls-7" cx="482.19" cy="697.76" r="26.35" transform="translate(-306.35 1010.16) rotate(-76.97)"/>
      <circle class="cls-2" cx="482.19" cy="697.76" r="8.76"/>
      <circle class="cls-7" cx="559.44" cy="892.79" r="37.27" transform="translate(-401.19 1325.52) rotate(-82.18)"/>
      <circle class="cls-2" cx="559.44" cy="892.79" r="12.39"/>
    </g>
    <path class="cls-6" d="M467.24,907.91h184.39c6.65,0,12.06,5.4,12.06,12.06v13.23h-208.5v-13.23c0-6.65,5.4-12.06,12.06-12.06Z"/>
    <g>
      <path class="cls-6" d="M843.43,453.92c-26.89-14.18-68.72-66.25-75.95-76.81-5.93,2.5-27.22,17.08-31.7,21.69,7.23,10.57,40.61,68.42,44.09,98.62,3.89,33.73-43.12,80.71-17.14,107.15l93.4-63.91,93.4-63.91c-15.24-33.8-76.05-7-106.09-22.84Z"/>
      <path class="cls-17" d="M812.69,504.52c5-32.89-43-83.61-66.57-113.89-4.68,3.35-8.68,6.45-10.35,8.17,7.23,10.57,40.61,68.42,44.09,98.62,3.89,33.73-43.12,80.71-17.14,107.15l59.59-40.77c-4.74-10.93-13.31-34.99-9.62-59.28Z"/>
    </g>
  </g>
  <g id="Clock">
    <circle class="cls-3" cx="1352.13" cy="204.22" r="139.23" transform="translate(251.63 1015.91) rotate(-45)"/>
    <circle class="cls-9" cx="1352.13" cy="204.22" r="113.32"/>
    <path class="cls-16" d="M1352.13,210.22c-1.54,0-3.07-.59-4.24-1.76-2.34-2.34-2.34-6.14,0-8.48l66.18-66.18c2.34-2.34,6.14-2.34,8.48,0,2.34,2.34,2.34,6.14,0,8.48l-66.18,66.18c-1.17,1.17-2.71,1.76-4.24,1.76Z"/>
    <path class="cls-16" d="M1352.14,213.22c-.7,0-1.41-.08-2.12-.25l-65.09-15.7c-4.83-1.17-7.8-6.03-6.64-10.86,1.16-4.83,6.02-7.8,10.86-6.64l65.09,15.7c4.83,1.17,7.8,6.03,6.64,10.86-.99,4.12-4.68,6.89-8.74,6.89Z"/>
    <circle class="cls-8" cx="1352.13" cy="204.22" r="24.22" transform="translate(935.55 1506.68) rotate(-80.85)"/>
  </g>
  <g id="Room_plant" data-name="Room plant">
    <path class="cls-6" d="M1766.46,1426.17c11.81,11.81,39.82,4.86,63.12-11.65,23.31-16.51,101.7-63.12,122.09-73.81,20.39-10.68,26.22-33.02,14.57-43.7-11.65-10.68-80.33-5.68-135.69,38.92-55.36,44.6-78.66,75.68-64.1,90.24Z"/>
    <path class="cls-6" d="M1694.36,1405.12c17.62,12.73,90.56-72.17,122.6-134.33,32.05-62.15,18.18-126.26-15.81-127.22-33.99-.97-65.77,43.77-69.65,79.67-3.88,35.9,4.37,69.01-17.97,97.57-18.64,23.82-39.3,69.78-19.18,84.31Z"/>
    <path class="cls-6" d="M1663.04,1461.16c13.28,0,5.88-52.31-4.55-76.93-13.11-30.95-66.18-59.18-88.06-20.58-16.39,28.92,46.75,33.94,59.84,47.71,19.69,20.71,12.11,49.8,32.78,49.8Z"/>
    <path class="cls-1" d="M1740.73,1539.88c-.74,0-1.49-.27-2.07-.83-1.2-1.14-1.25-3.04-.11-4.24,8.58-9.03,18.71-25.43,20.69-40.09,1.08-8.01-1.46-15.42-4.15-23.27-4.77-13.91-10.17-29.67,9.34-47.5,23.64-21.6,115.99-83.02,133.08-90.76,1.51-.68,3.29-.01,3.97,1.5.68,1.51.01,3.29-1.5,3.97-16.03,7.26-108.55,68.75-131.5,89.72-16.6,15.17-12.48,27.2-7.71,41.12,2.79,8.16,5.69,16.6,4.42,26.02-2.16,15.99-13.07,33.71-22.29,43.42-.59.62-1.38.93-2.17.93Z"/>
    <path class="cls-1" d="M1722.76,1539.69c-.4,0-.8-.08-1.19-.25-1.52-.66-2.22-2.43-1.56-3.95,13.45-31.04-.43-52.67-13.86-73.6-11.84-18.46-23.03-35.9-14.59-57.86,6.29-16.37,19.89-36.43,35.62-59.66,8.53-12.58,17.34-25.59,25.93-39.38,23.72-38.06,38.24-106.66,38.24-131.33,0-1.66,1.34-3,3-3s3,1.34,3,3c0,25.28-14.86,95.55-39.15,134.51-8.65,13.88-17.5,26.94-26.06,39.57-15.53,22.92-28.95,42.71-34.99,58.44-7.35,19.12,2.56,34.57,14.04,52.46,13.61,21.21,29.03,45.25,14.31,79.22-.49,1.13-1.6,1.81-2.76,1.81Z"/>
    <path class="cls-1" d="M1701.4,1539.88c-.18,0-.36-.01-.54-.05-1.63-.3-2.71-1.86-2.41-3.49,4.86-26.75-1.9-31.85-18.25-44.18-2.01-1.52-4.14-3.13-6.39-4.88-15.22-11.88-18.87-40.96-20.07-50.51-.21-1.65.96-3.15,2.6-3.35,1.7-.19,3.15.96,3.35,2.6,1.12,8.95,4.54,36.18,17.81,46.53,2.22,1.73,4.32,3.32,6.31,4.82,16.8,12.68,26.06,19.66,20.53,50.04-.26,1.45-1.52,2.46-2.95,2.46Z"/>
    <polygon class="cls-15" points="1647.99 1531.06 1673.7 1660.35 1770.28 1660.35 1795.98 1531.06 1647.99 1531.06"/>
  </g>
  <g id="Book_shelf" data-name="Book shelf">
    <g>
      <path class="cls-15" d="M262.78,203.81c11.95-7.28,21.58-18.51,16.56-25.59-4.78-6.74-17.74-1.81-28.81,5.94,1.25-12.07-1.16-23.48-8.73-24.35-14.84-1.7-19.13,41.92-12.07,51.73,7.18,14.32,49.14,22.3,51.9,7.58,1.32-6.99-7.82-12.32-18.85-15.3Z"/>
      <path class="cls-6" d="M187.19,329.26s-.06,0-.09,0c-1.66-.05-2.96-1.43-2.91-3.08,1.52-53.93,27.42-106.22,43.88-117.13,1.38-.92,3.24-.54,4.16.84.92,1.38.54,3.24-.84,4.16-13.66,9.06-39.68,58.57-41.2,112.3-.05,1.63-1.38,2.92-3,2.92Z"/>
      <path class="cls-6" d="M245.11,214.65c-.96-2.21-3.68-3.54-6.23-4.52,2.94-2.4,5.67-7.67,2.63-10.49-2.17-2.01-5.82,1.41-8.54,4.88-.13-1.33-.29-2.87-.91-4.52-4.43-11.71-8.42,7.68-3.85,12.65.98,1.07,3.21,2.84,5.68,4.47,5.2,3.43,13.06,1.79,11.22-2.47Z"/>
    </g>
    <rect class="cls-3" x="110.19" y="457.84" width="380.76" height="27.13"/>
    <g>
      <rect class="cls-7" x="289.81" y="255.41" width="67.5" height="202.43"/>
      <rect class="cls-15" x="302.56" y="327.49" width="42" height="19.43"/>
      <rect class="cls-15" x="302.56" y="283.2" width="42" height="7.14"/>
      <rect class="cls-9" x="311.25" y="296.7" width="24.63" height="7.14"/>
    </g>
    <g>
      <rect class="cls-15" x="357.31" y="228.43" width="42.75" height="229.41"/>
      <rect class="cls-7" x="357.31" y="259.41" width="42.75" height="6.5"/>
      <rect class="cls-7" x="357.31" y="272.66" width="42.75" height="6.5"/>
      <rect class="cls-7" x="357.31" y="420.36" width="42.75" height="6.5"/>
      <rect class="cls-7" x="357.31" y="407.11" width="42.75" height="6.5"/>
    </g>
    <rect class="cls-15" x="425.69" y="274.89" width="33.9" height="181.93" transform="translate(-86.66 143.09) rotate(-16.75)"/>
    <path class="cls-7" d="M433.19,334.47c-5.18,1.56-8.11,7.02-6.56,12.2l13.25,44.01c1.56,5.18,7.02,8.11,12.2,6.56,5.18-1.56,8.12-7.02,6.56-12.2l-13.25-44.01c-1.56-5.18-7.02-8.11-12.2-6.56Z"/>
    <rect class="cls-15" x="147.19" y="450.91" width="80" height="6.93"/>
    <path class="cls-7" d="M235.19,386.91c-29.25-32.25-33.5-77.5-33.5-93h-29c0,15.5-4.25,60.75-33.5,93-41.49,45.75-23.5,51.5,8,64h80c31.5-12.5,49.49-18.25,8-64Z"/>
    <path class="cls-15" d="M227.19,450.91c31.5-12.5,49.49-18.25,8-64-29.25-32.25-33.5-77.5-33.5-93h-6.38c1.04,15.74,3.53,45.14,8.38,62.71,7.33,26.55,22,50.79,23.5,60.79,1.5,10-8,22.5-18,33.5h18Z"/>
  </g>
  <g id="Secondary_shapes" data-name="Secondary shapes">
    <path class="cls-6" d="M1767.39,328.35l-31.9-12.68c-2.49-.99-5.33-.58-7.44,1.09l-26.93,21.29c-2.11,1.66-3.17,4.33-2.78,6.98l4.98,33.97c.39,2.66,2.16,4.9,4.66,5.89l31.9,12.68c2.49.99,5.33.57,7.44-1.09l26.93-21.29c2.11-1.66,3.16-4.32,2.77-6.98l-4.97-33.97c-.39-2.65-2.17-4.9-4.66-5.89Z"/>
    <path class="cls-8" d="M74.28,1170.19l16.3-32.02c1.88-3.7,6.41-5.18,10.1-3.29l32.02,16.3c3.7,1.88,5.17,6.41,3.29,10.11l-16.3,32.02c-1.88,3.7-6.4,5.17-10.1,3.29l-32.02-16.3c-3.7-1.89-5.17-6.41-3.29-10.11Z"/>
    <path class="cls-8" d="M1432.07,1751.45l18.9,49.95c2.05,5.41,9.18,6.57,12.84,2.09l33.81-41.34c3.66-4.48,1.1-11.24-4.61-12.17l-52.71-8.61c-5.71-.93-10.28,4.66-8.24,10.08Z"/>
    <path class="cls-8" d="M649.63.1l-52.7,8.62c-5.71.93-8.27,7.7-4.6,12.17l33.82,41.33c3.67,4.48,10.8,3.31,12.85-2.1l18.88-49.96c2.05-5.41-2.53-11.01-8.24-10.07Z"/>
  </g>
</svg>