<?xml version="1.0" encoding="UTF-8"?>
<svg id="Layer_2" xmlns="http://www.w3.org/2000/svg" xmlns:xlink="http://www.w3.org/1999/xlink" version="1.1" viewBox="0 0 1595.4 1498.2">
  <!-- Generator: Adobe Illustrator 29.0.1, SVG Export Plug-In . SVG Version: 2.1.0 Build 192)  -->
  <defs>
    <style>
      .st0 {
        fill: #f8d8d0;
      }

      .st1 {
        fill: #423eaf;
      }

      .st2 {
        fill: #bbc0e6;
      }

      .st3 {
        fill: #e9edf7;
      }

      .st4 {
        fill: #e7eeff;
      }

      .st5 {
        fill: url(#linear-gradient);
      }

      .st6 {
        fill: #5652cc;
      }

      .st7 {
        fill: #807dfb;
      }

      .st8 {
        fill: #dde2f8;
      }

      .st9 {
        fill: #ffd03e;
      }

      .st10 {
        fill: #fff;
      }

      .st11 {
        fill: #c4cae9;
      }

      .st12 {
        fill: #ed9f00;
      }

      .st13 {
        fill: #e19100;
      }

      .st14 {
        fill: #362e94;
      }

      .st15 {
        fill: #f0ccc0;
      }

      .st16 {
        fill: #20196f;
      }

      .st17 {
        fill: #ced3f8;
      }

      .st18 {
        fill: #fcba06;
      }

      .st19 {
        fill: #6b67e9;
      }
    </style>
    <linearGradient id="linear-gradient" x1="2640.2" y1="606.8" x2="2557" y2="102.2" gradientTransform="translate(3619.6 1495.9) rotate(-180)" gradientUnits="userSpaceOnUse">
      <stop offset="0" stop-color="#423eaf"/>
      <stop offset=".6" stop-color="#4d49c0"/>
      <stop offset="1" stop-color="#5652cc"/>
    </linearGradient>
  </defs>
  <g id="Shadow">
    <path class="st4" d="M490.4,1458.4c0-22,170.3-39.8,380.3-39.8s380.3,17.8,380.3,39.8-170.2,39.8-380.3,39.8-380.3-17.8-380.3-39.8h0Z"/>
  </g>
  <g id="Plants">
    <path class="st17" d="M1073.4,1308.2c-13.8-3.7-67.5-128.2-44.6-139.9,17.8-9.1,28,9.8,31.2,16.9,5,11.3,15.2,39.2,22.8,34.2,13.9-9-20.8-76.2-28.3-93.1s-17.4-51.7-6.2-68.7c11.2-17,17.6-22.5,29,7.8s26.5,92.7,37.6,72c11-20.8-11.9-66.6-15.5-97.6-3.6-31,0-91.3,20.6-80.1,18.4,10,15.9,102.1,30.5,95.6,11.7-5.2,2.9-30.4,1.9-71.5-1-41.1-1.6-79.9,22.6-82.6,19.4-2.2,14.6,24.2,15.4,46.4.8,22.2,3.2,53,12.9,45.2,9.8-7.8-4.8-115.8,25.8-126.3,20.2-7,16,17,18.5,42.7,2.4,25.7,5.2,34.6,10.1,32.5,4.9-2.2,7.2-37.3,8-56.7.8-19.4,8.5-46.8,26.4-46.6,18,.2,13.5,31.1,9.3,42.1s-3.7,23.4-.4,24.6c3.3,1.3,19.9-34,36.7-22.4,16.8,11.6-2.4,43.8-21,52-18.5,8.2-43.3,19.9-40.3,26.7s24.5-2.6,41.4-10.1c16.9-7.5,25.3-6.5,27.3-2,6.7,15.2-9.7,37.7-22,43.1-12.3,5.5-85.6,26.9-81.2,37,4.4,10.1,31.1-.9,44.7-6.9,13.7-6,45.5-20.1,53-3.2s-31.4,44.9-58.2,54.8c-26.7,9.8-71.2,22.5-67.8,30.3s40.9,3.7,57.4-3.6c16.6-7.3,42.4-28.8,51.6-8,9.2,20.8-14.3,36.2-46.8,50.6-13.6,6-47.4,20.5-70.8,17-26.6-4-40.4-1.6-41.6,4.6-2.3,12.3,21.5,12.7,38.5,9s69.3-18.1,70.5,9.3-43.8,28.3-61.9,30.4c-18.1,2.2-82.4,4.1-82,18.3.4,14.2,34,4,44.8,2s34.4.9,30.7,10.6c-3.7,9.6-106,70.4-130.7,63.8h0Z"/>
    <g>
      <path class="st6" d="M603.1,1224.2c-70.9-73-163.1-49.4-236.6,45.2,77.1,53.1,197,58.8,236.6-45.2Z"/>
      <path class="st1" d="M395.2,1264.9c-1.1,0-2.1-.8-2.4-1.9-.3-1.3.5-2.7,1.8-3,34.6-8.5,81.5-16.1,122.9-22.8,34.1-5.5,66.2-10.7,85-15.4,1.3-.3,2.7.5,3,1.8.3,1.3-.5,2.7-1.8,3-18.9,4.8-51.2,10-85.4,15.5-41.3,6.7-88.1,14.3-122.5,22.7-.2,0-.4,0-.6,0h0Z"/>
    </g>
    <g>
      <path class="st7" d="M607.6,1185.2c9.6-168.4-122.6-254.6-320.6-238.3,21.7,153.7,149.3,306.6,320.6,238.3Z"/>
      <path class="st6" d="M607.6,1187.7c-.5,0-1-.1-1.4-.4-27-17.8-69.5-51.3-114.6-86.8-54.5-43-116.4-91.7-165.4-124.2-1.1-.8-1.5-2.3-.7-3.5.8-1.2,2.3-1.5,3.5-.7,49.2,32.7,111.1,81.4,165.7,124.5,45,35.4,87.4,68.9,114.2,86.5,1.1.8,1.5,2.3.7,3.5-.5.7-1.3,1.1-2.1,1.1Z"/>
    </g>
    <g>
      <path class="st7" d="M394.7,694.6c.4,0,.8,0,1.2.3,102.9,69.3,167.7,189.7,176.2,210.5.4.9,0,1.9-.9,2.2-.9.3-1.9,0-2.2-.9-8.4-20.7-72.8-140.1-175-209-.8-.5-1-1.6-.5-2.4.3-.4.7-.7,1.2-.7h0Z"/>
      <path class="st7" d="M542,856.2c31,9.1,62.9-26.5,58.2-79.8-44-1.8-76.9,50.7-67.8,64.8,3.5,5.5,9.6,15,9.6,15h0Z"/>
      <path class="st7" d="M490.4,784.1c29.2,2.3,51-35.3,36.8-81.9-39.5,6.6-58.9,59.5-48.2,70.3,4.2,4.2,11.4,11.6,11.4,11.6Z"/>
      <path class="st7" d="M521.1,825.2c-4.5,29-46.1,41.5-88.1,17.1,15.5-36.9,71.4-43.7,79.5-30.8,3.2,5,8.6,13.7,8.6,13.7h0Z"/>
      <path class="st7" d="M426.5,720.3c21.3-.9,33.7-29.8,19.5-62.2-27.9,8.2-37.3,47.9-28.7,54.8,3.4,2.7,9.2,7.3,9.2,7.3h0Z"/>
      <path class="st7" d="M401.1,690.8c2-17.8-17.9-33.4-47.1-28.1,1.3,24.4,25.8,41.6,40.2,39.5,3.6-.5,5.9-2.2,6.9-11.5Z"/>
      <path class="st7" d="M459.3,751.3c.7,21.3-27.2,35.8-60.5,24.1,6.1-28.4,45-40.8,52.5-32.7,3,3.2,8,8.6,8,8.6h0Z"/>
    </g>
    <g>
      <path class="st17" d="M800.2,945.4c-8.6,0-16.6-1.9-23.5-5.8-10-5.7-16.7-15.1-18.4-25.5-8.1-1.3-18-6.2-23.6-16.9-5.7-10.8-8.5-30.5,10.2-63,.7-1.2,2.2-1.6,3.4-.9,1.2.7,1.6,2.2.9,3.4-17.6,30.5-15.2,48.5-10.1,58.2,5.2,9.8,14.5,13.9,21.6,14.5,1.2,0,2.2,1,2.3,2.3.9,9.8,6.8,18.4,16.1,23.7,13.4,7.6,31.6,6.8,50-2,1.2-.6,2.7,0,3.3,1.2.6,1.2,0,2.7-1.2,3.3-10.7,5.1-21.3,7.7-31.2,7.7h0Z"/>
      <path class="st17" d="M799.1,933c-4.9,0-9.7-.7-14.2-2-11.2-3.3-20.4-10.6-24.4-19.2-9.2-5.8-15.1-15.7-16.2-27.4-1.7-18.2,7.7-37.5,25.6-53.2,1-.9,2.6-.8,3.5.2.9,1,.8,2.6-.2,3.5-16.7,14.5-25.4,32.4-23.9,48.9,1,10.6,6.1,19.1,14.5,24,.5.3.8.7,1,1.2,3.2,7.6,11.4,14.2,21.5,17.1,15.8,4.6,34.3.3,52.2-12.2,1.1-.8,2.7-.5,3.5.6.8,1.1.5,2.7-.6,3.5-14.1,9.8-28.7,14.8-42.2,14.8h0Z"/>
      <path class="st17" d="M790.9,921.2c-4.6,0-8.8-.5-12.5-1.4-7.9-2-13.2-5.8-15.4-11.1-6.8-7.6-8.8-16.5-5.7-26.5,6.8-22.1,36.2-42.5,46.3-44.8,1.3-.3,2.7.5,3,1.9.3,1.3-.5,2.7-1.9,3-8,1.9-36.4,21.2-42.6,41.4-2.5,8.3-.9,15.7,4.9,22,.2.2.4.5.5.8,1.4,3.8,5.8,6.8,12.1,8.4,16.2,4,44.2-1.3,64.3-19.1,1-.9,2.6-.8,3.5.2.9,1,.8,2.6-.2,3.5-16.8,15-39.1,21.6-56.3,21.6h0Z"/>
      <path class="st17" d="M778.9,910.7c-5,0-9.8-.2-14-.8-.7,0-1.3-.5-1.7-1.1-.4-.6-.5-1.3-.3-2,4.5-18,26.4-43.9,37-49.4,1.2-.6,2.7-.2,3.4,1.1.6,1.2.2,2.7-1.1,3.4-8.9,4.6-28.1,27.2-33.6,43.4,19.3,1.8,48.3-2.3,55.4-6.1,1.2-.7,2.7-.2,3.4,1,.7,1.2.2,2.7-1,3.4-6.5,3.5-28.3,7.1-47.3,7.1h0Z"/>
      <path class="st17" d="M765.2,909.9c-1.2,0-2.3-.9-2.5-2.1-.2-1.4.7-2.7,2-2.9,18.1-3,38.6-6.5,64.9-23.2,1.2-.7,2.7-.4,3.5.8.7,1.2.4,2.7-.8,3.5-27.1,17.2-48.2,20.8-66.7,23.9-.1,0-.3,0-.4,0h0Z"/>
      <path class="st17" d="M769.8,909.1c-.5,0-1-.1-1.4-.5-1.1-.8-1.4-2.3-.6-3.5,10.6-15.2,48.9-40.2,65-42.6,1.4-.2,2.6.8,2.8,2.1s-.8,2.6-2.1,2.8c-14.6,2.1-52,26.7-61.7,40.5-.5.7-1.3,1.1-2,1.1h0Z"/>
      <path class="st17" d="M647.4,1013.9c-.6,0-1.1-.2-1.6-.6-1.1-.9-1.2-2.5-.3-3.5,26.2-31.1,100.5-93.4,114-100.3,1.2-.6,2.7-.1,3.4,1.1.6,1.2.1,2.7-1.1,3.4-13.3,6.8-86.5,68.2-112.4,99-.5.6-1.2.9-1.9.9h0Z"/>
    </g>
    <g>
      <path class="st3" d="M1093.7,1392.1c-35.7-23.4-123.6-196.2-54.5-229.7,65.5-31.7,86.3,103.4,90.2,120.9,13.7-66.3,31.5-130.7,75.2-119,43.7,11.7,0,105.3,0,105.3,39.8-50.7,139.1-128.7,184.2-105.3,45.2,23.4-91.8,107.4-91.8,107.4,62.2-35.3,248.2-82.8,62.5,6.9,85-27.5,250.8-41,66.5,16.4,110.9-9.6,167.2,5.5,169.2,21.1,1.9,15.6-30.6,37.7-173.9,41.3,70.8,11.7,106.3,28.3,88.1,34.6h-415.7,0Z"/>
      <path class="st10" d="M1331.2,1308.7c0-3.2,2.6-5.8,5.8-5.8s5.8,2.6,5.8,5.8-2.6,5.8-5.8,5.8-5.8-2.6-5.8-5.8Z"/>
      <path class="st10" d="M1133.5,1342.6c0-4.9,4-8.9,8.9-8.9s8.9,4,8.9,8.9-4,8.9-8.9,8.9-8.9-4-8.9-8.9Z"/>
      <path class="st10" d="M1248.9,1276.9c0-4.2,3.4-7.6,7.6-7.6s7.6,3.4,7.6,7.6-3.4,7.6-7.6,7.6-7.6-3.4-7.6-7.6Z"/>
    </g>
  </g>
  <g id="Man">
    <g>
      <path class="st14" d="M866.7,891c0,68.7.2,358.9.2,499.6h33.4c11.1-34.9,99.1-433.2,108.6-499.6h-142.2,0Z"/>
      <path class="st16" d="M891.9,1417.5c-11.8,3.5-21.3,10-27.8,7.5-3.4,2.5-54.1,20.7-59.2,24.2-5.3,3.6-4.5,9.2,1.1,9.2,8.2,0,75.4-3,75.4-3,1.4,1.5,2.5,3,2.5,3h15.4c4.6-7.9,3.3-31.8-7.3-40.9h0Z"/>
    </g>
    <g>
      <path class="st16" d="M1075.5,1417.5c-11.8,3.5-21.3,10-27.8,7.5-3.4,2.5-54.1,20.7-59.2,24.2-5.3,3.6-4.5,9.2,1.1,9.2,8.2,0,75.4-3,75.4-3,1.4,1.5,2.5,3,2.5,3h15.4c4.6-7.9,3.3-31.8-7.2-40.9h0Z"/>
      <path class="st5" d="M1050.9,891c1.4,26.1,24.5,358.9,24.5,499.6h-42.6c-14-34.9-114.6-433.2-124.1-499.6h142.2Z"/>
    </g>
    <g>
      <path class="st0" d="M704,655.3c-6.5-4.7-2.7-8.6-7.7-15.6-4.8-6.6-6.7-18.8-9.4-18.4s-.1,14.1.5,16.7c-3.6-3.1-20.8-20.9-25.2-17.1-3.6,3.1-7.9,2-9.5,7.3-1.6,5.3,0,17.2,8.4,25,8.3,7.8,13.8,13,19.8,14.7,6.3,1.9,12.2,6.5,12.2,6.5,0,0,1.6,1.5,4.4,4.2l14.6-18c-3.6-2-5.7-3.7-8.2-5.3h0Z"/>
      <path class="st7" d="M887.7,726l-33.8-52.1c-18.7,17.1-35.3,31.7-40.8,35.5-22.4-9.4-76.4-39.7-100.2-52.5l-19.4,23.2c16.9,15.7,81.9,70.5,110.3,87.5,20.4.9,53.2-18.5,83.9-41.5h0Z"/>
      <path class="st17" d="M954.1,667.1c-15.6-13.3-22.1-37.8-38-52.9-12.9,13.7-41,36.8-64,57.8l35.6,56.6c27.5-20.7,53.2-46.9,66.4-61.5h0Z"/>
    </g>
    <path class="st8" d="M1050.9,891h-184.1c0-91.4,18.9-254.4,56.9-284,45-35,69.1-24.3,95.8,18,36.1,57.1,21.2,170.5,31.4,266h0Z"/>
    <g>
      <path class="st0" d="M1008.3,551.7c-3,8.4-10.9,41.3-5.7,52.4-6.2,2.8-35.5,2.2-54.5-10.9,5.7-4.5,13.7-6.7,10.2-17.8-3.8-12.1-17.6-.1-22-19.6-5.1-22.7,1-63.7,13.3-72.8,13.7-10.1,38.8-20.6,64.1,3.1,20.7,19.4.8,48.4-5.4,65.5h0Z"/>
      <path class="st19" d="M1013.6,486.2c-25.3-23.8-50.5-13.3-64.1-3.1-1.6,1.2-3,2.9-4.4,5,19.1,2.2,37.8,9.3,42.4,15.5,3.9,5.2-3.4,21.9,3.3,23.3,9.5,2,11.4-16.2,15.6-15.1,4.2,1.1,6.8,7.6,3.8,15.9-2.2,6.2-8,18.8-1.4,22.7,6.6-17.3,25.1-45.3,4.9-64.2h0Z"/>
      <path class="st16" d="M987.5,503.6c-4.7-6.2-23.3-13.4-42.4-15.5-19.1-2.2-25.3-29.2-11.1-36.6,14.2-7.4,22,9,31.5,8,11.2-1.1,15.4-12.6,27.3-6.2,9.8,5.2,4,14.4,13,17.5,13.1,4.5,37.1,23.3,16.7,41.1-6.8,5.9-31.1-3-35.1-8.2h0Z"/>
      <path class="st11" d="M1001.7,595.6c-5.5,1.4-37.7-.2-46.9-8.8-2.8,2.1-5,4.1-6.7,6.4,6.4,6.1,33.2,17.1,54.9,11.5-.5-3.6-1.3-9.1-1.3-9.1Z"/>
    </g>
    <path class="st17" d="M1043.1,715.1h-20.3c2.8,29,21.7,175.9,21.7,175.9h6.4c-6.2-57.5-3.2-121.6-7.8-175.9h0Z"/>
    <g>
      <path class="st0" d="M1047.8,879.4c-4.2,3.4-31.4,15.6-40.3,20.8-9,5.2-12.1,11.8-7.9,15.6,4.2,3.8,34.3,6.9,46.8,0s21.5-21.2,21.5-21.2l-20.1-15.2h0Z"/>
      <path class="st7" d="M1101.2,695.5l-41.1,51.5c15,13.3,28.7,25.2,33.2,28.4,0,0-34.6,78.7-48.9,101,0,0,15.4,13.1,24.1,23.7,0,0,89.5-108.7,90.8-126.8.7-8.8-25.7-42.4-58.2-77.9h0Z"/>
      <path class="st8" d="M1003,604.7l6,96.4s27.7,28.6,51.5,49.7l44.4-57.1c-34-37-78.3-74.1-101.9-89h0Z"/>
    </g>
    <path class="st15" d="M895.2,1390.6h-28.2c0,2.4-.3,6-.5,9.9h27.3c.7-5.4,1.4-9.9,1.4-9.9h0Z"/>
    <path class="st12" d="M866.4,1400.4c-.6,9.8-1.6,22-2.3,24.5,6.5,2.5,16-3.9,27.8-7.5,0-2.8,1-10.5,1.8-17h-27.3Z"/>
    <path class="st12" d="M1043.5,1400.4c2.5,10.3,4.9,21.9,4.2,24.5,6.5,2.5,16-3.9,27.8-7.5,0-2.8,0-10.5,0-17h-31.9Z"/>
    <path class="st15" d="M1075.4,1390.6h-34.4c.8,2.8,1.6,6.3,2.5,9.9h31.9c0-5.4,0-9.9,0-9.9Z"/>
  </g>
  <g id="_">
    <g>
      <circle class="st18" cx="1175.6" cy="461.9" r="88.8" transform="translate(17.7 966.5) rotate(-45)"/>
      <path class="st10" d="M1169.5,487.7h0c-1.2-.3-1.9-1.4-1.7-2.5,1-6.8,1.4-15,1.4-24.5v-21.4c-.2-12.8.4-21.8,1.6-27.1,1.1-4.8,3.4-8.3,6.9-10.5,3.5-2.2,7.6-2.8,12.2-1.8,4.4,1,7.8,3.4,10.1,7,2.2,3.6,2.8,7.7,1.8,12.2-1.1,4.7-4.7,13.1-10.8,25.3l-9.6,19.1c-3.2,6.3-6.2,13.9-9.1,22.7-.4,1.1-1.5,1.8-2.7,1.5h0ZM1168,493.9c4.1,1,7.3,3.3,9.6,6.9s2.9,7.5,1.9,11.7c-1,4.1-3.3,7.3-6.9,9.6-3.6,2.2-7.5,2.9-11.7,1.9-4.1-1-7.3-3.3-9.6-6.9s-2.9-7.5-1.9-11.6c1-4.1,3.2-7.4,6.8-9.6s7.5-3,11.7-2h0Z"/>
    </g>
  </g>
  <g id="Pencil">
    <g>
      <polygon class="st8" points="563.9 1275.4 683.6 1275.4 643.6 1395.4 603.9 1395.4 563.9 1275.4"/>
      <polygon class="st16" points="603.9 1395.4 643.6 1395.4 623.8 1454.8 603.9 1395.4"/>
      <path class="st18" d="M623.8,1275.4v-733h-59.8v733l17.9,24.5c5.9,8.1,18.1,8.1,24,0l17.9-24.5h0Z"/>
      <path class="st13" d="M683.6,1275.4v-733h-59.8v733l17.9,24.5c6,8.1,18.1,8.1,24,0l17.9-24.5h0Z"/>
    </g>
    <g>
      <path class="st19" d="M701.5,502.2c0-5.6-3.1-10.5-7.5-12.9,4.5-2.4,7.5-7.3,7.5-12.9,0-8-6.2-14.5-13.8-14.5h-126.8c-7.6,0-13.8,6.5-13.8,14.5s3,10.5,7.5,12.9c-4.5,2.4-7.5,7.3-7.5,12.9,0,5.6,3,10.5,7.5,12.9-4.5,2.4-7.5,7.3-7.5,12.9,0,8,6.2,14.5,13.8,14.5h126.8c7.6,0,13.8-6.4,13.8-14.4s-3-10.5-7.5-12.9c4.5-2.4,7.5-7.3,7.5-12.9h0Z"/>
      <path class="st7" d="M682.3,493.1c-.5.2-1.1.4-1.7.4h-112.4c-2.3,0-4.2-1.9-4.2-4.2,0-2.3,1.9-4.2,4.2-4.2h112.4c2.3,0,4.2,1.9,4.2,4.2,0,1.7-1,3.2-2.5,3.8h0Z"/>
      <path class="st7" d="M682.3,518.9c-.5.2-1.1.4-1.7.4h-112.4c-2.3,0-4.2-1.9-4.2-4.2s1.9-4.2,4.2-4.2h112.5c2.3,0,4.2,1.9,4.2,4.2s-1,3.2-2.5,3.8h0Z"/>
    </g>
    <g>
      <path class="st3" d="M781.2,276.8c0-86.6-70.2-156.9-156.8-156.9-86.6,0-156.9,70.2-156.9,156.8,0,39.1,14.3,74.9,38,102.3.3.3,1.6,1.6,2,2,35.8,36.9,52.5,69.6,52.5,80.9h64.3s64.4,0,64.4,0c0-11.2,16.8-43.8,52.5-80.6.4-.4,1.5-1.7,1.7-2,23.8-27.5,38.3-63.4,38.3-102.6h0Z"/>
      <path class="st8" d="M568.6,461.9c-3.8-21-22-48.9-49.8-78.4l-4.2-4.8c-23.3-26.6-36.1-60.8-36.1-96.1,0-80.5,65.5-145.9,146-145.9,80.5,0,145.9,65.5,145.9,146,0,35.4-12.8,69.5-36.2,96.1l-4.2,4.8c-27.9,29.5-46,59-49.9,78.4h-111.4s0,0,0,0Z"/>
      <path class="st17" d="M704,160.3c27.3,28.2,44.1,66.6,44,108.9,0,38-17.9,74.7-42.9,103.3l-4.6,5.2c-29.9,31.7-49.4,63.4-53.6,84.2h33.1c3.8-19.3,22-48.9,49.9-78.4l4.2-4.8c23.3-26.6,36.2-60.7,36.2-96.1,0-51.1-26.4-96.2-66.4-122.3h0Z"/>
      <path class="st10" d="M506.3,205.5c-6.5,11.2-6.5,23.4,0,27.2,6.5,3.8,17.1-2.3,23.5-13.5,6.5-11.2,6.5-23.4,0-27.2-6.5-3.8-17.1,2.3-23.5,13.5h0Z"/>
    </g>
    <path class="st2" d="M608.1,453.9c-.7,0-1.2-.6-1.2-1.2v-92c0-20.6-10.6-41.5-31.5-61.9-.5-.5-.5-1.3,0-1.8.5-.5,1.3-.5,1.8,0,21.4,20.9,32.3,42.4,32.3,63.7v92c0,.7-.6,1.2-1.2,1.2h0Z"/>
    <path class="st2" d="M640.9,453.9c-.7,0-1.2-.6-1.2-1.2v-92c0-21.4,10.9-42.8,32.3-63.7.5-.5,1.3-.5,1.8,0,.5.5.5,1.3,0,1.8-20.9,20.4-31.5,41.3-31.5,61.9v92c0,.7-.6,1.2-1.2,1.2h0Z"/>
    <path class="st18" d="M624.4,84.9c-2.1,0-3.8-1.7-3.8-3.8V3.8C620.7,1.7,622.4,0,624.4,0s3.8,1.7,3.8,3.8v77.4c0,2.1-1.7,3.8-3.8,3.8Z"/>
    <path class="st18" d="M731.1,116.6c-.7,0-1.4-.2-2-.6-1.7-1.1-2.2-3.4-1.1-5.2l30.8-47.3c1.1-1.7,3.5-2.2,5.2-1.1,1.7,1.1,2.2,3.5,1.1,5.2l-30.8,47.3c-.7,1.1-1.9,1.7-3.2,1.7h0Z"/>
    <path class="st18" d="M803.2,201.3c-1.4,0-2.8-.8-3.4-2.2-.8-1.9,0-4.1,1.9-4.9l72.9-32.2c1.9-.8,4.1,0,5,1.9s0,4.1-1.9,4.9l-72.9,32.2c-.5.2-1,.3-1.5.3h0Z"/>
    <path class="st18" d="M861.1,318.8c-.2,0-.4,0-.6,0l-43.6-7.1c-2-.3-3.4-2.3-3.1-4.3.3-2,2.3-3.4,4.3-3.1l43.6,7.1c2,.3,3.4,2.3,3.1,4.3-.3,1.8-1.9,3.1-3.7,3.1Z"/>
    <path class="st18" d="M517.7,116.6c-1.2,0-2.4-.6-3.1-1.7l-30.8-47.3c-1.1-1.7-.6-4.1,1.1-5.2,1.7-1.1,4.1-.6,5.2,1.1l30.8,47.3c1.1,1.7.6,4.1-1.1,5.2-.6.4-1.3.6-2,.6h0Z"/>
    <path class="st18" d="M445.6,201.3c-.5,0-1-.1-1.5-.3l-74.9-33.2c-1.9-.8-2.8-3.1-1.9-4.9.8-1.9,3.1-2.8,4.9-1.9l74.9,33.2c1.9.8,2.8,3.1,1.9,4.9-.6,1.4-2,2.2-3.4,2.2h0Z"/>
    <path class="st18" d="M397.6,317.2c-1.8,0-3.4-1.3-3.7-3.1-.3-2,1.1-4,3.1-4.3l33.8-5.5c2-.3,4,1.1,4.3,3.1s-1.1,4-3.1,4.3l-33.8,5.5c-.2,0-.4,0-.6,0h0Z"/>
    <path class="st10" d="M662.3,288.4c-.8.4-1.7.1-2.2-.6-.5-.8-.3-1.9.5-2.4,14.3-9.5,19-13.6,20.5-15.4-3.9.4-13.6,4-17.2,5.2l-2.1.7c-.7.3-1.6,0-2-.7-.5-.6-.4-1.5,0-2.1,15.5-18.6,18.6-24.7,19.1-26.6-4.9,1.3-22.8,15.6-26,20.9-.5.8-1.5,1.1-2.3.7-.8-.4-1.2-1.4-.9-2.2,8.8-23.2,9.8-30.1,9.7-32.1-1.7,1.1-7,6.1-21.7,29-.5.7-1.3,1-2.1.7-.8-.3-1.2-1.1-1.1-1.9,3.8-23.9,3.8-31.6,3.3-34-3.4,4.3-11,24.5-13.7,35.7-.2.9-1,1.4-1.9,1.3s-1.6-.8-1.6-1.7c-.7-23.9-2-32.1-2.8-34.9-2.4,5.7-5.7,26.6-7.3,40.8,0,.8-.8,1.5-1.6,1.6-.8,0-1.6-.4-1.9-1.2-8.5-27.5-12.5-35-14-37.1-1.5,6.1,2,34,3.8,39.4.2.8,0,1.6-.7,2-.7.4-1.6.3-2.2-.2-18.5-17.7-25.1-22.1-27.4-23.2,1.9,6.5,20.2,31.7,23.7,35.4.7.7.6,1.8,0,2.5-.7.7-1.8.6-2.5,0-.3-.3-29.1-35.9-24-40.9,1.6-1.6,3.6-3.6,28.6,19.9-1.9-11.2-4.8-34.4-1.5-38.1.7-.7,1.6-1,2.5-.8,1.6.4,4.6,1,14.7,32.3,3.1-24.6,6.5-37,10.1-36.9,2.1,0,4.5.2,5.7,28.7,3.8-11.9,10.2-29.6,15-28.7,2.1.4,4.8,1,.5,30.6,17.2-26.1,20-24.7,21.9-23.7,2.3,1.2,3.7,4.4-5,28.4,7.6-7.1,19.4-16.1,23.7-15.8,1.1,0,2,.7,2.4,1.6.7,1.5,1.8,4.3-15.7,25.8,13-4.5,17.1-5,18.3-2.5.9,1.8,2,4.1-22.5,20.4,0,0-.2.1-.3.1h0Z"/>
  </g>
  <g id="Secondary_shapes">
    <path class="st9" d="M42.1,517.4l-28,5.7c-2.2.4-4,2-4.7,4.2l-9.1,27.1c-.7,2.1-.2,4.5,1.2,6.1l19,21.4c1.5,1.7,3.7,2.4,5.9,2l28-5.7c2.2-.4,4-2,4.7-4.2l9.1-27.1c.7-2.1.2-4.5-1.2-6.1l-19-21.4c-1.5-1.7-3.8-2.4-5.9-2h0Z"/>
    <path class="st9" d="M1372.7,1475.5l13.6-26.7c1.6-3.1,5.3-4.3,8.4-2.7l26.7,13.6c3.1,1.6,4.3,5.3,2.7,8.4l-13.6,26.7c-1.6,3.1-5.3,4.3-8.4,2.7l-26.7-13.6c-3.1-1.6-4.3-5.3-2.7-8.4h0Z"/>
    <path class="st6" d="M1344.7,234.9l6.3,44.1c.7,4.8,6.3,7,10.1,4l35-27.5c3.8-3,2.9-8.9-1.5-10.7l-41.3-16.6c-4.5-1.8-9.2,1.9-8.5,6.7h0Z"/>
  </g>
</svg>