<?xml version="1.0" encoding="utf-8"?>
<!-- Generator: Adobe Illustrator 22.0.0, SVG Export Plug-In . SVG Version: 6.00 Build 0)  -->
<svg version="1.1" id="Livello_1" xmlns="http://www.w3.org/2000/svg" xmlns:xlink="http://www.w3.org/1999/xlink" x="0px" y="0px"
	 viewBox="0 0 27.5 27.5" style="enable-background:new 0 0 27.5 27.5;" xml:space="preserve">
<g>
	<path d="M25.3,2.2c-3-3-7.8-3-10.8,0l-2.1,2.1c-0.6,0.6-0.6,1.5,0,2.1C13,7,13.9,7,14.5,6.5l2.2-2.1c1.8-1.8,4.7-1.8,6.5,0
		c1.8,1.8,1.8,4.7,0,6.5l-3.7,3.7c-0.2,0.2-0.3,0.3-0.5,0.4c-2,1.5-4.9,1.1-6.5-0.9c-0.5-0.7-1.4-0.8-2.1-0.3
		c-0.7,0.5-0.8,1.4-0.3,2.1c1.5,2,3.8,3.1,6.1,3.1c1.6,0,3.2-0.5,4.6-1.5c0.3-0.2,0.6-0.5,0.8-0.7l3.7-3.7
		C28.3,10.1,28.3,5.2,25.3,2.2z"/>
	<path d="M13,21l-2.1,2.1c0,0-0.1,0.1-0.1,0.1c-0.9,0.9-2,1.3-3.3,1.3c-1.2,0-2.4-0.5-3.3-1.4c-1.8-1.8-1.7-4.8,0.1-6.6L8,12.9
		c0.2-0.2,0.3-0.3,0.5-0.4c1-0.7,2.2-1.1,3.4-0.9c1.2,0.2,2.3,0.8,3,1.8c0.5,0.7,1.4,0.8,2.1,0.3c0.7-0.5,0.8-1.4,0.3-2.1
		c-1.2-1.6-3-2.7-5-3c-2-0.3-4,0.2-5.7,1.4c-0.3,0.2-0.6,0.5-0.8,0.7l-3.7,3.7c-3,2.9-3.1,7.8-0.1,10.8c1.4,1.5,3.3,2.3,5.4,2.3
		c0,0,0.1,0,0.1,0c2,0,3.9-0.8,5.3-2.2l2.2-2.2c0.6-0.6,0.6-1.5,0-2.1C14.5,20.4,13.6,20.4,13,21z"/>
</g>
</svg>
