<?xml version="1.0" encoding="UTF-8"?>
<svg id="Layer_2" data-name="Layer 2" xmlns="http://www.w3.org/2000/svg" viewBox="0 0 356.23 193.48">
  <defs>
    <style>
      .cls-1 {
        fill: #61c680;
      }

      .cls-2 {
        fill: #fff;
      }
    </style>
  </defs>
  <g id="Layer_1-2" data-name="Layer 1">
    <g id="logo_whitw" data-name="logo whitw">
      <path class="cls-2" d="M348.12,20.79h-185.36c-.76-.08-2.84-.18-5.03,1.03-1.97,1.09-2.97,2.65-3.36,3.34-24.22,54.74-48.45,109.48-72.67,164.22-.37.47-3.15,3.95-7.99,4.1-5.21.16-8.3-3.71-8.61-4.1-11.12-23.36-22.24-46.71-33.37-70.06-.27-.69-.87-1.92-2.12-3.01-1.83-1.58-3.86-1.83-4.58-1.88H7.98c-5.09-1.58-8.37-6.42-7.94-11.43.38-4.39,3.53-8.2,7.94-9.53h29.35c1.49.57,3.74,1.64,5.97,3.62,2.74,2.44,4.16,5.1,4.86,6.68,7.68,15.96,15.37,31.92,23.06,47.87.04.07.56.89,1.55.94.71.04,1.39-.32,1.77-.94,20.96-46.82,41.92-93.64,62.89-140.46.79-1.63,2.57-4.74,6.08-7.36,3.82-2.84,7.65-3.58,9.47-3.82h195.14c4.57,1.23,7.83,5.21,8.09,9.78.29,4.99-3.08,9.64-8.09,11.01Z"/>
      <path class="cls-1" d="M207.02,95.9l30.03,27.6c.14.13.82.75,1.87.75s1.73-.62,1.87-.75c10.35-9.51,20.7-19.02,31.06-28.53,3.25-1.79,7.25-1.05,9.45,1.59,1.86,2.24,2.17,5.5.75,8.23-12.91,12.29-25.82,24.57-38.73,36.86-.34.32-1.92,1.76-4.4,1.78-2.53.02-4.16-1.47-4.49-1.78-13.16-12.41-26.32-24.82-39.48-37.23-1.38-3.19-.46-6.9,2.15-8.98,2.86-2.28,7.11-2.12,9.92.47h0Z"/>
      <path class="cls-2" d="M171.66,169.52h127.01c2.16.04,3.9,1.84,3.87,3.97-.03,2.1-1.75,3.84-3.87,3.87h-127.01c-1.98-.22-3.51-1.9-3.53-3.87-.02-2.01,1.51-3.75,3.53-3.97h0Z"/>
    </g>
  </g>
</svg>