<?xml version="1.0" encoding="utf-8"?>
<!-- Generator: Adobe Illustrator 22.0.0, SVG Export Plug-In . SVG Version: 6.00 Build 0)  -->
<svg version="1.1" id="Livello_1" xmlns="http://www.w3.org/2000/svg" xmlns:xlink="http://www.w3.org/1999/xlink" x="0px" y="0px"
	 viewBox="0 0 23 17" style="enable-background:new 0 0 23 17;" xml:space="preserve">
<style type="text/css">
	.st0{fill:#212121;}
</style>
<path class="st0" d="M23,0.4C23,0.4,23,0.3,23,0.4C23,0.3,23,0.3,23,0.4c0-0.1-0.1-0.2-0.2-0.2c0,0,0,0,0,0C22.7,0,22.6,0,22.5,0
	h-22C0.4,0,0.3,0,0.2,0.1c0,0,0,0,0,0C0.1,0.2,0.1,0.2,0,0.3c0,0,0,0,0,0c0,0,0,0,0,0c0,0,0,0.1,0,0.1v14C0,15.9,1.1,17,2.5,17h18
	c1.4,0,2.5-1.1,2.5-2.5v-14C23,0.5,23,0.4,23,0.4z M21.1,1l-8.7,7.2c-0.5,0.4-1.2,0.4-1.7,0L1.9,1H21.1z M20.5,16h-18
	C1.7,16,1,15.3,1,14.5V1.6L10,9c0.4,0.3,0.9,0.5,1.5,0.5c0.5,0,1-0.2,1.5-0.5l9-7.5v12.9C22,15.3,21.3,16,20.5,16z"/>
</svg>
