<?xml version="1.0" encoding="utf-8"?>
<!-- Generator: Adobe Illustrator 22.0.0, SVG Export Plug-In . SVG Version: 6.00 Build 0)  -->
<svg version="1.1" id="Livello_1" xmlns="http://www.w3.org/2000/svg" xmlns:xlink="http://www.w3.org/1999/xlink" x="0px" y="0px"
	 viewBox="0 0 24 23.3" style="enable-background:new 0 0 24 23.3;" xml:space="preserve">
<style type="text/css">
	.st0{fill:#163567;}
</style>
<path class="st0" d="M23.1,7.3c-1.2-2.9-3.5-5.1-6.4-6.4c-3-1.2-6.4-1.2-9.4,0C4.4,2.2,2.2,4.4,0.9,7.3c-1.2,3-1.2,6.4,0,9.4
	c1.2,2.9,3.5,5.1,6.4,6.4c0.1,0,0.1,0,0.2,0c0.2,0,0.4-0.1,0.5-0.3c0.1-0.3,0-0.5-0.3-0.7C5.1,21,3,18.9,1.9,16.3
	c-1.1-2.7-1.1-5.8,0-8.6C3,5.1,5.1,3,7.7,1.9c2.7-1.1,5.8-1.1,8.6,0C18.9,3,21,5.1,22.1,7.7C22.7,9.1,23,10.5,23,12
	c0.1,1.5-0.2,2.9-0.8,4.2c-0.6,1.1-2.2,2.5-3.3,2.3c-1-0.2-1.3-1.7-1.5-2.9c-0.3-2.9-0.4-6.9,0.6-10c0.1-0.3-0.1-0.5-0.3-0.6
	c-0.3-0.1-0.5,0.1-0.6,0.3c-0.1,0.4-0.3,0.8-0.4,1.3C16,5.7,14.2,5,12.5,5h0c-0.2,0-0.3,0-0.5,0C10.1,5.1,8.3,5.9,7,7.3
	s-2,3.3-2,5.2c0,2.1,1,4.1,2.8,5.4c1.1,0.8,2.4,1.3,3.7,1.3c0.5,0,1-0.1,1.4-0.2c1.5-0.4,2.7-1.3,3.6-2.5c0.3,1.8,1,2.8,2.2,3.1
	c1.7,0.3,3.6-1.4,4.4-2.8c0.7-1.5,1-3.1,0.9-4.7C24,10.4,23.7,8.8,23.1,7.3z M16,15.3c-0.7,1.4-1.9,2.4-3.4,2.7
	c-1.4,0.4-3,0.1-4.3-0.9C6.9,16,6,14.3,6,12.5C5.9,10.8,6.6,9.2,7.7,8c1.1-1.2,2.7-1.9,4.4-2c0.1,0,0.3,0,0.4,0
	C14.4,6,16,6.9,16,7.5c0,0.2,0.2,0.4,0.4,0.5c-0.3,2.4-0.3,4.9-0.1,7C16.2,15.1,16.1,15.2,16,15.3z"/>
</svg>
