<svg xmlns="http://www.w3.org/2000/svg" width="23.647" height="19.1" viewBox="0 0 23.647 19.1">
  <g id="Raggruppa_1842" data-name="Raggruppa 1842" transform="translate(-1445 -1636)">
    <path id="Tracciato_3049" data-name="Tracciato 3049" d="M1581.728,1637.455h9.823a.728.728,0,1,0,0-1.455h-9.823a.728.728,0,1,0,0,1.455Z" transform="translate(-123.631)" fill="#333"/>
    <path id="Tracciato_3050" data-name="Tracciato 3050" d="M1467.92,1830h-22.192a.728.728,0,1,0,0,1.455h22.192a.728.728,0,1,0,0-1.455Z" transform="translate(0 -176.356)" fill="#333"/>
    <path id="Tracciato_3051" data-name="Tracciato 3051" d="M1522.463,1733h-16.735a.728.728,0,1,0,0,1.455h16.735a.728.728,0,1,0,0-1.455Z" transform="translate(-54.543 -88.178)" fill="#333"/>
  </g>
</svg>
