<?xml version="1.0" encoding="utf-8"?>
<!-- Generator: Adobe Illustrator 22.0.0, SVG Export Plug-In . SVG Version: 6.00 Build 0)  -->
<svg version="1.1" id="Livello_1" xmlns="http://www.w3.org/2000/svg" xmlns:xlink="http://www.w3.org/1999/xlink" x="0px" y="0px"
	 viewBox="0 0 24 17" style="enable-background:new 0 0 24 17;" xml:space="preserve">
<style type="text/css">
	.st0{fill:#212121;}
</style>
<path class="st0" d="M23.8,8.1l-10-8C13.7,0,13.5,0,13.3,0C13.1,0.1,13,0.3,13,0.5V5C6.7,5.2,2.4,8.4,0,14.3c-0.1,0.2,0,0.5,0.2,0.6
	c0.2,0.1,0.4,0.1,0.6,0c3.9-3.2,7.9-4.2,12.2-3v4.6c0,0.2,0.1,0.4,0.3,0.5c0.1,0,0.1,0,0.2,0c0.1,0,0.2,0,0.3-0.1l10-8
	C23.9,8.8,24,8.7,24,8.5S23.9,8.2,23.8,8.1z M14,15.5v-4c0-0.2-0.1-0.4-0.4-0.5c-1.4-0.4-2.7-0.6-4-0.6c-2.7,0-5.4,0.8-7.9,2.5
	C4.1,8.3,8,6.1,13.5,6C13.8,6,14,5.8,14,5.5v-4l8.7,7L14,15.5z"/>
</svg>
