<?xml version="1.0" encoding="utf-8"?>
<!-- Generator: Adobe Illustrator 22.0.0, SVG Export Plug-In . SVG Version: 6.00 Build 0)  -->
<svg version="1.1" id="Livello_1" xmlns="http://www.w3.org/2000/svg" xmlns:xlink="http://www.w3.org/1999/xlink" x="0px" y="0px"
	 viewBox="0 0 22.5 23.1" style="enable-background:new 0 0 22.5 23.1;" xml:space="preserve">
<style type="text/css">
	.st0{fill:#163567;}
</style>
<path class="st0" d="M21.4,0.1C21,0,20.6,0,20.3,0.2L0.8,10.4c-0.7,0.4-1,1.3-0.6,2c0.1,0.2,0.3,0.4,0.5,0.6L7,17v5.6
	C7,22.8,7.1,23,7.3,23c0.1,0,0.1,0.1,0.2,0.1c0.1,0,0.2,0,0.3-0.1l3.9-2.9l3.4,2.2c0.2,0.2,0.5,0.2,0.8,0.2c0.1,0,0.2,0,0.3,0
	c0.4-0.1,0.7-0.3,0.9-0.7c0.1-0.1,0.1-0.3,0.2-0.4c0,0,0,0,0,0l5.1-19.5C22.6,1.1,22.2,0.3,21.4,0.1z M8,21.6v-3.9l2.8,1.8L8,21.6z
	 M21.5,1.6l-5.1,19.5c0,0.1,0,0.1-0.1,0.1c-0.1,0.1-0.2,0.2-0.3,0.2c-0.1,0-0.3,0-0.4-0.1l-7.4-4.8l9.7-10.7c0.2-0.2,0.2-0.5,0-0.7
	s-0.5-0.2-0.7,0L7.4,16.1l-6.1-4c-0.1,0-0.1-0.1-0.2-0.2C1,11.8,1,11.7,1,11.5s0.1-0.2,0.2-0.3L20.7,1.1C20.8,1,20.9,1,21,1
	c0,0,0.1,0,0.1,0C21.4,1.1,21.5,1.4,21.5,1.6z"/>
</svg>
