<svg xmlns="http://www.w3.org/2000/svg" width="14.466" height="14.433" viewBox="0 0 14.466 14.433">
  <g id="Raggruppa_1853" data-name="Raggruppa 1853" transform="translate(-865.767 -1129.767)">
    <g id="Raggruppa_1851" data-name="Raggruppa 1851" transform="translate(866 1130)">
      <path id="Tracciato_3058" data-name="Tracciato 3058" d="M879.65,1144a.351.351,0,0,1-.248-.1l-13.3-13.3a.35.35,0,0,1,.5-.5l13.3,13.3a.35.35,0,0,1-.248.6Z" transform="translate(-866 -1130)" fill="#163567" stroke="#153262" stroke-width="0.4"/>
    </g>
    <g id="Raggruppa_1852" data-name="Raggruppa 1852" transform="translate(866 1130)">
      <path id="Tracciato_3059" data-name="Tracciato 3059" d="M866.35,1144a.35.35,0,0,1-.248-.6l13.3-13.3a.35.35,0,0,1,.5.5l-13.3,13.3A.351.351,0,0,1,866.35,1144Z" transform="translate(-866 -1130)" fill="#163567" stroke="#153262" stroke-width="0.4"/>
    </g>
  </g>
</svg>
