<?xml version="1.0" encoding="UTF-8"?>
<svg id="Layer_2" data-name="Layer 2" xmlns="http://www.w3.org/2000/svg" viewBox="0 0 1515.22 1301.23">
  <defs>
    <style>
      .cls-1 {
        fill: #f8d8d0;
      }

      .cls-2 {
        fill: #423eaf;
      }

      .cls-3 {
        fill: #f6f6fb;
      }

      .cls-4 {
        fill: #bbc0e6;
      }

      .cls-5 {
        fill: #e9edf7;
      }

      .cls-6 {
        fill: #a3a9d0;
      }

      .cls-7 {
        fill: #5652cc;
      }

      .cls-8 {
        fill: #807dfb;
      }

      .cls-9 {
        fill: #dde2f8;
      }

      .cls-10 {
        fill: #fff;
      }

      .cls-11 {
        fill: #f7d3c9;
      }

      .cls-12 {
        fill: #362e94;
      }

      .cls-13 {
        fill: #20196f;
      }

      .cls-14 {
        fill: #ced3f8;
      }

      .cls-15 {
        fill: #fcba06;
      }

      .cls-16 {
        fill: #9f9cff;
      }

      .cls-17 {
        fill: #6b67e9;
      }
    </style>
  </defs>
  <g id="Plants">
    <g>
      <path class="cls-9" d="M345.8,1036.81c-84.43-56.82-169.85-14.72-222.34,93.02,86.45,36.05,205.06,16.88,222.34-93.02Z"/>
      <path class="cls-3" d="M150.15,1119.66c-.93,0-1.82-.52-2.25-1.42-.6-1.24-.08-2.74,1.17-3.34,32.13-15.49,76.5-32.61,115.65-47.72,32.2-12.43,62.61-24.16,79.98-32.63,1.24-.61,2.74-.09,3.34,1.15s.09,2.74-1.15,3.34c-17.56,8.56-48.07,20.33-80.37,32.8-39.06,15.07-83.34,32.16-115.28,47.56-.35.17-.72.25-1.08.25Z"/>
    </g>
    <g>
      <path class="cls-9" d="M1248.35,1093.16c26.37,13.83,47.29-4.94,58.73-17.1-8.39-3.62-43.19-16.28-58.73,17.1Z"/>
      <path class="cls-9" d="M1010.95,1209.16c-.69,0-1.38-.29-1.87-.84-.91-1.04-.82-2.61.22-3.53,46.1-40.74,133.91-92.29,242.07-114.83,1.35-.28,2.68.59,2.96,1.94.28,1.35-.59,2.68-1.94,2.96-48.01,10-97.16,27.22-142.12,49.79-37.84,18.99-72.52,41.68-97.66,63.89-.48.42-1.07.63-1.65.63Z"/>
      <path class="cls-9" d="M1035.02,1170.82c26.33-54.07-7.86-82.05-33.1-104.42-6.81,17.15-35.22,75.07,33.1,104.42Z"/>
      <path class="cls-9" d="M1082.43,1138.05c31.27-36.79,10.27-65.37-4.88-87.8-8.72,11.98-42.38,51.33,4.88,87.8Z"/>
      <path class="cls-9" d="M1140.09,1113.29c33.53-24.44,21.73-52.54,13.58-74.34-9.69,8.25-45.73,34.37-13.58,74.34Z"/>
      <path class="cls-9" d="M1197.6,1093.96c24.26-8.78,22.07-27.6,20.98-42.02-7.21,3.24-33.24,12.6-20.98,42.02Z"/>
      <path class="cls-9" d="M1056.97,1193.25c51.54-12.62,69.29,22.1,83.87,48.04-16.07,2.67-71.32,16.36-83.87-48.04Z"/>
      <path class="cls-9" d="M1109.19,1158.57c42.22-17.67,62,9.53,77.92,29.68-13.33,4.42-58.57,23.51-77.92-29.68Z"/>
      <path class="cls-9" d="M1176.79,1127.04c31.07-3.62,38.91,17.97,45.55,34.21-9.58.39-42.9,4.37-45.55-34.21Z"/>
      <path class="cls-9" d="M1223.85,1108.99c17.41-5.4,24.21,6.14,29.74,14.72-5.45,1.25-24.1,7.09-29.74-14.72Z"/>
    </g>
    <path class="cls-8" d="M1275.71,160.52c21.59-50.22,72.4-56.07,127.46-22.7-28.54,41.43-87.68,67.3-127.46,22.7Z"/>
    <g>
      <path class="cls-16" d="M1278.89,157.12c-40.8-58.67-12.17-119.09,62.9-157.12,26.25,60.3,14.08,143.79-62.9,157.12Z"/>
      <path class="cls-10" d="M1278.89,159.69c-.37,0-.74-.08-1.09-.24-1.29-.6-1.84-2.13-1.24-3.42,5.75-12.27,13.67-33.77,22.05-56.53,10.18-27.64,21.71-58.97,32.24-81.71.6-1.29,2.13-1.85,3.41-1.25,1.29.6,1.85,2.12,1.25,3.41-10.44,22.55-21.93,53.77-32.08,81.32-8.42,22.87-16.37,44.47-22.21,56.94-.44.93-1.36,1.48-2.33,1.48Z"/>
    </g>
    <path class="cls-5" d="M348.91,1028.93c12.25-6.5,35.17-135.02,10.87-141.01-18.92-4.67-24.29,15.3-25.68,22.7-2.18,11.66-5.58,40.04-13.95,37.07-15.15-5.38,2.62-76.08,5.88-93.57,3.26-17.49,4.85-52.34-9.5-65.81-14.35-13.47-21.72-17.28-25.74,13.64-4.02,30.92-4.33,92.82-19.41,75.72-15.08-17.08-3.67-65.07-7.22-94.96-3.55-29.9-20.47-85.61-37.4-70.67-15.15,13.35,7.82,99.25-7.46,96.4-12.22-2.29-9.55-27.89-17.77-66.66-8.22-38.78-16.38-75.29-39.87-72.53-18.86,2.22-8.36,25.94-4.19,46.9,4.17,20.96,8.87,50.38-2.11,45.2-10.98-5.18-21.45-109.65-52.71-112.86-20.68-2.12-11.36,19.46-7.89,44.12,3.48,24.66,2.86,33.6-2.23,32.65-5.09-.95-15.19-33.46-20.26-51.46-5.07-18-18.49-42.09-35.43-37.94-16.94,4.14-5.83,32.15.68,41.55,6.5,9.39,8.71,21.11,5.89,23.02-2.81,1.91-26.48-27.57-39.73-12.99-13.27,14.58,12.1,40.54,31.45,44.15,19.36,3.62,45.37,9.17,44.06,16.23-1.32,7.06-23.73,2.88-41.39-.41-17.66-3.3-25.42-.58-26.3,4.13-2.93,15.69,17.57,33.21,30.47,35.62,12.9,2.41,86.98,6.5,85.03,16.93-1.94,10.42-29.57,5.96-43.83,3.3-14.26-2.66-47.54-8.87-50.8,8.61-3.26,17.49,39.79,35.27,67.28,38.66,27.47,3.39,72.41,5.52,70.89,13.59-1.5,8.07-37.81,12.43-55.12,9.19-17.32-3.23-46.59-17.75-50.6,3.78-4.02,21.52,21.61,30.83,55.6,37.18,14.21,2.66,49.45,8.87,70.74.49,24.25-9.55,37.91-10.32,40.4-4.79,4.97,11.02-17.51,16.57-34.43,16.89-16.92.32-69.58-1.85-64.59,24.14,4.98,25.99,47.79,16.93,65.36,14.99,17.58-1.94,78.89-14.16,81.66-.76,2.78,13.39-31.25,11.21-41.88,11.66-10.62.46-32.31,8.41-26.64,16.6,5.67,8.2,116.01,42.9,137.86,31.32Z"/>
    <path class="cls-9" d="M340.19,608.56c-38.31,81.5-122.31,88.33-211.12,30.35,49.28-66.65,148.07-105.97,211.12-30.35Z"/>
    <g>
      <path class="cls-5" d="M325.45,588.93c-134.79.23-197.73-109.08-176.01-266.35,121.69,24.1,238.05,132.68,176.01,266.35Z"/>
      <path class="cls-10" d="M325.45,591.43c-.86,0-1.7-.45-2.16-1.24-12.89-22.16-37.71-57.53-63.99-94.97-31.92-45.48-68.09-97.03-92-137.73-.7-1.19-.3-2.72.89-3.42,1.19-.7,2.72-.3,3.42.89,23.8,40.53,59.91,91.99,91.78,137.39,26.34,37.53,51.22,72.99,64.21,95.33.69,1.19.29,2.72-.9,3.42-.4.23-.83.34-1.25.34Z"/>
    </g>
  </g>
  <g id="Shadows">
    <path class="cls-5" d="M139.42,1264.11c0-18.93,136.24-34.28,304.29-34.28s304.29,15.35,304.29,34.28-136.23,34.28-304.29,34.28-304.29-15.35-304.29-34.28Z"/>
  </g>
  <g id="Boxes">
    <polygon class="cls-5" points="1001.98 1259.15 957.39 1273.17 1023.04 1287.2 978.46 1301.23 1132.39 1301.23 1176.98 1287.2 1001.98 1259.15"/>
    <g>
      <polygon class="cls-14" points="673.44 1222.76 826.98 1198.14 826.98 1063.61 673.44 1088.23 673.44 1222.76"/>
      <polygon class="cls-6" points="673.44 1088.23 826.98 1063.61 787.86 1051.31 634.32 1075.92 673.44 1088.23"/>
      <polygon class="cls-5" points="634.32 1075.92 787.86 1051.31 773.3 1017.55 619.77 1042.17 634.32 1075.92"/>
      <polygon class="cls-4" points="673.44 1088.23 826.98 1063.61 843.25 1039 689.71 1063.61 673.44 1088.23"/>
      <polygon class="cls-5" points="634.32 1210.45 673.44 1222.76 673.44 1088.23 634.32 1075.92 634.32 1210.45"/>
    </g>
    <g>
      <polygon class="cls-5" points="978.46 1301.23 803.46 1273.17 803.46 1119.84 978.46 1147.89 978.46 1301.23"/>
      <polygon class="cls-6" points="978.46 1147.89 803.46 1119.84 848.04 1105.81 1023.04 1133.87 978.46 1147.89"/>
      <polygon class="cls-5" points="1023.04 1133.87 848.04 1105.81 864.64 1067.34 1039.64 1095.39 1023.04 1133.87"/>
      <polygon class="cls-14" points="978.46 1147.89 803.46 1119.84 784.92 1091.79 959.92 1119.84 978.46 1147.89"/>
      <polygon class="cls-14" points="1023.04 1287.2 978.46 1301.23 978.46 1147.89 1023.04 1133.87 1023.04 1287.2"/>
      <polygon class="cls-16" points="860.96 1225.94 890.96 1185.51 920.96 1235.56 860.96 1225.94"/>
    </g>
    <path class="cls-4" d="M758.85,1111.32c16.45-1.8,29.57,10.98,29.29,28.6-.27,17.59-13.84,33.33-30.29,35.13-16.47,1.81-29.59-11-29.31-28.59.28-17.62,13.84-33.33,30.31-35.13Z"/>
    <polygon class="cls-5" points="673.44 1222.76 803.46 1222.76 803.46 1201.91 673.44 1222.76"/>
  </g>
  <g id="Data_elements" data-name="Data elements">
    <circle class="cls-5" cx="520.84" cy="180.1" r="47.55"/>
    <circle class="cls-8" cx="897.51" cy="180.1" r="22.24"/>
    <circle class="cls-5" cx="1274.18" cy="180.1" r="44.59" transform="translate(876.85 1404.06) rotate(-80.06)"/>
    <circle class="cls-8" cx="1462.51" cy="180.1" r="11.88"/>
    <circle class="cls-8" cx="709.18" cy="368.43" r="21.65" transform="translate(169.02 957.42) rotate(-74.93)"/>
    <circle class="cls-8" cx="897.51" cy="368.43" r="15.5" transform="translate(-26.18 665.18) rotate(-40.13)"/>
    <circle class="cls-5" cx="1085.84" cy="368.43" r="46.55" transform="translate(-25.39 651.19) rotate(-33.02)"/>
    <path class="cls-7" d="M1274.18,317.83c-27.94,0-50.6,22.65-50.6,50.6s22.65,50.6,50.6,50.6,50.6-22.65,50.6-50.6-22.65-50.6-50.6-50.6ZM1274.18,406.77c-21.17,0-38.34-17.17-38.34-38.34s17.17-38.34,38.34-38.34,38.34,17.17,38.34,38.34-17.17,38.34-38.34,38.34Z"/>
    <circle class="cls-8" cx="1462.51" cy="368.43" r="14.63" transform="translate(111.03 1037.9) rotate(-40.49)"/>
    <circle class="cls-5" cx="520.84" cy="556.76" r="31.9" transform="translate(-112.16 981.7) rotate(-80.78)"/>
    <circle class="cls-15" cx="709.18" cy="556.76" r="21.39" transform="translate(-185.98 664.54) rotate(-45)"/>
    <circle class="cls-5" cx="1085.84" cy="556.76" r="31.11"/>
    <circle class="cls-5" cx="1462.51" cy="556.76" r="49.45" transform="translate(578.03 1847.74) rotate(-76.43)"/>
    <path class="cls-7" d="M520.84,714.53c-16.88,0-30.57,13.69-30.57,30.57s13.69,30.57,30.57,30.57,30.57-13.69,30.57-30.57-13.69-30.57-30.57-30.57ZM520.84,767.05c-12.12,0-21.95-9.83-21.95-21.95s9.83-21.95,21.95-21.95,21.95,9.83,21.95,21.95-9.83,21.95-21.95,21.95Z"/>
    <circle class="cls-5" cx="897.51" cy="745.1" r="32.87"/>
    <circle class="cls-8" cx="1085.84" cy="745.1" r="18.65"/>
    <circle class="cls-8" cx="1274.18" cy="745.1" r="10.88"/>
    <circle class="cls-7" cx="520.84" cy="933.43" r="17.83" transform="translate(-487.4 1288.43) rotate(-80.24)"/>
    <circle class="cls-8" cx="709.18" cy="933.43" r="20.12" transform="translate(-366.63 1399.13) rotate(-76.18)"/>
    <circle class="cls-5" cx="897.51" cy="933.43" r="42.53" transform="translate(-313.07 473.75) rotate(-25.33)"/>
    <circle class="cls-15" cx="1274.18" cy="933.43" r="18.12" transform="translate(138.18 2030.85) rotate(-80.24)"/>
    <circle class="cls-8" cx="1462.51" cy="933.43" r="28.9"/>
    <rect class="cls-14" x="1052.94" y="147.19" width="65.81" height="65.81"/>
    <rect class="cls-14" x="1067.72" y="915.31" width="36.24" height="36.24"/>
    <rect class="cls-14" x="482.5" y="330.09" width="76.68" height="76.68"/>
    <rect class="cls-14" x="1241.27" y="523.86" width="65.81" height="65.81"/>
    <rect class="cls-14" x="668.33" y="704.25" width="81.69" height="81.69"/>
    <polygon class="cls-15" points="708.6 139.35 670.08 206.08 747.13 206.08 708.6 139.35"/>
    <polygon class="cls-15" points="897.51 535.2 876.99 570.74 918.03 570.74 897.51 535.2"/>
    <polygon class="cls-15" points="1462.51 689.02 1409.8 780.31 1515.22 780.31 1462.51 689.02"/>
  </g>
  <g id="Back_hand" data-name="Back hand">
    <path class="cls-7" d="M331.94,454.37c-41.93,102.39-61.93,151.84,4.74,225.91,32.5-57.5-4.74-225.91-4.74-225.91Z"/>
  </g>
  <g id="Man">
    <g>
      <path class="cls-1" d="M524.25,1224.54v-8.85h24.16c.32,8.24,1.84,12.66,2.77,16.08-6.28,2.41-15.48-3.82-26.93-7.23Z"/>
      <path class="cls-13" d="M524.25,1224.54c11.46,3.42,20.66,9.64,26.93,7.23,3.32,2.41,52.33,20.04,57.31,23.45,5.11,3.49,4.36,8.91-1.04,8.91-7.9,0-72.97-2.86-72.97-2.86-1.32,1.43-2.39,2.86-2.39,2.86h-14.87c-4.43-7.68-3.23-30.76,7.02-39.59Z"/>
      <path class="cls-1" d="M284.92,1224.56c1.56-4.64,2.77-8.85,2.77-8.85l24.68.23c-1.12,6.16-1.45,12.43-.52,15.85-6.28,2.41-15.47-3.82-26.93-7.23Z"/>
      <path class="cls-13" d="M284.92,1224.56c11.46,3.41,20.65,9.64,26.93,7.23,3.33,2.41,52.33,20.04,57.32,23.45,5.1,3.5,4.36,8.92-1.05,8.92-7.9,0-72.97-2.87-72.97-2.87-1.32,1.43-2.39,2.87-2.39,2.87h-14.87c-4.44-7.69-3.24-30.76,7.02-39.6Z"/>
      <path class="cls-12" d="M332.52,723.54c-17.56,40.96-12.09,76.07-9.36,105.92-6.01,35.7-40.77,386.23-40.77,386.23,8.78,0,33.94.29,33.94.29,0,0,78.62-218.15,89.14-253.3,11.28-37.71,55.39-186.05,53.05-245.28-34.22,3.16-126,6.14-126,6.14Z"/>
      <path class="cls-2" d="M489.34,717.4c15.22,35.4,100.6,232.87,102.47,254.09,1.88,21.22-42.36,244.2-42.36,244.2h-25.98c-14.04-96.58-13.56-223.4-4.68-245.21-34.95-41.21-113.68-121.81-128.93-142.19-23.92-31.96-27.59-69.32-22.9-101.98,23.41-5.75,122.38-8.91,122.38-8.91Z"/>
    </g>
    <path class="cls-11" d="M683.92,251.52c2.77-4.66,6.1-5.83,5.52-15.77-.57-9.94-2.11-13.49-2.22-18.13-.11-4.64-1.74-18.54.52-18.32,2.26.21,5.7,16.15,7.34,15.66,1.63-.49,14.63-40.14,20.46-34.26,5.83,5.88,15.57,25.03,8.88,44.87-4.47,13.27-14.95,23.78-16.58,32.5-9.3,7.74-19.02,2.85-23.92-6.55Z"/>
    <path class="cls-8" d="M682.11,244.7s-49.86,100.69-61.65,107.89c-8.4,5.13-75.27,47.7-143.62,55.24h0c-12.74,1.54-32.12,3.87-39.42,4.69-6.15.69-44.37,6-54.24,9.65-8.79,3.25-31.72,8.81-51.25,32.22-6.67,65.54-7.45,250.52.58,269.17,8.04,18.65,122.37,7.97,158.07-3.15,13.96-49.51,20.92-157.24,23.85-227.15,0,0,125.11-78.05,135.61-87.8,10.5-9.76,61.19-145.99,61.19-145.99l-29.13-14.75Z"/>
    <g>
      <path class="cls-1" d="M370.81,375.63c4.14,8.04,13.8,31.45,12.38,46.52,9.23,2.67,33.76-.41,54.24-9.65-6.24-6.01-14-11.48-13.48-19.71.81-12.8,17.65-2.43,19.5-22.47,2.17-23.37-9.4-63.63-22.83-71.09-15.02-8.36-41.52-15.57-63.77,11.55-18.15,22.12,5.56,48.5,13.97,64.85Z"/>
      <path class="cls-12" d="M419.29,333.69c6.47-2.28.81-13.4-.95-19.79-1.24-4.51,2.31-8.92,7.37-10.23,18.82-4.87,21.47-32.51,6.27-38.07-15.22-5.56-20.78,11.87-30.48,12.17-11.31.35-14.06-12.6-28.55-5.8-13.38,6.27-2.38,16.83-10.32,22.35-8.19,5.69-25.92-1.43-31.76,16.84-4.33,13.55,12.73,19.33,15.73,31.53,1.87,7.62,3.07,41.23,25.58,41.31,23.11.08,35.99-23.97,28.41-44.6-3.08-8.36-2.57-15.46,1.75-16.46,6.43-1.5,7.71,14.02,16.96,10.76Z"/>
    </g>
    <path class="cls-17" d="M494.45,534.14c-1.87-35.93-11.9-54.65-7.77-62.66,4.59-8.9,18.67-6.64,43.12-14.94,33.13-11.25,64.9-28.47,98.37-49.94,12.37-7.94,31.69-18.8,36.16-28.72-6.35,14.46-11.6,25.08-14.27,27.56-10.5,9.76-135.61,87.8-135.61,87.8-2.93,69.91-9.89,177.64-23.85,227.15-9.25-6.59,6.23-140.59,3.86-186.25Z"/>
  </g>
</svg>