<?xml version="1.0" encoding="utf-8"?>
<!-- Generator: Adobe Illustrator 22.0.0, SVG Export Plug-In . SVG Version: 6.00 Build 0)  -->
<svg version="1.1" id="Livello_1" xmlns="http://www.w3.org/2000/svg" xmlns:xlink="http://www.w3.org/1999/xlink" x="0px" y="0px"
	 viewBox="0 0 24 24" style="enable-background:new 0 0 24 24;" xml:space="preserve">
<style type="text/css">
	.st0{fill:#163567;}
</style>
<g>
	<path class="st0" d="M17.9,13.6c-0.2-0.1-0.4-0.2-0.6-0.3l-0.4-0.2c-0.6-0.2-1.3,0-1.8,0.5l0,0.1c-0.2,0.2-0.6,0.2-0.9,0
		c-1.6-0.9-2.9-2.3-3.7-4c-0.1-0.2-0.3-0.7-0.1-0.9l0.1-0.1c0.4-0.5,0.6-1.2,0.3-1.9c0-0.1-0.1-0.2-0.1-0.3
		c-0.1-0.2-0.2-0.4-0.2-0.5c-0.3-0.8-1.1-1.2-2-1.2c-0.7,0.1-1.4,0.4-2,0.9C5.9,6.2,5.8,7.1,6.1,7.7c1.8,5.6,4.8,8.7,10,10.3
		c0.2,0.1,0.5,0.2,0.8,0.2c0.5,0,1.1-0.2,1.5-0.7c0.4-0.6,0.6-1.2,0.8-1.9C19.2,14.7,18.7,13.9,17.9,13.6z M17.6,16.9
		c-0.2,0.3-0.7,0.4-1.1,0.2c-4.9-1.5-7.7-4.4-9.4-9.7C6.9,7,6.9,6.6,7.2,6.4C7.6,6,8.1,5.8,8.6,5.7c0,0,0,0,0.1,0
		c0.4,0,0.8,0.2,0.9,0.6c0.1,0.1,0.1,0.3,0.2,0.5c0,0.1,0.1,0.3,0.1,0.3C10,7.4,10,7.8,9.8,8L9.7,8.1c-0.5,0.6-0.2,1.4,0,1.9
		c0.8,1.9,2.3,3.5,4.1,4.5c0.6,0.4,1.4,0.4,2,0l0.1-0.1c0.2-0.2,0.5-0.3,0.7-0.2l0.3,0.1c0.2,0.1,0.4,0.2,0.6,0.3
		c0.4,0.1,0.6,0.5,0.6,0.8C18,15.9,17.8,16.4,17.6,16.9z"/>
	<path class="st0" d="M22.3,5.9c-1.6-2.8-4.2-4.7-7.4-5.5C11.9-0.4,8.6,0,5.9,1.7C3.1,3.3,1.2,5.9,0.4,9c-0.8,3-0.4,6.2,1.2,8.9
		L0,23.4c0,0.2,0,0.4,0.1,0.5C0.3,24,0.5,24,0.6,24l5.4-1.6C7.9,23.5,10,24,12,24c2.1,0,4.2-0.6,6.1-1.7
		C23.8,18.9,25.7,11.6,22.3,5.9z M17.6,21.5c-3.5,2.1-7.8,2.1-11.2,0c-0.1,0-0.2-0.1-0.3-0.1c0,0-0.1,0-0.1,0l-4.8,1.4L2.6,18
		c0-0.1,0-0.3-0.1-0.4C1,15.1,0.6,12.1,1.3,9.3C2.1,6.4,3.9,4,6.4,2.5c5.2-3.1,12-1.4,15.1,3.9C24.6,11.6,22.9,18.4,17.6,21.5z"/>
</g>
</svg>
