<svg xmlns="http://www.w3.org/2000/svg" width="25.834" height="25.834" viewBox="0 0 25.834 25.834">
  <path id="globe" d="M12.917,8A12.917,12.917,0,1,0,25.834,20.917,12.915,12.915,0,0,0,12.917,8ZM22.98,15.917h-4.3a15.157,15.157,0,0,0-2.25-5.682A11.3,11.3,0,0,1,22.98,15.917Zm-5.479,5a24.617,24.617,0,0,1-.224,3.333H8.557a24.918,24.918,0,0,1,0-6.667h8.719A24.617,24.617,0,0,1,17.5,20.917ZM12.917,9.667c1.4,0,3.2,2.3,4.068,6.25H8.849C9.719,11.964,11.516,9.667,12.917,9.667ZM9.4,10.234a15.172,15.172,0,0,0-2.25,5.682h-4.3A11.3,11.3,0,0,1,9.4,10.234ZM1.667,20.917a11.179,11.179,0,0,1,.505-3.333H6.886a26.413,26.413,0,0,0-.219,3.333,25.476,25.476,0,0,0,.219,3.333H2.172A11.179,11.179,0,0,1,1.667,20.917Zm1.188,5h4.3A15.157,15.157,0,0,0,9.4,31.6,11.3,11.3,0,0,1,2.854,25.917Zm10.063,6.25c-1.4,0-3.2-2.3-4.068-6.25h8.136C16.115,29.87,14.318,32.167,12.917,32.167Zm3.516-.568a15.172,15.172,0,0,0,2.25-5.682h4.3A11.3,11.3,0,0,1,16.433,31.6Zm2.516-7.349a26.413,26.413,0,0,0,.219-3.333,25.475,25.475,0,0,0-.219-3.333h4.714a11.249,11.249,0,0,1,0,6.667Z" transform="translate(0 -8)" fill="#212121"/>
</svg>
