<svg xmlns="http://www.w3.org/2000/svg" width="32.214" height="22.65" viewBox="0 0 32.214 22.65">
  <path id="Icon_awesome-youtube" data-name="Icon awesome-youtube" d="M32.591,8.044a4.048,4.048,0,0,0-2.848-2.867C27.231,4.5,17.157,4.5,17.157,4.5s-10.074,0-12.586.678A4.048,4.048,0,0,0,1.723,8.044a42.462,42.462,0,0,0-.673,7.8,42.462,42.462,0,0,0,.673,7.8,3.987,3.987,0,0,0,2.848,2.821c2.512.678,12.586.678,12.586.678s10.074,0,12.586-.678a3.987,3.987,0,0,0,2.848-2.821,42.462,42.462,0,0,0,.673-7.8,42.462,42.462,0,0,0-.673-7.8ZM13.862,20.638v-9.58l8.42,4.79-8.42,4.79Z" transform="translate(-1.05 -4.5)" fill="#212121"/>
</svg>
