<?xml version="1.0" standalone="no"?>
<!DOCTYPE svg PUBLIC "-//W3C//DTD SVG 20010904//EN"
 "http://www.w3.org/TR/2001/REC-SVG-20010904/DTD/svg10.dtd">
<svg version="1.0" xmlns="http://www.w3.org/2000/svg"
 width="1600.000000pt" height="1600.000000pt" viewBox="0 0 1600.000000 1600.000000"
 preserveAspectRatio="xMidYMid meet">
<metadata>
Created by potrace 1.14, written by Peter Selinger 2001-2017
</metadata>
<g transform="translate(0.000000,1600.000000) scale(0.100000,-0.100000)"
fill="#000000" stroke="none">
<path d="M11988 11995 c-2 -3 -26 -7 -52 -9 -27 -3 -66 -8 -88 -11 -22 -4 -54
-8 -71 -10 -29 -4 -79 -13 -162 -30 -287 -58 -703 -225 -945 -380 -212 -136
-235 -152 -360 -255 -153 -125 -302 -283 -426 -450 -62 -83 -164 -245 -164
-259 0 -5 -4 -11 -8 -13 -11 -4 -93 -168 -84 -168 4 0 2 -4 -4 -8 -6 -4 -25
-45 -43 -92 -18 -47 -37 -94 -41 -105 -27 -69 -72 -225 -64 -225 3 0 0 -8 -5
-18 -6 -11 -13 -41 -17 -68 -3 -27 -8 -52 -10 -56 -2 -3 -6 -28 -9 -55 -2 -26
-8 -77 -11 -113 -12 -114 -7 -327 11 -450 9 -63 17 -106 21 -122 9 -29 17 -72
18 -90 0 -10 4 -18 9 -18 4 0 6 -3 4 -7 -3 -5 1 -21 8 -38 12 -27 14 -28 15
-7 3 23 6 40 10 45 1 1 3 9 5 17 17 85 64 229 115 355 41 101 185 367 201 373
5 2 9 8 9 13 0 8 47 77 92 134 128 164 311 346 443 440 16 11 33 25 39 30 23
20 107 75 115 75 5 0 11 4 13 8 5 14 270 157 308 167 3 1 22 9 44 18 21 9 44
17 52 17 7 0 15 4 18 9 3 4 34 16 68 26 35 9 68 20 73 23 6 4 15 7 20 9 6 1
60 13 120 27 61 14 130 28 155 31 25 3 59 9 75 11 102 18 490 27 575 13 36 -6
76 -12 90 -14 93 -12 363 -88 455 -129 17 -8 47 -20 68 -27 20 -7 37 -17 37
-21 0 -5 6 -8 13 -6 24 4 290 -138 431 -232 59 -39 84 -57 126 -90 25 -19 49
-38 55 -42 72 -54 290 -266 355 -346 19 -24 43 -54 53 -65 10 -12 26 -34 35
-49 9 -16 20 -28 24 -28 4 0 8 -6 8 -14 0 -8 4 -16 9 -18 14 -5 137 -210 185
-308 46 -94 115 -256 121 -285 2 -5 10 -32 20 -60 9 -27 18 -57 20 -65 2 -8
15 -58 29 -110 14 -52 35 -149 46 -215 12 -66 24 -131 27 -144 22 -119 20
-480 -3 -617 -34 -203 -84 -407 -124 -499 -4 -11 -18 -47 -30 -80 -31 -81
-151 -329 -161 -333 -5 -2 -9 -8 -9 -14 0 -8 -105 -178 -132 -213 -5 -5 -33
-44 -65 -85 -31 -41 -59 -77 -62 -80 -4 -3 -19 -21 -35 -40 -115 -143 -342
-346 -511 -458 -38 -26 -76 -52 -83 -59 -6 -6 -22 -15 -35 -19 -12 -4 -24 -9
-27 -13 -23 -29 -374 -191 -417 -193 -5 0 -17 -5 -28 -11 -11 -6 -24 -12 -30
-13 -5 -2 -57 -17 -115 -34 -58 -17 -113 -33 -122 -36 -10 -2 -28 -6 -40 -10
-13 -3 -34 -7 -48 -10 -14 -3 -29 -7 -35 -8 -15 -4 -76 -16 -105 -20 -14 -3
-25 -5 -25 -6 0 -1 -9 -3 -20 -4 -11 -2 -43 -6 -71 -10 -76 -11 -187 -23 -289
-30 -76 -6 -410 -6 -490 -1 -107 8 -211 17 -235 21 -14 2 -52 7 -85 10 -33 4
-63 8 -67 10 -3 2 -28 7 -55 10 -26 3 -66 9 -88 14 -22 4 -47 8 -55 8 -8 0
-24 3 -35 5 -11 3 -56 13 -100 22 -84 18 -85 18 -125 28 -33 8 -160 38 -179
42 -29 7 -166 46 -181 52 -8 3 -19 7 -25 7 -5 1 -26 6 -45 13 -19 6 -69 21
-110 33 -41 12 -84 25 -95 30 -11 5 -76 27 -145 50 -69 22 -134 45 -145 49
-11 5 -60 23 -110 41 -49 18 -94 36 -99 41 -6 5 -18 9 -28 9 -10 0 -26 4 -36
9 -26 13 -57 26 -172 71 -58 23 -117 48 -132 56 -14 8 -30 14 -36 14 -5 0 -27
8 -48 17 -22 9 -41 17 -44 18 -3 0 -21 8 -40 17 -19 8 -64 28 -100 43 -36 15
-89 38 -118 51 -29 13 -55 24 -57 24 -2 0 -30 12 -62 27 -32 15 -60 28 -63 28
-10 3 -87 37 -136 61 -28 13 -54 24 -57 24 -3 0 -40 16 -84 36 -95 44 -125 57
-183 82 -43 18 -76 34 -197 88 -28 13 -54 24 -57 24 -3 0 -33 13 -68 29 -93
43 -291 128 -351 152 -28 11 -79 32 -112 46 -69 29 -79 33 -160 65 -33 12 -62
25 -65 28 -3 3 -9 6 -15 7 -8 1 -286 101 -335 120 -8 4 -17 7 -20 7 -3 1 -25
9 -50 18 -47 17 -174 58 -200 63 -8 2 -46 13 -85 25 -83 25 -393 104 -450 116
-22 4 -42 8 -45 9 -17 5 -128 28 -140 29 -8 1 -31 5 -50 9 -54 11 -92 17 -135
23 -22 2 -51 8 -65 11 -31 7 -62 12 -125 18 -27 2 -63 7 -80 9 -45 8 -157 18
-330 32 -185 14 -762 7 -920 -11 -16 -2 -57 -6 -90 -9 -61 -6 -204 -23 -263
-31 -75 -11 -101 -16 -182 -31 -82 -15 -96 -18 -150 -28 -21 -3 -246 -55 -315
-72 -11 -3 -29 -7 -40 -9 -19 -5 -79 -22 -225 -66 -36 -11 -72 -21 -80 -23 -8
-2 -49 -16 -90 -30 -41 -14 -82 -28 -90 -30 -8 -3 -34 -11 -57 -20 -24 -8 -43
-12 -43 -8 0 4 -4 2 -8 -3 -4 -6 -32 -19 -62 -29 -30 -10 -73 -27 -95 -37 -23
-10 -53 -21 -68 -24 -15 -4 -30 -11 -33 -16 -3 -5 -11 -9 -18 -9 -8 0 -35 -10
-62 -22 -27 -12 -51 -22 -54 -23 -3 0 -31 -13 -64 -28 -32 -15 -60 -27 -62
-27 -2 0 -51 -22 -109 -50 -58 -27 -107 -49 -110 -50 -14 -2 -420 -214 -500
-260 -16 -10 -50 -29 -75 -42 -25 -14 -61 -35 -80 -47 -19 -11 -46 -26 -60
-33 -14 -7 -27 -15 -30 -19 -5 -6 -34 -22 -90 -51 -14 -7 -27 -15 -30 -19 -3
-3 -30 -21 -60 -38 -78 -45 -91 -54 -113 -73 -11 -10 -23 -15 -27 -13 -5 3
-10 -2 -14 -10 -3 -8 -10 -15 -15 -15 -6 0 -43 -21 -82 -47 -39 -27 -79 -52
-87 -58 -9 -5 -22 -16 -30 -22 -7 -7 -18 -13 -23 -13 -5 0 -9 -4 -9 -10 0 -5
37 3 83 19 72 25 275 90 302 97 6 2 42 12 80 24 39 12 90 28 115 35 59 18 361
106 380 111 8 2 101 26 205 54 105 27 199 52 210 54 11 3 70 17 130 31 61 15
119 28 130 30 27 5 64 13 100 22 17 4 41 8 55 9 14 1 27 3 30 4 3 2 10 4 15 5
6 2 12 4 15 5 12 4 155 31 195 36 16 2 37 6 45 9 8 3 33 7 55 10 22 3 51 7 65
10 14 3 43 8 65 10 22 2 58 7 80 11 22 4 51 8 65 10 132 16 150 17 384 40 28
2 52 6 54 9 3 2 12 0 22 -5 10 -5 20 -6 24 -3 3 4 30 8 59 9 91 5 510 4 572
-1 64 -5 77 -6 98 -4 17 1 155 -10 201 -17 21 -3 61 -7 90 -9 28 -2 51 -5 51
-6 0 -1 16 -3 35 -5 35 -3 52 -6 165 -26 33 -5 69 -12 80 -13 29 -5 76 -14
105 -21 14 -3 39 -8 55 -10 30 -4 361 -88 465 -117 30 -9 109 -34 175 -57 66
-22 127 -42 135 -44 8 -3 47 -17 85 -31 39 -15 81 -30 95 -35 30 -9 188 -74
247 -101 24 -10 45 -19 47 -19 2 0 30 -12 62 -27 33 -15 61 -27 64 -28 19 -6
106 -47 230 -108 80 -39 147 -71 150 -72 11 -2 253 -129 350 -183 25 -14 70
-38 100 -55 30 -17 87 -48 125 -70 39 -22 88 -50 110 -61 22 -12 42 -24 45
-27 3 -4 25 -16 50 -29 25 -12 53 -29 63 -38 9 -8 17 -12 17 -8 0 4 12 -1 28
-12 34 -23 278 -162 286 -162 3 0 24 -13 48 -28 24 -16 66 -39 93 -53 28 -13
52 -26 55 -29 8 -8 157 -89 395 -216 93 -49 588 -298 595 -299 3 -1 28 -12 55
-25 135 -63 312 -142 329 -145 10 -2 23 -8 30 -13 11 -10 368 -152 380 -152 3
0 25 -8 49 -18 63 -28 138 -54 170 -59 15 -3 30 -9 33 -14 3 -5 15 -9 28 -9
12 0 26 -4 31 -8 6 -5 30 -14 55 -21 25 -8 52 -16 60 -19 8 -3 21 -7 28 -9 6
-1 18 -5 25 -6 6 -2 19 -7 27 -10 8 -4 42 -14 75 -23 33 -9 94 -25 135 -36 41
-11 80 -21 85 -22 6 -2 28 -8 50 -14 22 -6 51 -13 65 -16 14 -2 86 -18 160
-34 74 -17 155 -33 180 -37 25 -4 54 -9 65 -11 11 -3 36 -7 55 -9 19 -3 44 -7
55 -10 11 -2 43 -7 70 -10 28 -3 59 -8 70 -10 11 -2 47 -7 80 -10 33 -3 74 -8
91 -10 149 -20 830 -28 1014 -12 131 12 241 26 252 33 5 3 8 0 8 -7 0 -8 4 -8
13 -1 6 5 40 13 74 16 35 4 68 9 75 11 7 2 31 7 53 9 42 6 80 13 80 16 0 1 11
3 25 4 14 2 36 5 50 9 14 4 36 9 50 12 81 15 341 88 400 112 8 3 22 7 30 9 8
2 62 22 120 45 58 22 111 41 118 42 6 0 12 4 12 9 0 4 5 8 10 8 6 0 26 7 46
15 19 8 38 15 42 16 24 8 383 195 406 212 6 4 53 33 103 65 51 31 101 64 111
73 10 8 24 18 32 21 23 9 195 138 198 149 2 5 8 9 13 9 5 0 22 11 37 24 15 14
38 34 52 45 14 11 40 33 59 48 53 44 361 352 413 413 25 30 60 71 76 90 16 19
68 87 115 150 48 63 90 120 94 125 4 6 14 22 22 37 8 15 22 37 33 47 10 11 18
25 18 30 0 5 6 16 13 23 14 14 114 186 163 278 16 30 32 57 37 58 4 2 7 10 7
18 0 7 8 28 18 46 15 28 61 129 127 283 7 17 25 66 40 110 15 44 33 92 41 106
7 15 11 29 8 31 -2 3 2 21 10 40 8 19 17 46 20 59 3 13 15 56 26 94 11 39 22
81 25 95 3 14 9 40 14 58 5 18 10 33 9 35 0 1 3 18 7 37 3 19 8 44 10 55 2 11
4 20 5 20 2 0 21 112 25 150 2 11 6 39 9 63 4 24 9 60 11 80 2 20 7 71 12 112
10 95 11 632 0 725 -16 146 -19 176 -31 245 -3 19 -8 49 -10 65 -10 60 -37
191 -54 258 -6 20 -8 37 -5 37 3 0 0 6 -6 14 -6 8 -11 18 -10 22 1 5 0 12 -1
17 -1 4 -3 10 -4 15 -20 76 -52 181 -67 217 -12 30 -22 70 -18 70 2 0 -4 14
-13 30 -9 17 -26 56 -37 87 -11 32 -25 66 -30 75 -5 10 -17 36 -26 58 -39 90
-129 270 -175 351 -28 47 -50 88 -50 90 0 3 -5 10 -10 17 -6 7 -48 69 -93 138
-46 69 -101 148 -123 175 -21 28 -50 65 -64 83 -13 18 -33 43 -45 56 -11 13
-38 45 -60 72 -58 69 -320 331 -390 389 -32 27 -67 56 -76 64 -9 8 -31 26 -48
40 -18 14 -41 32 -51 40 -10 8 -44 33 -76 55 -31 22 -62 45 -68 50 -35 31
-291 189 -358 221 -21 10 -38 21 -38 26 0 4 -7 8 -15 8 -8 0 -38 14 -67 31
-29 17 -54 31 -55 30 -2 0 -38 16 -80 35 -43 20 -127 55 -188 79 -60 23 -119
46 -130 50 -11 5 -31 10 -45 12 -13 2 -29 8 -35 12 -5 5 -23 12 -40 16 -34 9
-32 9 -105 30 -30 9 -66 19 -80 22 -14 2 -32 7 -40 10 -18 7 -26 9 -65 16 -16
3 -64 13 -105 22 -41 9 -86 18 -100 20 -14 2 -36 6 -50 9 -14 3 -47 8 -75 12
-27 3 -61 8 -75 11 -32 6 -606 14 -612 8z"/>
</g>
</svg>
